STARTFONT 2.1
COMMENT
COMMENT Converted from OpenType font "FreeSans.ttf" by "otf2bdf 3.0".
COMMENT
FONT -FreeType-FreeSans-Medium-R-Normal--14-100-100-100-P-80-ISO10646-1
SIZE 10 100 100
FONTBOUNDINGBOX 43 20 -16 -5
STARTPROPERTIES 19
FOUNDRY "FreeType"
FAMILY_NAME "FreeSans"
WEIGHT_NAME "Medium"
SLANT "R"
SETWIDTH_NAME "Normal"
ADD_STYLE_NAME ""
PIXEL_SIZE 14
POINT_SIZE 100
RESOLUTION_X 100
RESOLUTION_Y 100
SPACING "P"
AVERAGE_WIDTH 80
CHARSET_REGISTRY "ISO10646"
CHARSET_ENCODING "1"
FONT_ASCENT 12
FONT_DESCENT 2
COPYRIGHT "Copyright 2002, 2003, 2005, 2008, 2009, 2010, 2012 GNU Freefont contributors."
_OTF_FONTFILE "FreeSans.ttf"
_OTF_PSNAME "FreeSans"
ENDPROPERTIES
CHARS 4472
STARTCHAR 0020
ENCODING 32
SWIDTH 288 0
DWIDTH 4 0
BBX 0 0 0 0
BITMAP
ENDCHAR
STARTCHAR 0021
ENCODING 33
SWIDTH 360 0
DWIDTH 5 0
BBX 1 10 2 0
BITMAP
80
80
80
80
80
80
80
80
00
80
ENDCHAR
STARTCHAR 0022
ENCODING 34
SWIDTH 360 0
DWIDTH 5 0
BBX 3 4 1 6
BITMAP
A0
A0
A0
20
ENDCHAR
STARTCHAR 0023
ENCODING 35
SWIDTH 576 0
DWIDTH 8 0
BBX 8 10 0 0
BITMAP
12
16
34
7F
24
24
FE
28
48
48
ENDCHAR
STARTCHAR 0024
ENCODING 36
SWIDTH 576 0
DWIDTH 8 0
BBX 7 13 0 -2
BITMAP
10
3C
56
52
50
70
1E
12
D2
52
7C
10
10
ENDCHAR
STARTCHAR 0025
ENCODING 37
SWIDTH 864 0
DWIDTH 12 0
BBX 12 10 0 0
BITMAP
2080
5880
8900
4900
7200
0240
04B0
0910
0910
10E0
ENDCHAR
STARTCHAR 0026
ENCODING 38
SWIDTH 648 0
DWIDTH 9 0
BBX 8 10 1 0
BITMAP
38
48
4C
68
30
52
8A
8C
8E
FB
ENDCHAR
STARTCHAR 0027
ENCODING 39
SWIDTH 216 0
DWIDTH 3 0
BBX 1 4 1 6
BITMAP
80
80
80
80
ENDCHAR
STARTCHAR 0028
ENCODING 40
SWIDTH 360 0
DWIDTH 5 0
BBX 3 13 1 -3
BITMAP
20
40
40
80
80
80
80
80
80
40
40
40
20
ENDCHAR
STARTCHAR 0029
ENCODING 41
SWIDTH 360 0
DWIDTH 5 0
BBX 3 13 1 -3
BITMAP
80
80
40
40
40
60
60
60
40
40
40
80
80
ENDCHAR
STARTCHAR 002A
ENCODING 42
SWIDTH 360 0
DWIDTH 5 0
BBX 4 4 1 6
BITMAP
40
F0
60
A0
ENDCHAR
STARTCHAR 002B
ENCODING 43
SWIDTH 576 0
DWIDTH 8 0
BBX 6 7 1 0
BITMAP
10
10
10
FC
10
10
10
ENDCHAR
STARTCHAR 002C
ENCODING 44
SWIDTH 288 0
DWIDTH 4 0
BBX 2 3 1 -2
BITMAP
C0
40
80
ENDCHAR
STARTCHAR 002D
ENCODING 45
SWIDTH 360 0
DWIDTH 5 0
BBX 3 1 1 3
BITMAP
E0
ENDCHAR
STARTCHAR 002E
ENCODING 46
SWIDTH 288 0
DWIDTH 4 0
BBX 2 1 1 0
BITMAP
C0
ENDCHAR
STARTCHAR 002F
ENCODING 47
SWIDTH 288 0
DWIDTH 4 0
BBX 4 10 0 0
BITMAP
10
20
20
20
40
40
40
40
80
80
ENDCHAR
STARTCHAR 0030
ENCODING 48
SWIDTH 576 0
DWIDTH 8 0
BBX 6 10 1 0
BITMAP
70
C8
8C
84
84
84
84
84
8C
78
ENDCHAR
STARTCHAR 0031
ENCODING 49
SWIDTH 576 0
DWIDTH 8 0
BBX 4 10 1 0
BITMAP
10
30
F0
10
10
10
10
10
10
10
ENDCHAR
STARTCHAR 0032
ENCODING 50
SWIDTH 576 0
DWIDTH 8 0
BBX 6 10 1 0
BITMAP
78
CC
84
84
0C
18
60
C0
80
FC
ENDCHAR
STARTCHAR 0033
ENCODING 51
SWIDTH 576 0
DWIDTH 8 0
BBX 7 10 0 0
BITMAP
3C
66
42
06
1C
0C
02
C2
46
7C
ENDCHAR
STARTCHAR 0034
ENCODING 52
SWIDTH 576 0
DWIDTH 8 0
BBX 7 10 0 0
BITMAP
04
0C
14
34
24
44
84
FE
04
04
ENDCHAR
STARTCHAR 0035
ENCODING 53
SWIDTH 576 0
DWIDTH 8 0
BBX 6 10 1 0
BITMAP
FC
C0
80
80
F8
04
04
04
8C
F8
ENDCHAR
STARTCHAR 0036
ENCODING 54
SWIDTH 576 0
DWIDTH 8 0
BBX 6 10 1 0
BITMAP
38
CC
84
80
F8
CC
84
84
8C
78
ENDCHAR
STARTCHAR 0037
ENCODING 55
SWIDTH 576 0
DWIDTH 8 0
BBX 6 10 1 0
BITMAP
FC
04
08
08
10
30
20
20
60
40
ENDCHAR
STARTCHAR 0038
ENCODING 56
SWIDTH 576 0
DWIDTH 8 0
BBX 6 10 1 0
BITMAP
78
CC
84
8C
78
CC
84
84
84
F8
ENDCHAR
STARTCHAR 0039
ENCODING 57
SWIDTH 576 0
DWIDTH 8 0
BBX 6 10 1 0
BITMAP
70
C8
84
84
84
FC
24
04
88
78
ENDCHAR
STARTCHAR 003A
ENCODING 58
SWIDTH 288 0
DWIDTH 4 0
BBX 2 7 1 0
BITMAP
C0
00
00
00
00
00
C0
ENDCHAR
STARTCHAR 003B
ENCODING 59
SWIDTH 288 0
DWIDTH 4 0
BBX 2 9 1 -2
BITMAP
C0
00
00
00
00
00
C0
40
80
ENDCHAR
STARTCHAR 003C
ENCODING 60
SWIDTH 576 0
DWIDTH 8 0
BBX 6 6 1 1
BITMAP
0C
70
80
E0
18
04
ENDCHAR
STARTCHAR 003D
ENCODING 61
SWIDTH 576 0
DWIDTH 8 0
BBX 6 3 1 2
BITMAP
FC
00
FC
ENDCHAR
STARTCHAR 003E
ENCODING 62
SWIDTH 576 0
DWIDTH 8 0
BBX 7 6 1 1
BITMAP
C0
38
06
1C
70
80
ENDCHAR
STARTCHAR 003F
ENCODING 63
SWIDTH 576 0
DWIDTH 8 0
BBX 6 10 1 0
BITMAP
78
C4
84
0C
18
10
30
00
00
30
ENDCHAR
STARTCHAR 0040
ENCODING 64
SWIDTH 1008 0
DWIDTH 14 0
BBX 13 12 0 -2
BITMAP
0FE0
1030
2018
47C8
4CC8
48C8
C888
4898
4FF0
2000
1800
0FC0
ENDCHAR
STARTCHAR 0041
ENCODING 65
SWIDTH 648 0
DWIDTH 9 0
BBX 9 10 0 0
BITMAP
0C00
1C00
1400
1600
2200
2300
7F00
4100
4180
C180
ENDCHAR
STARTCHAR 0042
ENCODING 66
SWIDTH 648 0
DWIDTH 9 0
BBX 8 10 1 0
BITMAP
FE
82
82
82
FC
86
83
83
82
FE
ENDCHAR
STARTCHAR 0043
ENCODING 67
SWIDTH 720 0
DWIDTH 10 0
BBX 8 10 1 0
BITMAP
7E
43
81
80
80
80
81
81
43
7E
ENDCHAR
STARTCHAR 0044
ENCODING 68
SWIDTH 720 0
DWIDTH 10 0
BBX 8 10 1 0
BITMAP
FC
82
83
81
81
81
81
83
86
FC
ENDCHAR
STARTCHAR 0045
ENCODING 69
SWIDTH 648 0
DWIDTH 9 0
BBX 7 10 1 0
BITMAP
FE
80
80
80
FE
80
80
80
80
FE
ENDCHAR
STARTCHAR 0046
ENCODING 70
SWIDTH 576 0
DWIDTH 8 0
BBX 7 10 1 0
BITMAP
FE
80
80
80
FC
80
80
80
80
80
ENDCHAR
STARTCHAR 0047
ENCODING 71
SWIDTH 792 0
DWIDTH 11 0
BBX 9 10 1 0
BITMAP
3E00
4100
8180
8000
8000
8780
8080
8180
4180
3E80
ENDCHAR
STARTCHAR 0048
ENCODING 72
SWIDTH 720 0
DWIDTH 10 0
BBX 8 10 1 0
BITMAP
81
81
81
81
FF
81
81
81
81
81
ENDCHAR
STARTCHAR 0049
ENCODING 73
SWIDTH 288 0
DWIDTH 4 0
BBX 2 10 1 0
BITMAP
C0
C0
C0
C0
C0
C0
C0
C0
C0
C0
ENDCHAR
STARTCHAR 004A
ENCODING 74
SWIDTH 504 0
DWIDTH 7 0
BBX 6 10 0 0
BITMAP
04
04
04
04
04
04
04
C4
44
78
ENDCHAR
STARTCHAR 004B
ENCODING 75
SWIDTH 648 0
DWIDTH 9 0
BBX 8 10 1 0
BITMAP
83
84
88
90
B0
C8
8C
84
82
83
ENDCHAR
STARTCHAR 004C
ENCODING 76
SWIDTH 576 0
DWIDTH 8 0
BBX 6 10 1 0
BITMAP
80
80
80
80
80
80
80
80
80
FC
ENDCHAR
STARTCHAR 004D
ENCODING 77
SWIDTH 864 0
DWIDTH 12 0
BBX 10 10 1 0
BITMAP
C0C0
E1C0
A1C0
A1C0
B2C0
92C0
92C0
9CC0
8CC0
8CC0
ENDCHAR
STARTCHAR 004E
ENCODING 78
SWIDTH 720 0
DWIDTH 10 0
BBX 8 10 1 0
BITMAP
C1
E1
A1
B1
99
89
8D
85
83
83
ENDCHAR
STARTCHAR 004F
ENCODING 79
SWIDTH 792 0
DWIDTH 11 0
BBX 9 10 1 0
BITMAP
3E00
4100
8080
8080
8080
8080
8080
8180
4100
3E00
ENDCHAR
STARTCHAR 0050
ENCODING 80
SWIDTH 648 0
DWIDTH 9 0
BBX 7 10 1 0
BITMAP
FE
82
82
82
86
FC
80
80
80
80
ENDCHAR
STARTCHAR 0051
ENCODING 81
SWIDTH 792 0
DWIDTH 11 0
BBX 9 11 1 -1
BITMAP
3E00
4100
8080
8080
8080
8080
8080
8580
4300
3F80
0080
ENDCHAR
STARTCHAR 0052
ENCODING 82
SWIDTH 720 0
DWIDTH 10 0
BBX 8 10 1 0
BITMAP
FE
83
81
83
FE
FE
83
83
83
81
ENDCHAR
STARTCHAR 0053
ENCODING 83
SWIDTH 648 0
DWIDTH 9 0
BBX 8 10 1 0
BITMAP
7C
C2
82
C0
78
0E
03
83
C2
7E
ENDCHAR
STARTCHAR 0054
ENCODING 84
SWIDTH 648 0
DWIDTH 9 0
BBX 8 10 0 0
BITMAP
FF
08
08
08
08
08
08
08
08
08
ENDCHAR
STARTCHAR 0055
ENCODING 85
SWIDTH 720 0
DWIDTH 10 0
BBX 8 10 1 0
BITMAP
81
81
81
81
81
81
81
81
C3
7E
ENDCHAR
STARTCHAR 0056
ENCODING 86
SWIDTH 648 0
DWIDTH 9 0
BBX 9 10 0 0
BITMAP
C180
4100
6100
2300
2200
3200
1400
1400
1C00
0800
ENDCHAR
STARTCHAR 0057
ENCODING 87
SWIDTH 936 0
DWIDTH 13 0
BBX 13 10 0 0
BITMAP
C218
4710
4510
6510
65B0
28A0
28A0
28A0
38E0
1040
ENDCHAR
STARTCHAR 0058
ENCODING 88
SWIDTH 648 0
DWIDTH 9 0
BBX 8 10 1 0
BITMAP
82
46
6C
28
18
38
2C
44
C6
83
ENDCHAR
STARTCHAR 0059
ENCODING 89
SWIDTH 648 0
DWIDTH 9 0
BBX 8 10 1 0
BITMAP
83
C2
46
24
38
18
10
10
10
10
ENDCHAR
STARTCHAR 005A
ENCODING 90
SWIDTH 648 0
DWIDTH 9 0
BBX 8 10 0 0
BITMAP
7F
03
06
04
08
18
30
60
40
FF
ENDCHAR
STARTCHAR 005B
ENCODING 91
SWIDTH 288 0
DWIDTH 4 0
BBX 3 13 1 -3
BITMAP
E0
80
80
80
80
80
80
80
80
80
80
80
E0
ENDCHAR
STARTCHAR 005C
ENCODING 92
SWIDTH 288 0
DWIDTH 4 0
BBX 4 10 0 0
BITMAP
80
80
40
40
40
40
20
20
20
10
ENDCHAR
STARTCHAR 005D
ENCODING 93
SWIDTH 288 0
DWIDTH 4 0
BBX 3 13 0 -3
BITMAP
E0
20
20
20
20
20
20
20
20
20
20
20
E0
ENDCHAR
STARTCHAR 005E
ENCODING 94
SWIDTH 504 0
DWIDTH 7 0
BBX 5 5 1 5
BITMAP
20
60
50
90
88
ENDCHAR
STARTCHAR 005F
ENCODING 95
SWIDTH 576 0
DWIDTH 8 0
BBX 8 1 0 -3
BITMAP
FF
ENDCHAR
STARTCHAR 0060
ENCODING 96
SWIDTH 288 0
DWIDTH 4 0
BBX 2 2 1 8
BITMAP
80
40
ENDCHAR
STARTCHAR 0061
ENCODING 97
SWIDTH 576 0
DWIDTH 8 0
BBX 7 8 0 0
BITMAP
10
7C
44
04
7C
C4
C4
7E
ENDCHAR
STARTCHAR 0062
ENCODING 98
SWIDTH 576 0
DWIDTH 8 0
BBX 6 10 1 0
BITMAP
80
80
90
FC
84
84
84
84
C4
F8
ENDCHAR
STARTCHAR 0063
ENCODING 99
SWIDTH 504 0
DWIDTH 7 0
BBX 7 8 0 0
BITMAP
10
7C
44
C0
C0
46
44
7C
ENDCHAR
STARTCHAR 0064
ENCODING 100
SWIDTH 576 0
DWIDTH 8 0
BBX 7 10 0 0
BITMAP
02
02
12
7E
46
C2
C2
42
46
7E
ENDCHAR
STARTCHAR 0065
ENCODING 101
SWIDTH 504 0
DWIDTH 7 0
BBX 7 8 0 0
BITMAP
10
7C
46
C2
FE
40
46
3C
ENDCHAR
STARTCHAR 0066
ENCODING 102
SWIDTH 288 0
DWIDTH 4 0
BBX 4 10 0 0
BITMAP
70
40
40
F0
40
40
40
40
40
40
ENDCHAR
STARTCHAR 0067
ENCODING 103
SWIDTH 576 0
DWIDTH 8 0
BBX 7 11 0 -3
BITMAP
10
7E
46
C2
C2
42
46
7A
02
44
3C
ENDCHAR
STARTCHAR 0068
ENCODING 104
SWIDTH 576 0
DWIDTH 8 0
BBX 6 10 1 0
BITMAP
80
80
90
F8
8C
8C
8C
8C
8C
8C
ENDCHAR
STARTCHAR 0069
ENCODING 105
SWIDTH 216 0
DWIDTH 3 0
BBX 1 10 1 0
BITMAP
80
00
00
80
80
80
80
80
80
80
ENDCHAR
STARTCHAR 006A
ENCODING 106
SWIDTH 216 0
DWIDTH 3 0
BBX 2 13 0 -3
BITMAP
40
00
00
40
40
40
40
40
40
40
40
40
C0
ENDCHAR
STARTCHAR 006B
ENCODING 107
SWIDTH 504 0
DWIDTH 7 0
BBX 6 10 1 0
BITMAP
80
80
80
98
B0
E0
F0
90
88
8C
ENDCHAR
STARTCHAR 006C
ENCODING 108
SWIDTH 216 0
DWIDTH 3 0
BBX 1 10 1 0
BITMAP
80
80
80
80
80
80
80
80
80
80
ENDCHAR
STARTCHAR 006D
ENCODING 109
SWIDTH 792 0
DWIDTH 11 0
BBX 10 8 1 0
BITMAP
1100
FF80
88C0
88C0
88C0
88C0
88C0
88C0
ENDCHAR
STARTCHAR 006E
ENCODING 110
SWIDTH 576 0
DWIDTH 8 0
BBX 6 8 1 0
BITMAP
10
F8
8C
84
84
84
84
84
ENDCHAR
STARTCHAR 006F
ENCODING 111
SWIDTH 504 0
DWIDTH 7 0
BBX 7 8 0 0
BITMAP
10
7C
46
C2
C2
42
46
7C
ENDCHAR
STARTCHAR 0070
ENCODING 112
SWIDTH 576 0
DWIDTH 8 0
BBX 6 11 1 -3
BITMAP
10
FC
84
84
84
84
C4
F8
80
80
80
ENDCHAR
STARTCHAR 0071
ENCODING 113
SWIDTH 576 0
DWIDTH 8 0
BBX 7 11 0 -3
BITMAP
10
7E
46
C2
C2
42
46
7E
02
02
02
ENDCHAR
STARTCHAR 0072
ENCODING 114
SWIDTH 360 0
DWIDTH 5 0
BBX 3 7 1 1
BITMAP
E0
80
80
80
80
80
80
ENDCHAR
STARTCHAR 0073
ENCODING 115
SWIDTH 504 0
DWIDTH 7 0
BBX 5 8 1 0
BITMAP
20
F8
88
C0
78
08
88
F8
ENDCHAR
STARTCHAR 0074
ENCODING 116
SWIDTH 288 0
DWIDTH 4 0
BBX 4 9 0 0
BITMAP
40
40
F0
40
40
40
40
40
70
ENDCHAR
STARTCHAR 0075
ENCODING 117
SWIDTH 576 0
DWIDTH 8 0
BBX 6 7 1 0
BITMAP
84
84
84
84
8C
8C
F4
ENDCHAR
STARTCHAR 0076
ENCODING 118
SWIDTH 504 0
DWIDTH 7 0
BBX 6 7 0 0
BITMAP
C4
44
4C
68
28
38
10
ENDCHAR
STARTCHAR 0077
ENCODING 119
SWIDTH 720 0
DWIDTH 10 0
BBX 10 7 0 0
BITMAP
CCC0
4C80
4C80
5280
3380
3300
3300
ENDCHAR
STARTCHAR 0078
ENCODING 120
SWIDTH 504 0
DWIDTH 7 0
BBX 6 7 0 0
BITMAP
44
28
30
10
28
4C
C4
ENDCHAR
STARTCHAR 0079
ENCODING 121
SWIDTH 504 0
DWIDTH 7 0
BBX 6 10 0 -3
BITMAP
C4
44
4C
68
28
30
30
30
20
60
ENDCHAR
STARTCHAR 007A
ENCODING 122
SWIDTH 504 0
DWIDTH 7 0
BBX 6 7 0 0
BITMAP
7C
0C
18
30
20
40
FC
ENDCHAR
STARTCHAR 007B
ENCODING 123
SWIDTH 360 0
DWIDTH 5 0
BBX 3 13 1 -3
BITMAP
60
40
40
40
40
C0
80
C0
40
40
40
40
60
ENDCHAR
STARTCHAR 007C
ENCODING 124
SWIDTH 288 0
DWIDTH 4 0
BBX 1 13 1 -3
BITMAP
80
80
80
80
80
80
80
80
80
80
80
80
80
ENDCHAR
STARTCHAR 007D
ENCODING 125
SWIDTH 360 0
DWIDTH 5 0
BBX 3 13 1 -3
BITMAP
C0
40
40
40
40
40
20
40
40
40
40
40
C0
ENDCHAR
STARTCHAR 007E
ENCODING 126
SWIDTH 504 0
DWIDTH 7 0
BBX 6 2 1 4
BITMAP
C4
38
ENDCHAR
STARTCHAR 00A0
ENCODING 160
SWIDTH 288 0
DWIDTH 4 0
BBX 0 0 0 0
BITMAP
ENDCHAR
STARTCHAR 00A1
ENCODING 161
SWIDTH 360 0
DWIDTH 5 0
BBX 1 10 2 -3
BITMAP
80
00
80
80
80
80
80
80
80
80
ENDCHAR
STARTCHAR 00A2
ENCODING 162
SWIDTH 576 0
DWIDTH 8 0
BBX 6 9 1 -1
BITMAP
10
7C
A4
A0
A0
A4
E4
78
20
ENDCHAR
STARTCHAR 00A3
ENCODING 163
SWIDTH 576 0
DWIDTH 8 0
BBX 7 10 0 0
BITMAP
3C
46
42
40
60
F8
20
20
40
7E
ENDCHAR
STARTCHAR 00A4
ENCODING 164
SWIDTH 576 0
DWIDTH 8 0
BBX 6 6 1 2
BITMAP
80
FC
C8
88
48
BC
ENDCHAR
STARTCHAR 00A5
ENCODING 165
SWIDTH 576 0
DWIDTH 8 0
BBX 7 10 0 0
BITMAP
C2
42
24
24
18
7E
18
7E
18
18
ENDCHAR
STARTCHAR 00A6
ENCODING 166
SWIDTH 288 0
DWIDTH 4 0
BBX 1 13 1 -3
BITMAP
80
80
80
80
80
00
00
80
80
80
80
80
80
ENDCHAR
STARTCHAR 00A7
ENCODING 167
SWIDTH 576 0
DWIDTH 8 0
BBX 6 13 1 -3
BITMAP
78
48
4C
60
B8
8C
84
E4
38
18
88
C8
70
ENDCHAR
STARTCHAR 00A8
ENCODING 168
SWIDTH 360 0
DWIDTH 5 0
BBX 4 1 0 9
BITMAP
D0
ENDCHAR
STARTCHAR 00A9
ENCODING 169
SWIDTH 792 0
DWIDTH 11 0
BBX 10 10 1 0
BITMAP
1E00
6100
9C80
A280
A040
A040
A280
9E80
4100
3E00
ENDCHAR
STARTCHAR 00AA
ENCODING 170
SWIDTH 360 0
DWIDTH 5 0
BBX 3 6 1 4
BITMAP
E0
20
E0
A0
40
E0
ENDCHAR
STARTCHAR 00AB
ENCODING 171
SWIDTH 504 0
DWIDTH 7 0
BBX 5 4 1 1
BITMAP
48
D0
90
48
ENDCHAR
STARTCHAR 00AC
ENCODING 172
SWIDTH 576 0
DWIDTH 8 0
BBX 7 4 1 1
BITMAP
FE
02
02
02
ENDCHAR
STARTCHAR 00AD
ENCODING 173
SWIDTH 360 0
DWIDTH 5 0
BBX 3 1 1 3
BITMAP
E0
ENDCHAR
STARTCHAR 00AE
ENCODING 174
SWIDTH 792 0
DWIDTH 11 0
BBX 10 10 1 0
BITMAP
1E00
6100
BE80
A280
A240
BE40
A280
A280
4100
3E00
ENDCHAR
STARTCHAR 00AF
ENCODING 175
SWIDTH 360 0
DWIDTH 5 0
BBX 4 1 0 9
BITMAP
F0
ENDCHAR
STARTCHAR 00B0
ENCODING 176
SWIDTH 576 0
DWIDTH 8 0
BBX 4 5 2 5
BITMAP
20
D0
90
90
60
ENDCHAR
STARTCHAR 00B1
ENCODING 177
SWIDTH 576 0
DWIDTH 8 0
BBX 6 9 1 0
BITMAP
10
10
10
FC
10
10
10
00
FC
ENDCHAR
STARTCHAR 00B2
ENCODING 178
SWIDTH 360 0
DWIDTH 5 0
BBX 5 6 0 5
BITMAP
70
88
10
60
80
F8
ENDCHAR
STARTCHAR 00B3
ENCODING 179
SWIDTH 360 0
DWIDTH 5 0
BBX 4 6 0 5
BITMAP
70
90
30
10
90
60
ENDCHAR
STARTCHAR 00B4
ENCODING 180
SWIDTH 360 0
DWIDTH 5 0
BBX 3 2 1 8
BITMAP
60
80
ENDCHAR
STARTCHAR 00B5
ENCODING 181
SWIDTH 576 0
DWIDTH 8 0
BBX 7 10 1 -3
BITMAP
84
84
84
84
84
8C
F6
80
80
80
ENDCHAR
STARTCHAR 00B6
ENCODING 182
SWIDTH 576 0
DWIDTH 8 0
BBX 6 12 1 -2
BITMAP
7C
E4
E4
E4
E4
64
24
24
24
24
24
24
ENDCHAR
STARTCHAR 00B7
ENCODING 183
SWIDTH 288 0
DWIDTH 4 0
BBX 2 2 1 3
BITMAP
C0
C0
ENDCHAR
STARTCHAR 00B8
ENCODING 184
SWIDTH 360 0
DWIDTH 5 0
BBX 3 3 1 -3
BITMAP
40
20
E0
ENDCHAR
STARTCHAR 00B9
ENCODING 185
SWIDTH 360 0
DWIDTH 5 0
BBX 2 6 1 5
BITMAP
40
C0
40
40
40
40
ENDCHAR
STARTCHAR 00BA
ENCODING 186
SWIDTH 360 0
DWIDTH 5 0
BBX 4 6 1 4
BITMAP
E0
A0
90
A0
40
E0
ENDCHAR
STARTCHAR 00BB
ENCODING 187
SWIDTH 504 0
DWIDTH 7 0
BBX 5 4 1 3
BITMAP
90
48
58
90
ENDCHAR
STARTCHAR 00BC
ENCODING 188
SWIDTH 864 0
DWIDTH 12 0
BBX 11 10 1 0
BITMAP
4080
C100
4200
4200
4440
48C0
0940
1140
13E0
2040
ENDCHAR
STARTCHAR 00BD
ENCODING 189
SWIDTH 864 0
DWIDTH 12 0
BBX 11 10 1 0
BITMAP
4100
C100
4200
4400
45C0
4920
0820
10C0
2100
21E0
ENDCHAR
STARTCHAR 00BE
ENCODING 190
SWIDTH 864 0
DWIDTH 12 0
BBX 12 10 0 0
BITMAP
7040
9080
3100
0900
8A20
7460
04A0
0920
09F0
1020
ENDCHAR
STARTCHAR 00BF
ENCODING 191
SWIDTH 576 0
DWIDTH 8 0
BBX 6 10 1 -3
BITMAP
10
00
00
10
30
60
40
C4
C4
7C
ENDCHAR
STARTCHAR 00C0
ENCODING 192
SWIDTH 648 0
DWIDTH 9 0
BBX 9 13 0 0
BITMAP
1000
0800
0000
0C00
1C00
1400
1600
2200
2300
7F00
4100
4180
C180
ENDCHAR
STARTCHAR 00C1
ENCODING 193
SWIDTH 648 0
DWIDTH 9 0
BBX 9 13 0 0
BITMAP
0600
0C00
0000
0C00
1C00
1400
1600
2200
2300
7F00
4100
4180
C180
ENDCHAR
STARTCHAR 00C2
ENCODING 194
SWIDTH 648 0
DWIDTH 9 0
BBX 9 13 0 0
BITMAP
0800
1400
0000
0C00
1C00
1400
1600
2200
2300
7F00
4100
4180
C180
ENDCHAR
STARTCHAR 00C3
ENCODING 195
SWIDTH 648 0
DWIDTH 9 0
BBX 9 12 0 0
BITMAP
1E00
0000
0C00
1C00
1400
1600
2200
2300
7F00
4100
4180
C180
ENDCHAR
STARTCHAR 00C4
ENCODING 196
SWIDTH 648 0
DWIDTH 9 0
BBX 9 12 0 0
BITMAP
1600
0000
0C00
1C00
1400
1600
2200
2300
7F00
4100
4180
C180
ENDCHAR
STARTCHAR 00C5
ENCODING 197
SWIDTH 648 0
DWIDTH 9 0
BBX 9 14 0 0
BITMAP
0800
1400
1400
0800
0C00
1C00
1400
1600
2200
2300
7F00
4100
4180
C180
ENDCHAR
STARTCHAR 00C6
ENCODING 198
SWIDTH 1008 0
DWIDTH 14 0
BBX 13 10 0 0
BITMAP
0FF8
0900
1900
1100
31F8
2100
3F00
6100
4100
C1F8
ENDCHAR
STARTCHAR 00C7
ENCODING 199
SWIDTH 720 0
DWIDTH 10 0
BBX 8 13 1 -3
BITMAP
7E
43
81
80
80
80
81
81
43
7E
10
0C
38
ENDCHAR
STARTCHAR 00C8
ENCODING 200
SWIDTH 648 0
DWIDTH 9 0
BBX 7 13 1 0
BITMAP
30
10
08
FE
80
80
80
FE
80
80
80
80
FE
ENDCHAR
STARTCHAR 00C9
ENCODING 201
SWIDTH 648 0
DWIDTH 9 0
BBX 7 13 1 0
BITMAP
08
10
00
FE
80
80
80
FE
80
80
80
80
FE
ENDCHAR
STARTCHAR 00CA
ENCODING 202
SWIDTH 648 0
DWIDTH 9 0
BBX 7 13 1 0
BITMAP
10
28
00
FE
80
80
80
FE
80
80
80
80
FE
ENDCHAR
STARTCHAR 00CB
ENCODING 203
SWIDTH 648 0
DWIDTH 9 0
BBX 7 12 1 0
BITMAP
2C
00
FE
80
80
80
FE
80
80
80
80
FE
ENDCHAR
STARTCHAR 00CC
ENCODING 204
SWIDTH 288 0
DWIDTH 4 0
BBX 3 13 0 0
BITMAP
C0
60
00
60
60
60
60
60
60
60
60
60
60
ENDCHAR
STARTCHAR 00CD
ENCODING 205
SWIDTH 288 0
DWIDTH 4 0
BBX 3 13 1 0
BITMAP
60
80
00
C0
C0
C0
C0
C0
C0
C0
C0
C0
C0
ENDCHAR
STARTCHAR 00CE
ENCODING 206
SWIDTH 288 0
DWIDTH 4 0
BBX 3 13 1 0
BITMAP
C0
E0
00
C0
C0
C0
C0
C0
C0
C0
C0
C0
C0
ENDCHAR
STARTCHAR 00CF
ENCODING 207
SWIDTH 288 0
DWIDTH 4 0
BBX 4 12 0 0
BITMAP
D0
00
60
60
60
60
60
60
60
60
60
60
ENDCHAR
STARTCHAR 00D0
ENCODING 208
SWIDTH 720 0
DWIDTH 10 0
BBX 9 10 0 0
BITMAP
7F00
6100
6080
6080
F880
6080
6080
6180
6100
7E00
ENDCHAR
STARTCHAR 00D1
ENCODING 209
SWIDTH 720 0
DWIDTH 10 0
BBX 8 12 1 0
BITMAP
3C
00
C1
E1
A1
B1
99
89
8D
85
83
83
ENDCHAR
STARTCHAR 00D2
ENCODING 210
SWIDTH 792 0
DWIDTH 11 0
BBX 9 13 1 0
BITMAP
1000
0800
0000
3E00
4100
8080
8080
8080
8080
8080
8180
4100
3E00
ENDCHAR
STARTCHAR 00D3
ENCODING 211
SWIDTH 792 0
DWIDTH 11 0
BBX 9 13 1 0
BITMAP
0600
0800
0000
3E00
4100
8080
8080
8080
8080
8080
8180
4100
3E00
ENDCHAR
STARTCHAR 00D4
ENCODING 212
SWIDTH 792 0
DWIDTH 11 0
BBX 9 13 1 0
BITMAP
0800
1400
0000
3E00
4100
8080
8080
8080
8080
8080
8180
4100
3E00
ENDCHAR
STARTCHAR 00D5
ENCODING 213
SWIDTH 792 0
DWIDTH 11 0
BBX 9 12 1 0
BITMAP
3C00
0000
3E00
4100
8080
8080
8080
8080
8080
8180
4100
3E00
ENDCHAR
STARTCHAR 00D6
ENCODING 214
SWIDTH 792 0
DWIDTH 11 0
BBX 9 12 1 0
BITMAP
3400
0000
3E00
4100
8080
8080
8080
8080
8080
8180
4100
3E00
ENDCHAR
STARTCHAR 00D7
ENCODING 215
SWIDTH 576 0
DWIDTH 8 0
BBX 5 5 2 0
BITMAP
88
D0
60
70
98
ENDCHAR
STARTCHAR 00D8
ENCODING 216
SWIDTH 792 0
DWIDTH 11 0
BBX 9 10 1 1
BITMAP
3E80
4100
8280
8480
8880
9080
A080
A180
4100
BE00
ENDCHAR
STARTCHAR 00D9
ENCODING 217
SWIDTH 720 0
DWIDTH 10 0
BBX 8 13 1 0
BITMAP
30
08
00
81
81
81
81
81
81
81
81
C3
7E
ENDCHAR
STARTCHAR 00DA
ENCODING 218
SWIDTH 720 0
DWIDTH 10 0
BBX 8 13 1 0
BITMAP
0C
18
00
81
81
81
81
81
81
81
81
C3
7E
ENDCHAR
STARTCHAR 00DB
ENCODING 219
SWIDTH 720 0
DWIDTH 10 0
BBX 8 13 1 0
BITMAP
18
1C
00
81
81
81
81
81
81
81
81
C3
7E
ENDCHAR
STARTCHAR 00DC
ENCODING 220
SWIDTH 720 0
DWIDTH 10 0
BBX 8 12 1 0
BITMAP
34
00
81
81
81
81
81
81
81
81
C3
7E
ENDCHAR
STARTCHAR 00DD
ENCODING 221
SWIDTH 648 0
DWIDTH 9 0
BBX 8 13 1 0
BITMAP
0C
10
00
83
C2
46
24
38
18
10
10
10
10
ENDCHAR
STARTCHAR 00DE
ENCODING 222
SWIDTH 648 0
DWIDTH 9 0
BBX 7 10 1 0
BITMAP
80
F8
FE
82
82
82
FE
80
80
80
ENDCHAR
STARTCHAR 00DF
ENCODING 223
SWIDTH 576 0
DWIDTH 8 0
BBX 7 10 1 0
BITMAP
78
C4
84
84
98
84
86
86
84
BC
ENDCHAR
STARTCHAR 00E0
ENCODING 224
SWIDTH 576 0
DWIDTH 8 0
BBX 7 10 0 0
BITMAP
30
08
10
7C
44
04
7C
C4
C4
7E
ENDCHAR
STARTCHAR 00E1
ENCODING 225
SWIDTH 576 0
DWIDTH 8 0
BBX 7 10 0 0
BITMAP
18
10
10
7C
44
04
7C
C4
C4
7E
ENDCHAR
STARTCHAR 00E2
ENCODING 226
SWIDTH 576 0
DWIDTH 8 0
BBX 7 10 0 0
BITMAP
18
24
10
7C
44
04
7C
C4
C4
7E
ENDCHAR
STARTCHAR 00E3
ENCODING 227
SWIDTH 576 0
DWIDTH 8 0
BBX 7 10 0 0
BITMAP
34
08
10
7C
44
04
7C
C4
C4
7E
ENDCHAR
STARTCHAR 00E4
ENCODING 228
SWIDTH 576 0
DWIDTH 8 0
BBX 7 10 0 0
BITMAP
2C
00
10
7C
44
04
7C
C4
C4
7E
ENDCHAR
STARTCHAR 00E5
ENCODING 229
SWIDTH 576 0
DWIDTH 8 0
BBX 7 11 0 0
BITMAP
18
28
18
10
7C
44
04
7C
C4
C4
7E
ENDCHAR
STARTCHAR 00E6
ENCODING 230
SWIDTH 864 0
DWIDTH 12 0
BBX 12 8 0 0
BITMAP
1080
7FE0
4630
0410
7FF0
4400
C620
7BE0
ENDCHAR
STARTCHAR 00E7
ENCODING 231
SWIDTH 504 0
DWIDTH 7 0
BBX 7 11 0 -3
BITMAP
10
7C
44
C0
C0
46
44
3C
10
08
38
ENDCHAR
STARTCHAR 00E8
ENCODING 232
SWIDTH 504 0
DWIDTH 7 0
BBX 7 10 0 0
BITMAP
30
08
10
7C
46
C2
FE
40
46
3C
ENDCHAR
STARTCHAR 00E9
ENCODING 233
SWIDTH 504 0
DWIDTH 7 0
BBX 7 10 0 0
BITMAP
08
10
10
7C
46
C2
FE
40
46
3C
ENDCHAR
STARTCHAR 00EA
ENCODING 234
SWIDTH 504 0
DWIDTH 7 0
BBX 7 10 0 0
BITMAP
18
24
10
7C
46
C2
FE
40
46
3C
ENDCHAR
STARTCHAR 00EB
ENCODING 235
SWIDTH 504 0
DWIDTH 7 0
BBX 7 10 0 0
BITMAP
2C
00
10
7C
46
C2
FE
40
46
3C
ENDCHAR
STARTCHAR 00EC
ENCODING 236
SWIDTH 216 0
DWIDTH 3 0
BBX 3 10 0 0
BITMAP
C0
20
00
40
40
40
40
40
40
40
ENDCHAR
STARTCHAR 00ED
ENCODING 237
SWIDTH 216 0
DWIDTH 3 0
BBX 3 10 0 0
BITMAP
60
80
00
40
40
40
40
40
40
40
ENDCHAR
STARTCHAR 00EE
ENCODING 238
SWIDTH 288 0
DWIDTH 4 0
BBX 4 10 0 0
BITMAP
60
90
00
40
40
40
40
40
40
40
ENDCHAR
STARTCHAR 00EF
ENCODING 239
SWIDTH 288 0
DWIDTH 4 0
BBX 4 10 0 0
BITMAP
B0
00
00
40
40
40
40
40
40
40
ENDCHAR
STARTCHAR 00F0
ENCODING 240
SWIDTH 504 0
DWIDTH 7 0
BBX 7 10 0 0
BITMAP
38
78
1C
7C
46
C2
C2
42
46
7C
ENDCHAR
STARTCHAR 00F1
ENCODING 241
SWIDTH 576 0
DWIDTH 8 0
BBX 6 10 1 0
BITMAP
68
50
10
F8
8C
84
84
84
84
84
ENDCHAR
STARTCHAR 00F2
ENCODING 242
SWIDTH 504 0
DWIDTH 7 0
BBX 7 10 0 0
BITMAP
30
08
10
7C
46
C2
C2
42
46
7C
ENDCHAR
STARTCHAR 00F3
ENCODING 243
SWIDTH 504 0
DWIDTH 7 0
BBX 7 10 0 0
BITMAP
18
10
10
7C
46
C2
C2
42
46
7C
ENDCHAR
STARTCHAR 00F4
ENCODING 244
SWIDTH 504 0
DWIDTH 7 0
BBX 7 10 0 0
BITMAP
18
20
10
7C
46
C2
C2
42
46
7C
ENDCHAR
STARTCHAR 00F5
ENCODING 245
SWIDTH 504 0
DWIDTH 7 0
BBX 7 10 0 0
BITMAP
34
08
10
7C
46
C2
C2
42
46
7C
ENDCHAR
STARTCHAR 00F6
ENCODING 246
SWIDTH 504 0
DWIDTH 7 0
BBX 7 10 0 0
BITMAP
2C
00
10
7C
46
C2
C2
42
46
7C
ENDCHAR
STARTCHAR 00F7
ENCODING 247
SWIDTH 576 0
DWIDTH 8 0
BBX 6 7 1 0
BITMAP
30
30
00
FC
00
00
30
ENDCHAR
STARTCHAR 00F8
ENCODING 248
SWIDTH 504 0
DWIDTH 7 0
BBX 7 8 0 0
BITMAP
10
7E
46
CA
D2
E2
46
7C
ENDCHAR
STARTCHAR 00F9
ENCODING 249
SWIDTH 576 0
DWIDTH 8 0
BBX 6 10 1 0
BITMAP
60
00
00
84
84
84
84
8C
8C
F4
ENDCHAR
STARTCHAR 00FA
ENCODING 250
SWIDTH 576 0
DWIDTH 8 0
BBX 6 10 1 0
BITMAP
10
20
00
84
84
84
84
8C
8C
F4
ENDCHAR
STARTCHAR 00FB
ENCODING 251
SWIDTH 576 0
DWIDTH 8 0
BBX 6 10 1 0
BITMAP
30
48
00
84
84
84
84
8C
8C
F4
ENDCHAR
STARTCHAR 00FC
ENCODING 252
SWIDTH 576 0
DWIDTH 8 0
BBX 6 10 1 0
BITMAP
58
00
00
84
84
84
84
8C
8C
F4
ENDCHAR
STARTCHAR 00FD
ENCODING 253
SWIDTH 504 0
DWIDTH 7 0
BBX 6 13 0 -3
BITMAP
18
10
00
C4
44
4C
68
28
30
30
30
20
60
ENDCHAR
STARTCHAR 00FE
ENCODING 254
SWIDTH 576 0
DWIDTH 8 0
BBX 6 13 1 -3
BITMAP
80
80
90
FC
84
84
84
84
C4
F8
80
80
80
ENDCHAR
STARTCHAR 00FF
ENCODING 255
SWIDTH 504 0
DWIDTH 7 0
BBX 6 13 0 -3
BITMAP
2C
00
00
C4
44
4C
68
28
30
30
30
20
60
ENDCHAR
STARTCHAR 0100
ENCODING 256
SWIDTH 648 0
DWIDTH 9 0
BBX 9 12 0 0
BITMAP
1E00
0000
0C00
1C00
1400
1600
2200
2300
7F00
4100
4180
C180
ENDCHAR
STARTCHAR 0101
ENCODING 257
SWIDTH 576 0
DWIDTH 8 0
BBX 7 10 0 0
BITMAP
3C
00
10
7C
44
04
7C
C4
C4
7E
ENDCHAR
STARTCHAR 0102
ENCODING 258
SWIDTH 648 0
DWIDTH 9 0
BBX 9 13 0 0
BITMAP
0200
1C00
0000
0C00
1C00
1400
1600
2200
2300
7F00
4100
4180
C180
ENDCHAR
STARTCHAR 0103
ENCODING 259
SWIDTH 576 0
DWIDTH 8 0
BBX 7 10 0 0
BITMAP
24
18
10
7C
44
04
7C
C4
C4
7E
ENDCHAR
STARTCHAR 0104
ENCODING 260
SWIDTH 648 0
DWIDTH 9 0
BBX 10 13 0 -3
BITMAP
0C00
1C00
1600
1600
3200
2300
7F00
6100
4180
C080
0100
0100
01C0
ENDCHAR
STARTCHAR 0105
ENCODING 261
SWIDTH 576 0
DWIDTH 8 0
BBX 8 11 0 -3
BITMAP
10
7C
44
04
7C
44
C4
7E
02
04
03
ENDCHAR
STARTCHAR 0106
ENCODING 262
SWIDTH 720 0
DWIDTH 10 0
BBX 8 13 1 0
BITMAP
0C
08
00
7E
43
81
80
80
80
81
81
43
7E
ENDCHAR
STARTCHAR 0107
ENCODING 263
SWIDTH 504 0
DWIDTH 7 0
BBX 7 10 0 0
BITMAP
18
10
10
7C
44
C0
C0
46
44
7C
ENDCHAR
STARTCHAR 0108
ENCODING 264
SWIDTH 720 0
DWIDTH 10 0
BBX 8 13 1 0
BITMAP
18
1C
00
7E
43
81
80
80
80
81
81
43
7E
ENDCHAR
STARTCHAR 0109
ENCODING 265
SWIDTH 504 0
DWIDTH 7 0
BBX 7 10 0 0
BITMAP
18
28
10
7C
44
C0
C0
46
44
7C
ENDCHAR
STARTCHAR 010A
ENCODING 266
SWIDTH 720 0
DWIDTH 10 0
BBX 8 13 1 0
BITMAP
08
08
00
7E
43
81
80
80
80
81
81
43
7E
ENDCHAR
STARTCHAR 010B
ENCODING 267
SWIDTH 504 0
DWIDTH 7 0
BBX 7 10 0 0
BITMAP
10
00
10
7C
44
C0
C0
46
44
7C
ENDCHAR
STARTCHAR 010C
ENCODING 268
SWIDTH 720 0
DWIDTH 10 0
BBX 8 12 1 0
BITMAP
14
08
7E
43
81
80
80
80
81
81
43
7E
ENDCHAR
STARTCHAR 010D
ENCODING 269
SWIDTH 504 0
DWIDTH 7 0
BBX 7 10 0 0
BITMAP
28
18
10
7C
44
C0
C0
46
44
7C
ENDCHAR
STARTCHAR 010E
ENCODING 270
SWIDTH 720 0
DWIDTH 10 0
BBX 8 12 1 0
BITMAP
28
10
FC
82
83
81
81
81
81
83
86
FC
ENDCHAR
STARTCHAR 010F
ENCODING 271
SWIDTH 648 0
DWIDTH 9 0
BBX 9 10 0 0
BITMAP
0280
0280
1200
7E00
4600
C200
C200
4200
4600
7E00
ENDCHAR
STARTCHAR 0110
ENCODING 272
SWIDTH 720 0
DWIDTH 10 0
BBX 9 10 0 0
BITMAP
7F00
6100
6080
6080
F880
6080
6080
6180
6100
7E00
ENDCHAR
STARTCHAR 0111
ENCODING 273
SWIDTH 576 0
DWIDTH 8 0
BBX 8 10 0 0
BITMAP
02
0F
12
7E
46
C2
C2
42
46
3E
ENDCHAR
STARTCHAR 0112
ENCODING 274
SWIDTH 648 0
DWIDTH 9 0
BBX 7 12 1 0
BITMAP
3C
00
FE
80
80
80
FE
80
80
80
80
FE
ENDCHAR
STARTCHAR 0113
ENCODING 275
SWIDTH 504 0
DWIDTH 7 0
BBX 7 10 0 0
BITMAP
3C
00
10
7C
46
C2
FE
40
46
3C
ENDCHAR
STARTCHAR 0114
ENCODING 276
SWIDTH 648 0
DWIDTH 9 0
BBX 7 13 1 0
BITMAP
24
3C
00
FE
80
80
80
FE
80
80
80
80
FE
ENDCHAR
STARTCHAR 0115
ENCODING 277
SWIDTH 504 0
DWIDTH 7 0
BBX 7 10 0 0
BITMAP
24
18
10
7C
46
C2
FE
40
46
3C
ENDCHAR
STARTCHAR 0116
ENCODING 278
SWIDTH 648 0
DWIDTH 9 0
BBX 7 13 1 0
BITMAP
18
18
00
FE
80
80
80
FE
80
80
80
80
FE
ENDCHAR
STARTCHAR 0117
ENCODING 279
SWIDTH 504 0
DWIDTH 7 0
BBX 7 10 0 0
BITMAP
18
00
10
7C
46
C2
FE
40
46
3C
ENDCHAR
STARTCHAR 0118
ENCODING 280
SWIDTH 648 0
DWIDTH 9 0
BBX 8 13 1 -3
BITMAP
FE
80
80
80
FE
80
80
80
80
FE
02
04
03
ENDCHAR
STARTCHAR 0119
ENCODING 281
SWIDTH 504 0
DWIDTH 7 0
BBX 7 11 0 -3
BITMAP
10
7C
46
C2
FE
40
46
3C
08
08
0E
ENDCHAR
STARTCHAR 011A
ENCODING 282
SWIDTH 648 0
DWIDTH 9 0
BBX 7 12 1 0
BITMAP
38
18
FE
80
80
80
FE
80
80
80
80
FE
ENDCHAR
STARTCHAR 011B
ENCODING 283
SWIDTH 504 0
DWIDTH 7 0
BBX 7 10 0 0
BITMAP
24
18
10
7C
46
C2
FE
40
46
3C
ENDCHAR
STARTCHAR 011C
ENCODING 284
SWIDTH 792 0
DWIDTH 11 0
BBX 9 13 1 0
BITMAP
0800
1400
0000
3E00
4100
8180
8000
8000
8780
8080
8180
4180
3E80
ENDCHAR
STARTCHAR 011D
ENCODING 285
SWIDTH 576 0
DWIDTH 8 0
BBX 7 13 0 -3
BITMAP
18
24
10
7E
46
C2
C2
42
46
7A
02
44
3C
ENDCHAR
STARTCHAR 011E
ENCODING 286
SWIDTH 792 0
DWIDTH 11 0
BBX 9 13 1 0
BITMAP
2200
1C00
0000
3E00
4100
8180
8000
8000
8780
8080
8180
4180
3E80
ENDCHAR
STARTCHAR 011F
ENCODING 287
SWIDTH 576 0
DWIDTH 8 0
BBX 7 13 0 -3
BITMAP
24
18
10
7E
46
C2
C2
42
46
7A
02
44
3C
ENDCHAR
STARTCHAR 0120
ENCODING 288
SWIDTH 792 0
DWIDTH 11 0
BBX 9 13 1 0
BITMAP
0800
0800
0000
3E00
4100
8180
8000
8000
8780
8080
8180
4180
3E80
ENDCHAR
STARTCHAR 0121
ENCODING 289
SWIDTH 576 0
DWIDTH 8 0
BBX 7 13 0 -3
BITMAP
10
00
10
7E
46
C2
C2
42
46
7A
02
44
3C
ENDCHAR
STARTCHAR 0122
ENCODING 290
SWIDTH 792 0
DWIDTH 11 0
BBX 9 14 1 -4
BITMAP
3E00
4100
8180
8000
8000
8780
8080
8180
4180
3E80
0000
0800
0800
0800
ENDCHAR
STARTCHAR 0123
ENCODING 291
SWIDTH 576 0
DWIDTH 8 0
BBX 7 13 0 -3
BITMAP
10
10
10
7E
46
C2
C2
42
46
7A
02
44
3C
ENDCHAR
STARTCHAR 0124
ENCODING 292
SWIDTH 720 0
DWIDTH 10 0
BBX 8 13 1 0
BITMAP
18
1C
00
81
81
81
81
FF
81
81
81
81
81
ENDCHAR
STARTCHAR 0125
ENCODING 293
SWIDTH 576 0
DWIDTH 8 0
BBX 6 13 1 0
BITMAP
30
30
48
80
80
90
F8
8C
8C
8C
8C
8C
8C
ENDCHAR
STARTCHAR 0126
ENCODING 294
SWIDTH 720 0
DWIDTH 10 0
BBX 10 10 0 0
BITMAP
4080
4080
FFC0
4080
7F80
4080
4080
4080
4080
4080
ENDCHAR
STARTCHAR 0127
ENCODING 295
SWIDTH 576 0
DWIDTH 8 0
BBX 7 10 0 0
BITMAP
40
F0
48
76
62
42
42
42
42
42
ENDCHAR
STARTCHAR 0128
ENCODING 296
SWIDTH 288 0
DWIDTH 4 0
BBX 4 12 0 0
BITMAP
F0
00
60
60
60
60
60
60
60
60
60
60
ENDCHAR
STARTCHAR 0129
ENCODING 297
SWIDTH 288 0
DWIDTH 4 0
BBX 4 10 0 0
BITMAP
D0
20
00
40
40
40
40
40
40
40
ENDCHAR
STARTCHAR 012A
ENCODING 298
SWIDTH 288 0
DWIDTH 4 0
BBX 4 12 0 0
BITMAP
F0
00
60
60
60
60
60
60
60
60
60
60
ENDCHAR
STARTCHAR 012B
ENCODING 299
SWIDTH 288 0
DWIDTH 4 0
BBX 4 10 0 0
BITMAP
F0
00
00
40
40
40
40
40
40
40
ENDCHAR
STARTCHAR 012C
ENCODING 300
SWIDTH 288 0
DWIDTH 4 0
BBX 4 13 0 0
BITMAP
90
F0
00
60
60
60
60
60
60
60
60
60
60
ENDCHAR
STARTCHAR 012D
ENCODING 301
SWIDTH 288 0
DWIDTH 4 0
BBX 4 10 0 0
BITMAP
90
60
00
40
40
40
40
40
40
40
ENDCHAR
STARTCHAR 012E
ENCODING 302
SWIDTH 288 0
DWIDTH 4 0
BBX 3 13 0 -3
BITMAP
60
60
60
60
60
60
60
60
60
60
40
80
60
ENDCHAR
STARTCHAR 012F
ENCODING 303
SWIDTH 288 0
DWIDTH 4 0
BBX 3 13 0 -3
BITMAP
40
00
00
40
40
40
40
40
40
40
40
80
60
ENDCHAR
STARTCHAR 0130
ENCODING 304
SWIDTH 288 0
DWIDTH 4 0
BBX 2 12 1 0
BITMAP
C0
00
C0
C0
C0
C0
C0
C0
C0
C0
C0
C0
ENDCHAR
STARTCHAR 0131
ENCODING 305
SWIDTH 216 0
DWIDTH 3 0
BBX 1 7 1 0
BITMAP
80
80
80
80
80
80
80
ENDCHAR
STARTCHAR 0132
ENCODING 306
SWIDTH 792 0
DWIDTH 11 0
BBX 8 10 1 0
BITMAP
C1
C1
C1
C1
C1
C1
C1
D1
D1
DF
ENDCHAR
STARTCHAR 0133
ENCODING 307
SWIDTH 360 0
DWIDTH 5 0
BBX 4 13 1 -3
BITMAP
B0
00
00
B0
B0
B0
B0
B0
B0
B0
30
30
60
ENDCHAR
STARTCHAR 0134
ENCODING 308
SWIDTH 504 0
DWIDTH 7 0
BBX 7 13 0 0
BITMAP
04
0A
00
04
04
04
04
04
04
04
C4
44
78
ENDCHAR
STARTCHAR 0135
ENCODING 309
SWIDTH 288 0
DWIDTH 4 0
BBX 3 13 0 -3
BITMAP
60
A0
00
40
40
40
40
40
40
40
40
40
C0
ENDCHAR
STARTCHAR 0136
ENCODING 310
SWIDTH 648 0
DWIDTH 9 0
BBX 8 14 1 -4
BITMAP
83
84
88
90
B0
C8
8C
84
82
83
00
18
08
10
ENDCHAR
STARTCHAR 0137
ENCODING 311
SWIDTH 504 0
DWIDTH 7 0
BBX 6 14 1 -4
BITMAP
80
80
80
98
B0
E0
F0
90
88
8C
00
30
10
20
ENDCHAR
STARTCHAR 0138
ENCODING 312
SWIDTH 504 0
DWIDTH 7 0
BBX 5 7 1 0
BITMAP
98
B0
E0
C0
A0
90
88
ENDCHAR
STARTCHAR 0139
ENCODING 313
SWIDTH 576 0
DWIDTH 8 0
BBX 6 13 1 0
BITMAP
30
40
00
80
80
80
80
80
80
80
80
80
FC
ENDCHAR
STARTCHAR 013A
ENCODING 314
SWIDTH 216 0
DWIDTH 3 0
BBX 2 13 1 0
BITMAP
40
80
00
80
80
80
80
80
80
80
80
80
80
ENDCHAR
STARTCHAR 013B
ENCODING 315
SWIDTH 576 0
DWIDTH 8 0
BBX 6 14 1 -4
BITMAP
80
80
80
80
80
80
80
80
80
FC
00
10
10
10
ENDCHAR
STARTCHAR 013C
ENCODING 316
SWIDTH 216 0
DWIDTH 3 0
BBX 1 14 1 -4
BITMAP
80
80
80
80
80
80
80
80
80
80
00
80
80
80
ENDCHAR
STARTCHAR 013D
ENCODING 317
SWIDTH 576 0
DWIDTH 8 0
BBX 6 10 1 0
BITMAP
90
90
80
80
80
80
80
80
80
FC
ENDCHAR
STARTCHAR 013E
ENCODING 318
SWIDTH 360 0
DWIDTH 5 0
BBX 3 10 1 0
BITMAP
A0
A0
80
80
80
80
80
80
80
80
ENDCHAR
STARTCHAR 013F
ENCODING 319
SWIDTH 576 0
DWIDTH 8 0
BBX 6 10 1 0
BITMAP
80
80
80
80
80
84
84
80
80
FC
ENDCHAR
STARTCHAR 0140
ENCODING 320
SWIDTH 360 0
DWIDTH 5 0
BBX 4 10 1 0
BITMAP
80
80
80
80
80
B0
B0
80
80
80
ENDCHAR
STARTCHAR 0141
ENCODING 321
SWIDTH 648 0
DWIDTH 9 0
BBX 8 10 0 0
BITMAP
20
20
20
28
30
60
A0
20
20
3F
ENDCHAR
STARTCHAR 0142
ENCODING 322
SWIDTH 288 0
DWIDTH 4 0
BBX 3 10 0 0
BITMAP
40
40
40
40
60
C0
40
40
40
40
ENDCHAR
STARTCHAR 0143
ENCODING 323
SWIDTH 720 0
DWIDTH 10 0
BBX 8 13 1 0
BITMAP
0C
08
00
C1
E1
A1
B1
99
89
8D
85
83
83
ENDCHAR
STARTCHAR 0144
ENCODING 324
SWIDTH 576 0
DWIDTH 8 0
BBX 6 10 1 0
BITMAP
10
20
10
F8
8C
84
84
84
84
84
ENDCHAR
STARTCHAR 0145
ENCODING 325
SWIDTH 720 0
DWIDTH 10 0
BBX 8 14 1 -4
BITMAP
C1
E1
A1
B1
99
89
8D
85
83
83
00
18
08
10
ENDCHAR
STARTCHAR 0146
ENCODING 326
SWIDTH 576 0
DWIDTH 8 0
BBX 6 12 1 -4
BITMAP
10
F8
8C
84
84
84
84
84
00
30
10
20
ENDCHAR
STARTCHAR 0147
ENCODING 327
SWIDTH 720 0
DWIDTH 10 0
BBX 8 12 1 0
BITMAP
1C
18
C1
E1
A1
B1
99
89
8D
85
83
83
ENDCHAR
STARTCHAR 0148
ENCODING 328
SWIDTH 576 0
DWIDTH 8 0
BBX 6 10 1 0
BITMAP
50
30
10
F8
8C
84
84
84
84
84
ENDCHAR
STARTCHAR 0149
ENCODING 329
SWIDTH 648 0
DWIDTH 9 0
BBX 7 10 1 0
BITMAP
80
80
88
56
62
62
62
62
62
62
ENDCHAR
STARTCHAR 014A
ENCODING 330
SWIDTH 648 0
DWIDTH 9 0
BBX 8 10 1 0
BITMAP
BC
C2
83
81
81
81
83
82
86
9C
ENDCHAR
STARTCHAR 014B
ENCODING 331
SWIDTH 576 0
DWIDTH 8 0
BBX 6 11 1 -3
BITMAP
10
F8
8C
84
84
84
84
84
04
0C
18
ENDCHAR
STARTCHAR 014C
ENCODING 332
SWIDTH 792 0
DWIDTH 11 0
BBX 9 12 1 0
BITMAP
1C00
0000
3E00
4100
8080
8080
8080
8080
8080
8180
4100
3E00
ENDCHAR
STARTCHAR 014D
ENCODING 333
SWIDTH 504 0
DWIDTH 7 0
BBX 7 10 0 0
BITMAP
3C
00
10
7C
46
C2
C2
42
46
7C
ENDCHAR
STARTCHAR 014E
ENCODING 334
SWIDTH 792 0
DWIDTH 11 0
BBX 9 13 1 0
BITMAP
2200
1C00
0000
3E00
4100
8080
8080
8080
8080
8080
8180
4100
3E00
ENDCHAR
STARTCHAR 014F
ENCODING 335
SWIDTH 504 0
DWIDTH 7 0
BBX 7 10 0 0
BITMAP
24
18
10
7C
46
C2
C2
42
46
7C
ENDCHAR
STARTCHAR 0150
ENCODING 336
SWIDTH 792 0
DWIDTH 11 0
BBX 9 13 1 0
BITMAP
1A00
1400
0000
3E00
4100
8080
8080
8080
8080
8080
8180
4100
3E00
ENDCHAR
STARTCHAR 0151
ENCODING 337
SWIDTH 504 0
DWIDTH 7 0
BBX 7 10 0 0
BITMAP
14
28
10
7C
46
C2
C2
42
46
7C
ENDCHAR
STARTCHAR 0152
ENCODING 338
SWIDTH 1008 0
DWIDTH 14 0
BBX 12 10 1 0
BITMAP
7FF0
C300
8300
8300
83F0
8300
8300
8300
C300
7FF0
ENDCHAR
STARTCHAR 0153
ENCODING 339
SWIDTH 936 0
DWIDTH 13 0
BBX 12 8 0 0
BITMAP
1040
7DF0
4610
C210
C3F0
4200
4710
7DE0
ENDCHAR
STARTCHAR 0154
ENCODING 340
SWIDTH 720 0
DWIDTH 10 0
BBX 8 13 1 0
BITMAP
0C
18
00
FE
83
81
83
FE
FE
83
83
83
81
ENDCHAR
STARTCHAR 0155
ENCODING 341
SWIDTH 360 0
DWIDTH 5 0
BBX 3 10 1 0
BITMAP
60
40
00
E0
80
80
80
80
80
80
ENDCHAR
STARTCHAR 0156
ENCODING 342
SWIDTH 720 0
DWIDTH 10 0
BBX 8 14 1 -4
BITMAP
FE
83
81
83
FE
FE
83
83
83
81
00
18
08
08
ENDCHAR
STARTCHAR 0157
ENCODING 343
SWIDTH 360 0
DWIDTH 5 0
BBX 3 11 1 -3
BITMAP
E0
80
80
80
80
80
80
00
80
80
80
ENDCHAR
STARTCHAR 0158
ENCODING 344
SWIDTH 720 0
DWIDTH 10 0
BBX 8 12 1 0
BITMAP
3C
18
FE
83
81
83
FE
FE
83
83
83
81
ENDCHAR
STARTCHAR 0159
ENCODING 345
SWIDTH 360 0
DWIDTH 5 0
BBX 3 10 1 0
BITMAP
A0
40
00
E0
80
80
80
80
80
80
ENDCHAR
STARTCHAR 015A
ENCODING 346
SWIDTH 648 0
DWIDTH 9 0
BBX 8 13 1 0
BITMAP
0C
10
00
7C
C2
82
C0
78
0E
03
83
C2
7E
ENDCHAR
STARTCHAR 015B
ENCODING 347
SWIDTH 504 0
DWIDTH 7 0
BBX 5 10 1 0
BITMAP
30
20
20
F8
88
C0
78
08
88
F8
ENDCHAR
STARTCHAR 015C
ENCODING 348
SWIDTH 648 0
DWIDTH 9 0
BBX 8 13 1 0
BITMAP
10
28
00
7C
C2
82
C0
78
0E
03
83
C2
7E
ENDCHAR
STARTCHAR 015D
ENCODING 349
SWIDTH 504 0
DWIDTH 7 0
BBX 5 10 1 0
BITMAP
70
50
20
F8
88
C0
78
08
88
F8
ENDCHAR
STARTCHAR 015E
ENCODING 350
SWIDTH 648 0
DWIDTH 9 0
BBX 8 13 1 -3
BITMAP
7C
C2
82
C0
78
0E
03
83
C2
7E
10
08
38
ENDCHAR
STARTCHAR 015F
ENCODING 351
SWIDTH 504 0
DWIDTH 7 0
BBX 5 11 1 -3
BITMAP
20
F8
88
C0
78
08
88
F8
40
30
E0
ENDCHAR
STARTCHAR 0160
ENCODING 352
SWIDTH 648 0
DWIDTH 9 0
BBX 8 12 1 0
BITMAP
28
10
7C
C2
82
C0
78
0E
03
83
C2
7E
ENDCHAR
STARTCHAR 0161
ENCODING 353
SWIDTH 504 0
DWIDTH 7 0
BBX 5 10 1 0
BITMAP
50
20
20
F8
88
C0
78
08
88
F8
ENDCHAR
STARTCHAR 0162
ENCODING 354
SWIDTH 648 0
DWIDTH 9 0
BBX 8 13 0 -3
BITMAP
FF
08
08
08
08
08
08
08
08
08
08
04
3C
ENDCHAR
STARTCHAR 0163
ENCODING 355
SWIDTH 288 0
DWIDTH 4 0
BBX 4 12 0 -3
BITMAP
40
40
F0
40
40
40
40
40
70
20
10
70
ENDCHAR
STARTCHAR 0164
ENCODING 356
SWIDTH 648 0
DWIDTH 9 0
BBX 8 12 0 0
BITMAP
14
08
FF
08
08
08
08
08
08
08
08
08
ENDCHAR
STARTCHAR 0165
ENCODING 357
SWIDTH 432 0
DWIDTH 6 0
BBX 5 10 0 0
BITMAP
08
48
40
F0
40
40
40
40
40
70
ENDCHAR
STARTCHAR 0166
ENCODING 358
SWIDTH 648 0
DWIDTH 9 0
BBX 8 10 0 0
BITMAP
FF
08
08
08
3E
08
08
08
08
08
ENDCHAR
STARTCHAR 0167
ENCODING 359
SWIDTH 288 0
DWIDTH 4 0
BBX 4 9 0 0
BITMAP
60
60
F0
60
60
F0
60
60
70
ENDCHAR
STARTCHAR 0168
ENCODING 360
SWIDTH 720 0
DWIDTH 10 0
BBX 8 12 1 0
BITMAP
3C
00
81
81
81
81
81
81
81
81
C3
7E
ENDCHAR
STARTCHAR 0169
ENCODING 361
SWIDTH 576 0
DWIDTH 8 0
BBX 6 10 1 0
BITMAP
68
10
00
84
84
84
84
8C
8C
F4
ENDCHAR
STARTCHAR 016A
ENCODING 362
SWIDTH 720 0
DWIDTH 10 0
BBX 8 12 1 0
BITMAP
3C
00
81
81
81
81
81
81
81
81
C3
7E
ENDCHAR
STARTCHAR 016B
ENCODING 363
SWIDTH 576 0
DWIDTH 8 0
BBX 6 10 1 0
BITMAP
78
00
00
84
84
84
84
8C
8C
F4
ENDCHAR
STARTCHAR 016C
ENCODING 364
SWIDTH 720 0
DWIDTH 10 0
BBX 8 13 1 0
BITMAP
24
3C
00
81
81
81
81
81
81
81
81
C3
7E
ENDCHAR
STARTCHAR 016D
ENCODING 365
SWIDTH 576 0
DWIDTH 8 0
BBX 6 10 1 0
BITMAP
48
30
00
84
84
84
84
8C
8C
F4
ENDCHAR
STARTCHAR 016E
ENCODING 366
SWIDTH 720 0
DWIDTH 10 0
BBX 8 13 1 1
BITMAP
1C
18
00
81
81
81
81
81
81
81
81
C3
7E
ENDCHAR
STARTCHAR 016F
ENCODING 367
SWIDTH 576 0
DWIDTH 8 0
BBX 6 11 1 0
BITMAP
30
50
30
00
84
84
84
84
8C
8C
F4
ENDCHAR
STARTCHAR 0170
ENCODING 368
SWIDTH 720 0
DWIDTH 10 0
BBX 8 13 1 0
BITMAP
1E
34
00
81
81
81
81
81
81
81
81
C3
7E
ENDCHAR
STARTCHAR 0171
ENCODING 369
SWIDTH 576 0
DWIDTH 8 0
BBX 6 10 1 0
BITMAP
68
50
00
84
84
84
84
8C
8C
F4
ENDCHAR
STARTCHAR 0172
ENCODING 370
SWIDTH 720 0
DWIDTH 10 0
BBX 8 13 1 -3
BITMAP
81
81
81
81
81
81
81
81
C3
7E
04
08
06
ENDCHAR
STARTCHAR 0173
ENCODING 371
SWIDTH 576 0
DWIDTH 8 0
BBX 6 10 1 -3
BITMAP
84
84
84
84
8C
8C
F4
08
08
0C
ENDCHAR
STARTCHAR 0174
ENCODING 372
SWIDTH 936 0
DWIDTH 13 0
BBX 13 13 0 0
BITMAP
0200
0500
0000
C218
4710
4510
6510
65B0
28A0
28A0
28A0
38E0
1040
ENDCHAR
STARTCHAR 0175
ENCODING 373
SWIDTH 720 0
DWIDTH 10 0
BBX 10 10 0 0
BITMAP
0C00
1200
0000
CCC0
4C80
4C80
5280
3380
3300
3300
ENDCHAR
STARTCHAR 0176
ENCODING 374
SWIDTH 648 0
DWIDTH 9 0
BBX 8 13 1 0
BITMAP
10
28
00
83
C2
46
24
38
18
10
10
10
10
ENDCHAR
STARTCHAR 0177
ENCODING 375
SWIDTH 504 0
DWIDTH 7 0
BBX 6 13 0 -3
BITMAP
38
28
00
C4
44
4C
68
28
30
30
30
20
60
ENDCHAR
STARTCHAR 0178
ENCODING 376
SWIDTH 648 0
DWIDTH 9 0
BBX 8 12 1 0
BITMAP
2C
00
83
C2
46
24
38
18
10
10
10
10
ENDCHAR
STARTCHAR 0179
ENCODING 377
SWIDTH 648 0
DWIDTH 9 0
BBX 8 13 0 0
BITMAP
06
08
00
7F
03
06
04
08
18
30
60
40
FF
ENDCHAR
STARTCHAR 017A
ENCODING 378
SWIDTH 504 0
DWIDTH 7 0
BBX 6 10 0 0
BITMAP
18
10
00
7C
0C
18
30
20
40
FC
ENDCHAR
STARTCHAR 017B
ENCODING 379
SWIDTH 648 0
DWIDTH 9 0
BBX 8 12 0 0
BITMAP
08
00
7F
03
06
04
08
18
30
60
40
FF
ENDCHAR
STARTCHAR 017C
ENCODING 380
SWIDTH 504 0
DWIDTH 7 0
BBX 6 10 0 0
BITMAP
10
00
00
7C
0C
18
30
20
40
FC
ENDCHAR
STARTCHAR 017D
ENCODING 381
SWIDTH 648 0
DWIDTH 9 0
BBX 8 12 0 0
BITMAP
14
08
7F
03
06
04
08
18
30
60
40
FF
ENDCHAR
STARTCHAR 017E
ENCODING 382
SWIDTH 504 0
DWIDTH 7 0
BBX 6 10 0 0
BITMAP
28
10
00
7C
0C
18
30
20
40
FC
ENDCHAR
STARTCHAR 017F
ENCODING 383
SWIDTH 288 0
DWIDTH 4 0
BBX 4 10 0 0
BITMAP
70
40
40
C0
40
40
40
40
40
40
ENDCHAR
STARTCHAR 0180
ENCODING 384
SWIDTH 576 0
DWIDTH 8 0
BBX 8 10 0 0
BITMAP
40
F0
48
7E
62
43
43
43
62
5E
ENDCHAR
STARTCHAR 0181
ENCODING 385
SWIDTH 864 0
DWIDTH 12 0
BBX 10 10 1 0
BITMAP
FF80
90C0
90C0
D0C0
1F80
10C0
1040
1040
10C0
1F80
ENDCHAR
STARTCHAR 0182
ENCODING 386
SWIDTH 648 0
DWIDTH 9 0
BBX 8 10 1 0
BITMAP
FE
80
80
80
FE
82
83
83
82
FE
ENDCHAR
STARTCHAR 0183
ENCODING 387
SWIDTH 576 0
DWIDTH 8 0
BBX 6 10 1 0
BITMAP
F8
80
90
FC
84
84
84
84
C4
F8
ENDCHAR
STARTCHAR 0184
ENCODING 388
SWIDTH 720 0
DWIDTH 10 0
BBX 9 10 0 0
BITMAP
6000
E000
6000
2000
3F00
2080
2080
2080
2180
3F00
ENDCHAR
STARTCHAR 0185
ENCODING 389
SWIDTH 576 0
DWIDTH 8 0
BBX 8 10 0 0
BITMAP
40
C0
48
5E
63
61
41
61
62
5E
ENDCHAR
STARTCHAR 0186
ENCODING 390
SWIDTH 720 0
DWIDTH 10 0
BBX 8 10 1 0
BITMAP
7E
C2
81
81
01
01
01
81
C2
7C
ENDCHAR
STARTCHAR 0187
ENCODING 391
SWIDTH 792 0
DWIDTH 11 0
BBX 9 10 1 0
BITMAP
7F80
4300
8100
8000
8000
8000
8100
8100
4300
7E00
ENDCHAR
STARTCHAR 0188
ENCODING 392
SWIDTH 576 0
DWIDTH 8 0
BBX 8 8 0 0
BITMAP
13
7E
46
C0
C0
46
44
7C
ENDCHAR
STARTCHAR 0189
ENCODING 393
SWIDTH 720 0
DWIDTH 10 0
BBX 9 10 0 0
BITMAP
7F00
6100
6080
6080
F880
6080
6080
6180
6100
7E00
ENDCHAR
STARTCHAR 018A
ENCODING 394
SWIDTH 864 0
DWIDTH 12 0
BBX 11 10 1 0
BITMAP
FF80
90C0
9040
D060
1060
1060
1060
1040
10C0
1F80
ENDCHAR
STARTCHAR 018B
ENCODING 395
SWIDTH 648 0
DWIDTH 9 0
BBX 7 10 1 0
BITMAP
FE
02
02
02
7E
82
82
82
82
7E
ENDCHAR
STARTCHAR 018C
ENCODING 396
SWIDTH 576 0
DWIDTH 8 0
BBX 7 10 0 0
BITMAP
3E
02
12
7E
46
C2
C2
42
46
3E
ENDCHAR
STARTCHAR 018D
ENCODING 397
SWIDTH 576 0
DWIDTH 8 0
BBX 7 11 0 -3
BITMAP
18
7E
42
C2
C2
42
66
38
18
04
7E
ENDCHAR
STARTCHAR 018E
ENCODING 398
SWIDTH 648 0
DWIDTH 9 0
BBX 8 10 0 0
BITMAP
7F
03
03
03
7F
03
03
03
03
FF
ENDCHAR
STARTCHAR 018F
ENCODING 399
SWIDTH 720 0
DWIDTH 10 0
BBX 8 10 1 0
BITMAP
7E
C2
81
01
01
FF
81
81
C2
7C
ENDCHAR
STARTCHAR 0190
ENCODING 400
SWIDTH 648 0
DWIDTH 9 0
BBX 8 10 1 0
BITMAP
7C
C2
82
C0
78
F8
80
83
82
7C
ENDCHAR
STARTCHAR 0191
ENCODING 401
SWIDTH 648 0
DWIDTH 9 0
BBX 8 13 0 -3
BITMAP
7F
60
60
60
7E
60
60
60
60
60
60
60
C0
ENDCHAR
STARTCHAR 0192
ENCODING 402
SWIDTH 288 0
DWIDTH 4 0
BBX 4 13 0 -3
BITMAP
70
40
40
F0
40
40
40
40
40
40
40
40
C0
ENDCHAR
STARTCHAR 0193
ENCODING 403
SWIDTH 792 0
DWIDTH 11 0
BBX 10 10 1 0
BITMAP
3EC0
4180
8180
8000
8000
8780
8080
8180
4180
3E80
ENDCHAR
STARTCHAR 0194
ENCODING 404
SWIDTH 648 0
DWIDTH 9 0
BBX 8 10 1 0
BITMAP
83
C2
46
24
38
18
18
38
2C
38
ENDCHAR
STARTCHAR 0195
ENCODING 405
SWIDTH 864 0
DWIDTH 12 0
BBX 11 10 1 0
BITMAP
8000
8000
9000
F880
8C40
8C40
8C60
8C40
8C40
8780
ENDCHAR
STARTCHAR 0196
ENCODING 406
SWIDTH 288 0
DWIDTH 4 0
BBX 2 10 1 0
BITMAP
80
80
80
80
80
80
80
80
80
C0
ENDCHAR
STARTCHAR 0197
ENCODING 407
SWIDTH 360 0
DWIDTH 5 0
BBX 5 10 0 0
BITMAP
20
20
20
20
F8
20
20
20
20
20
ENDCHAR
STARTCHAR 0198
ENCODING 408
SWIDTH 648 0
DWIDTH 9 0
BBX 8 10 1 0
BITMAP
83
84
88
90
B0
C8
8C
84
82
83
ENDCHAR
STARTCHAR 0199
ENCODING 409
SWIDTH 504 0
DWIDTH 7 0
BBX 6 10 1 0
BITMAP
C0
80
80
98
B0
E0
F0
90
88
8C
ENDCHAR
STARTCHAR 019A
ENCODING 410
SWIDTH 360 0
DWIDTH 5 0
BBX 5 10 0 0
BITMAP
20
20
20
20
F8
20
20
20
20
20
ENDCHAR
STARTCHAR 019B
ENCODING 411
SWIDTH 576 0
DWIDTH 8 0
BBX 7 10 0 0
BITMAP
68
30
70
90
28
28
6C
44
44
C6
ENDCHAR
STARTCHAR 019C
ENCODING 412
SWIDTH 864 0
DWIDTH 12 0
BBX 10 10 1 0
BITMAP
8C40
8C40
8C40
8C40
8C40
8C40
8C40
8C40
CCC0
7740
ENDCHAR
STARTCHAR 019D
ENCODING 413
SWIDTH 720 0
DWIDTH 10 0
BBX 9 13 0 -3
BITMAP
6080
7080
5080
5880
4C80
4480
4680
4280
4180
4180
4000
4000
C000
ENDCHAR
STARTCHAR 019E
ENCODING 414
SWIDTH 576 0
DWIDTH 8 0
BBX 6 11 1 -3
BITMAP
10
F8
8C
84
84
84
84
84
04
04
04
ENDCHAR
STARTCHAR 019F
ENCODING 415
SWIDTH 792 0
DWIDTH 11 0
BBX 9 10 1 0
BITMAP
3E00
4100
8080
8080
8080
FF80
8080
8080
4100
3E00
ENDCHAR
STARTCHAR 01A0
ENCODING 416
SWIDTH 792 0
DWIDTH 11 0
BBX 10 11 1 0
BITMAP
0040
3F40
4180
8080
8080
8080
8080
8080
8180
4100
3E00
ENDCHAR
STARTCHAR 01A1
ENCODING 417
SWIDTH 576 0
DWIDTH 8 0
BBX 8 9 0 0
BITMAP
01
11
7F
46
C2
C2
42
46
7C
ENDCHAR
STARTCHAR 01A2
ENCODING 418
SWIDTH 1008 0
DWIDTH 14 0
BBX 12 10 1 0
BITMAP
3FF0
4110
8090
8090
8090
8090
8090
8190
4110
3E10
ENDCHAR
STARTCHAR 01A3
ENCODING 419
SWIDTH 720 0
DWIDTH 10 0
BBX 9 11 0 -3
BITMAP
1100
7E80
4680
C280
C280
4280
4680
7C80
0080
0080
0080
ENDCHAR
STARTCHAR 01A4
ENCODING 420
SWIDTH 864 0
DWIDTH 12 0
BBX 10 10 1 0
BITMAP
FF80
90C0
9040
D0C0
1180
1F00
1000
1000
1000
1000
ENDCHAR
STARTCHAR 01A5
ENCODING 421
SWIDTH 576 0
DWIDTH 8 0
BBX 6 13 1 -3
BITMAP
C0
80
90
FC
84
84
84
84
C4
F8
80
80
80
ENDCHAR
STARTCHAR 01A6
ENCODING 422
SWIDTH 648 0
DWIDTH 9 0
BBX 8 12 1 -2
BITMAP
80
F8
FE
82
82
82
FE
86
82
82
02
03
ENDCHAR
STARTCHAR 01A7
ENCODING 423
SWIDTH 648 0
DWIDTH 9 0
BBX 8 10 1 0
BITMAP
7C
C2
82
02
3E
E0
80
83
82
7C
ENDCHAR
STARTCHAR 01A8
ENCODING 424
SWIDTH 504 0
DWIDTH 7 0
BBX 5 8 1 0
BITMAP
20
F8
88
18
F0
80
88
F8
ENDCHAR
STARTCHAR 01A9
ENCODING 425
SWIDTH 648 0
DWIDTH 9 0
BBX 8 10 0 0
BITMAP
FF
40
20
30
18
18
30
60
40
FF
ENDCHAR
STARTCHAR 01AA
ENCODING 426
SWIDTH 360 0
DWIDTH 5 0
BBX 5 13 0 -3
BITMAP
E0
A0
E0
20
20
20
20
20
20
20
20
20
18
ENDCHAR
STARTCHAR 01AB
ENCODING 427
SWIDTH 288 0
DWIDTH 4 0
BBX 4 12 0 -3
BITMAP
40
40
F0
40
40
40
40
40
70
30
30
60
ENDCHAR
STARTCHAR 01AC
ENCODING 428
SWIDTH 648 0
DWIDTH 9 0
BBX 9 10 0 0
BITMAP
FF80
8800
C800
6800
0800
0800
0800
0800
0800
0800
ENDCHAR
STARTCHAR 01AD
ENCODING 429
SWIDTH 288 0
DWIDTH 4 0
BBX 4 10 0 0
BITMAP
70
40
40
F0
40
40
40
40
40
70
ENDCHAR
STARTCHAR 01AE
ENCODING 430
SWIDTH 648 0
DWIDTH 9 0
BBX 8 13 0 -3
BITMAP
FF
08
08
08
08
08
08
08
08
08
08
08
0C
ENDCHAR
STARTCHAR 01AF
ENCODING 431
SWIDTH 792 0
DWIDTH 11 0
BBX 10 12 1 0
BITMAP
0040
0040
8180
8100
8100
8100
8100
8100
8100
8100
C300
7E00
ENDCHAR
STARTCHAR 01B0
ENCODING 432
SWIDTH 648 0
DWIDTH 9 0
BBX 8 9 1 0
BITMAP
03
03
86
84
84
84
8C
8C
F4
ENDCHAR
STARTCHAR 01B1
ENCODING 433
SWIDTH 792 0
DWIDTH 11 0
BBX 9 10 1 0
BITMAP
F780
6300
C100
8180
8080
8080
8080
8180
4300
3E00
ENDCHAR
STARTCHAR 01B2
ENCODING 434
SWIDTH 720 0
DWIDTH 10 0
BBX 8 10 1 0
BITMAP
86
82
83
81
81
81
81
83
C2
7C
ENDCHAR
STARTCHAR 01B3
ENCODING 435
SWIDTH 720 0
DWIDTH 10 0
BBX 9 10 1 0
BITMAP
8380
C200
4600
2400
3800
1800
1000
1000
1000
1000
ENDCHAR
STARTCHAR 01B4
ENCODING 436
SWIDTH 648 0
DWIDTH 9 0
BBX 9 13 0 -3
BITMAP
0380
0200
0600
C400
4400
4C00
6800
2800
3000
3000
3000
2000
6000
ENDCHAR
STARTCHAR 01B5
ENCODING 437
SWIDTH 648 0
DWIDTH 9 0
BBX 8 10 0 0
BITMAP
7F
03
06
04
3E
18
30
60
40
FF
ENDCHAR
STARTCHAR 01B6
ENCODING 438
SWIDTH 504 0
DWIDTH 7 0
BBX 6 7 0 0
BITMAP
7C
0C
18
7C
20
40
FC
ENDCHAR
STARTCHAR 01B7
ENCODING 439
SWIDTH 648 0
DWIDTH 9 0
BBX 7 10 1 0
BITMAP
FE
06
0C
08
1C
06
02
82
86
7C
ENDCHAR
STARTCHAR 01B8
ENCODING 440
SWIDTH 648 0
DWIDTH 9 0
BBX 8 10 0 0
BITMAP
FF
40
20
30
38
60
40
C1
43
3E
ENDCHAR
STARTCHAR 01B9
ENCODING 441
SWIDTH 504 0
DWIDTH 7 0
BBX 7 9 0 -2
BITMAP
7E
20
10
30
40
C0
C2
46
3C
ENDCHAR
STARTCHAR 01BA
ENCODING 442
SWIDTH 504 0
DWIDTH 7 0
BBX 7 10 0 -3
BITMAP
7C
08
18
18
06
02
04
FC
44
78
ENDCHAR
STARTCHAR 01BB
ENCODING 443
SWIDTH 576 0
DWIDTH 8 0
BBX 6 10 1 0
BITMAP
78
CC
84
84
0C
78
7C
C0
80
FC
ENDCHAR
STARTCHAR 01BE
ENCODING 446
SWIDTH 504 0
DWIDTH 7 0
BBX 6 9 0 0
BITMAP
10
10
38
10
18
04
C4
44
7C
ENDCHAR
STARTCHAR 01BF
ENCODING 447
SWIDTH 576 0
DWIDTH 8 0
BBX 6 11 1 -3
BITMAP
18
FC
84
84
84
88
90
A0
C0
80
80
ENDCHAR
STARTCHAR 01C0
ENCODING 448
SWIDTH 288 0
DWIDTH 4 0
BBX 1 13 1 -3
BITMAP
80
80
80
80
80
80
80
80
80
80
80
80
80
ENDCHAR
STARTCHAR 01C1
ENCODING 449
SWIDTH 360 0
DWIDTH 5 0
BBX 3 13 1 -3
BITMAP
A0
A0
A0
A0
A0
A0
A0
A0
A0
A0
A0
A0
A0
ENDCHAR
STARTCHAR 01C2
ENCODING 450
SWIDTH 576 0
DWIDTH 8 0
BBX 6 12 1 -3
BITMAP
20
20
20
20
20
FC
20
FC
20
20
20
20
ENDCHAR
STARTCHAR 01C3
ENCODING 451
SWIDTH 288 0
DWIDTH 4 0
BBX 1 10 2 0
BITMAP
80
80
80
80
80
80
80
80
00
80
ENDCHAR
STARTCHAR 01C4
ENCODING 452
SWIDTH 1296 0
DWIDTH 18 0
BBX 16 12 1 0
BITMAP
0014
0008
FC7F
8203
8302
8104
810C
8118
8130
8320
8660
FC7F
ENDCHAR
STARTCHAR 01C5
ENCODING 453
SWIDTH 1152 0
DWIDTH 16 0
BBX 15 10 1 0
BITMAP
FC14
8218
8300
817E
8104
8108
8118
8330
8660
FC7E
ENDCHAR
STARTCHAR 01C6
ENCODING 454
SWIDTH 1008 0
DWIDTH 14 0
BBX 14 10 0 0
BITMAP
0228
0230
1200
7EFC
4608
C210
C230
4260
46C0
7EFC
ENDCHAR
STARTCHAR 01C7
ENCODING 455
SWIDTH 1080 0
DWIDTH 15 0
BBX 13 10 1 0
BITMAP
8018
8018
8018
8018
8018
8018
8018
8118
8110
FCF0
ENDCHAR
STARTCHAR 01C8
ENCODING 456
SWIDTH 792 0
DWIDTH 11 0
BBX 9 13 1 -3
BITMAP
8080
8000
8000
8080
8080
8080
8080
8080
8080
FC80
0080
0080
0180
ENDCHAR
STARTCHAR 01C9
ENCODING 457
SWIDTH 432 0
DWIDTH 6 0
BBX 4 13 1 -3
BITMAP
90
80
80
90
90
90
90
90
90
90
10
10
30
ENDCHAR
STARTCHAR 01CA
ENCODING 458
SWIDTH 1224 0
DWIDTH 17 0
BBX 15 10 1 0
BITMAP
C102
E102
A102
B102
9902
8902
8D02
8542
8366
833C
ENDCHAR
STARTCHAR 01CB
ENCODING 459
SWIDTH 936 0
DWIDTH 13 0
BBX 11 13 1 -3
BITMAP
C120
E100
A100
B120
9920
8920
8D20
8520
8320
8320
0020
0020
0060
ENDCHAR
STARTCHAR 01CC
ENCODING 460
SWIDTH 792 0
DWIDTH 11 0
BBX 9 13 1 -3
BITMAP
0080
0000
1000
F880
8C80
8480
8480
8480
8480
8480
0080
0080
0380
ENDCHAR
STARTCHAR 01CD
ENCODING 461
SWIDTH 648 0
DWIDTH 9 0
BBX 9 12 0 0
BITMAP
1400
0800
0C00
1C00
1400
1600
2200
2300
7F00
4100
4180
C180
ENDCHAR
STARTCHAR 01CE
ENCODING 462
SWIDTH 576 0
DWIDTH 8 0
BBX 7 10 0 0
BITMAP
28
18
10
7C
44
04
7C
C4
C4
7E
ENDCHAR
STARTCHAR 01CF
ENCODING 463
SWIDTH 288 0
DWIDTH 4 0
BBX 3 12 1 0
BITMAP
E0
C0
C0
C0
C0
C0
C0
C0
C0
C0
C0
C0
ENDCHAR
STARTCHAR 01D0
ENCODING 464
SWIDTH 288 0
DWIDTH 4 0
BBX 3 10 0 0
BITMAP
A0
60
00
40
40
40
40
40
40
40
ENDCHAR
STARTCHAR 01D1
ENCODING 465
SWIDTH 792 0
DWIDTH 11 0
BBX 9 12 1 0
BITMAP
1400
0800
3E00
4100
8080
8080
8080
8080
8080
8180
4100
3E00
ENDCHAR
STARTCHAR 01D2
ENCODING 466
SWIDTH 504 0
DWIDTH 7 0
BBX 7 10 0 0
BITMAP
28
18
10
7C
46
C2
C2
42
46
7C
ENDCHAR
STARTCHAR 01D3
ENCODING 467
SWIDTH 720 0
DWIDTH 10 0
BBX 8 12 1 0
BITMAP
1C
18
81
81
81
81
81
81
81
81
C3
7E
ENDCHAR
STARTCHAR 01D4
ENCODING 468
SWIDTH 576 0
DWIDTH 8 0
BBX 6 10 1 0
BITMAP
50
30
00
84
84
84
84
8C
8C
F4
ENDCHAR
STARTCHAR 01D5
ENCODING 469
SWIDTH 720 0
DWIDTH 10 0
BBX 8 14 1 0
BITMAP
3C
00
34
00
81
81
81
81
81
81
81
81
C3
7E
ENDCHAR
STARTCHAR 01D6
ENCODING 470
SWIDTH 576 0
DWIDTH 8 0
BBX 6 12 1 0
BITMAP
78
00
58
58
00
84
84
84
84
8C
8C
F4
ENDCHAR
STARTCHAR 01D7
ENCODING 471
SWIDTH 720 0
DWIDTH 10 0
BBX 8 14 1 0
BITMAP
04
08
34
34
81
81
81
81
81
81
81
81
C3
7E
ENDCHAR
STARTCHAR 01D8
ENCODING 472
SWIDTH 576 0
DWIDTH 8 0
BBX 6 13 1 0
BITMAP
08
10
00
58
58
00
84
84
84
84
8C
8C
F4
ENDCHAR
STARTCHAR 01D9
ENCODING 473
SWIDTH 720 0
DWIDTH 10 0
BBX 8 13 1 0
BITMAP
1C
3C
34
81
81
81
81
81
81
81
81
C3
7E
ENDCHAR
STARTCHAR 01DA
ENCODING 474
SWIDTH 576 0
DWIDTH 8 0
BBX 6 13 1 0
BITMAP
48
30
30
58
58
00
84
84
84
84
8C
8C
F4
ENDCHAR
STARTCHAR 01DB
ENCODING 475
SWIDTH 720 0
DWIDTH 10 0
BBX 8 14 1 0
BITMAP
30
10
34
34
81
81
81
81
81
81
81
81
C3
7E
ENDCHAR
STARTCHAR 01DC
ENCODING 476
SWIDTH 576 0
DWIDTH 8 0
BBX 6 13 1 0
BITMAP
C0
60
00
58
58
00
84
84
84
84
8C
8C
F4
ENDCHAR
STARTCHAR 01DD
ENCODING 477
SWIDTH 504 0
DWIDTH 7 0
BBX 7 8 0 0
BITMAP
10
7C
46
02
FE
42
46
7C
ENDCHAR
STARTCHAR 01DE
ENCODING 478
SWIDTH 648 0
DWIDTH 9 0
BBX 9 14 0 0
BITMAP
1E00
0000
1600
0000
0C00
1C00
1400
1600
2200
2300
7F00
4100
4180
C180
ENDCHAR
STARTCHAR 01DF
ENCODING 479
SWIDTH 576 0
DWIDTH 8 0
BBX 7 11 0 0
BITMAP
3C
2C
2C
10
7C
44
04
7C
C4
C4
7E
ENDCHAR
STARTCHAR 01E0
ENCODING 480
SWIDTH 648 0
DWIDTH 9 0
BBX 9 13 0 0
BITMAP
1E00
0800
0000
0C00
1C00
1400
1600
2200
2300
7F00
4100
4180
C180
ENDCHAR
STARTCHAR 01E1
ENCODING 481
SWIDTH 576 0
DWIDTH 8 0
BBX 7 11 0 0
BITMAP
3C
18
18
10
7C
44
04
7C
C4
C4
7E
ENDCHAR
STARTCHAR 01E2
ENCODING 482
SWIDTH 1008 0
DWIDTH 14 0
BBX 13 12 0 0
BITMAP
01E0
0000
0FF8
0900
1900
1100
31F8
2100
3F00
6100
4100
C1F8
ENDCHAR
STARTCHAR 01E3
ENCODING 483
SWIDTH 864 0
DWIDTH 12 0
BBX 12 10 0 0
BITMAP
0F00
0000
1080
7FE0
4630
0410
7FF0
4400
C620
7BE0
ENDCHAR
STARTCHAR 01E4
ENCODING 484
SWIDTH 792 0
DWIDTH 11 0
BBX 9 10 1 0
BITMAP
3E00
4100
8180
8000
8000
8780
8080
8780
4180
3E80
ENDCHAR
STARTCHAR 01E5
ENCODING 485
SWIDTH 576 0
DWIDTH 8 0
BBX 7 11 0 -3
BITMAP
10
7E
46
C2
C2
42
46
7A
02
4E
3C
ENDCHAR
STARTCHAR 01E6
ENCODING 486
SWIDTH 792 0
DWIDTH 11 0
BBX 9 12 1 0
BITMAP
1400
0800
3E00
4100
8180
8000
8000
8780
8080
8180
4180
3E80
ENDCHAR
STARTCHAR 01E7
ENCODING 487
SWIDTH 576 0
DWIDTH 8 0
BBX 7 13 0 -3
BITMAP
28
10
10
7E
46
C2
C2
42
46
7A
02
44
3C
ENDCHAR
STARTCHAR 01E8
ENCODING 488
SWIDTH 648 0
DWIDTH 9 0
BBX 8 12 1 0
BITMAP
1C
18
83
84
88
90
B0
C8
8C
84
82
83
ENDCHAR
STARTCHAR 01E9
ENCODING 489
SWIDTH 504 0
DWIDTH 7 0
BBX 6 13 1 0
BITMAP
48
50
20
80
80
80
98
B0
E0
F0
90
88
8C
ENDCHAR
STARTCHAR 01EA
ENCODING 490
SWIDTH 792 0
DWIDTH 11 0
BBX 9 13 1 -3
BITMAP
3E00
4100
8080
8080
8080
8080
8080
8180
4100
3E00
1800
1000
1C00
ENDCHAR
STARTCHAR 01EB
ENCODING 491
SWIDTH 504 0
DWIDTH 7 0
BBX 7 11 0 -3
BITMAP
10
7C
46
C2
C2
42
46
3C
10
20
38
ENDCHAR
STARTCHAR 01EC
ENCODING 492
SWIDTH 792 0
DWIDTH 11 0
BBX 9 15 1 -3
BITMAP
1C00
0000
3E00
4100
8080
8080
8080
8080
8080
8180
4100
3E00
1800
1000
1C00
ENDCHAR
STARTCHAR 01ED
ENCODING 493
SWIDTH 504 0
DWIDTH 7 0
BBX 7 12 0 -3
BITMAP
3C
10
7C
46
C2
C2
42
46
3C
10
20
38
ENDCHAR
STARTCHAR 01EE
ENCODING 494
SWIDTH 648 0
DWIDTH 9 0
BBX 7 12 1 0
BITMAP
28
10
FE
06
0C
08
1C
06
02
82
86
7C
ENDCHAR
STARTCHAR 01EF
ENCODING 495
SWIDTH 504 0
DWIDTH 7 0
BBX 7 12 0 -2
BITMAP
28
18
00
7C
0C
18
1C
06
02
C2
46
3C
ENDCHAR
STARTCHAR 01F0
ENCODING 496
SWIDTH 216 0
DWIDTH 3 0
BBX 3 13 0 -3
BITMAP
A0
E0
00
40
40
40
40
40
40
40
40
40
C0
ENDCHAR
STARTCHAR 01F1
ENCODING 497
SWIDTH 1296 0
DWIDTH 18 0
BBX 17 10 1 0
BITMAP
FC7F80
820100
830300
810600
810C00
810800
811000
833000
866000
FC7F80
ENDCHAR
STARTCHAR 01F2
ENCODING 498
SWIDTH 1152 0
DWIDTH 16 0
BBX 15 10 1 0
BITMAP
FC00
8200
8300
817E
8104
8108
8118
8330
8660
FC7E
ENDCHAR
STARTCHAR 01F3
ENCODING 499
SWIDTH 1080 0
DWIDTH 15 0
BBX 14 10 0 0
BITMAP
0200
0200
1200
7EFC
4608
C210
C230
4260
4640
7EFC
ENDCHAR
STARTCHAR 01F4
ENCODING 500
SWIDTH 792 0
DWIDTH 11 0
BBX 9 13 1 0
BITMAP
0600
0800
0000
3E00
4100
8180
8000
8000
8780
8080
8180
4180
3E80
ENDCHAR
STARTCHAR 01F5
ENCODING 501
SWIDTH 576 0
DWIDTH 8 0
BBX 7 13 0 -3
BITMAP
0C
10
10
7E
46
C2
C2
42
46
7A
02
44
3C
ENDCHAR
STARTCHAR 01F7
ENCODING 503
SWIDTH 648 0
DWIDTH 9 0
BBX 7 10 1 0
BITMAP
BE
C2
82
86
8C
98
B0
E0
80
80
ENDCHAR
STARTCHAR 01F8
ENCODING 504
SWIDTH 720 0
DWIDTH 10 0
BBX 8 13 1 0
BITMAP
10
08
00
C1
E1
A1
B1
99
89
8D
85
83
83
ENDCHAR
STARTCHAR 01F9
ENCODING 505
SWIDTH 576 0
DWIDTH 8 0
BBX 6 10 1 0
BITMAP
60
10
10
F8
8C
84
84
84
84
84
ENDCHAR
STARTCHAR 01FA
ENCODING 506
SWIDTH 648 0
DWIDTH 9 0
BBX 9 13 0 0
BITMAP
0C00
1800
0C00
1400
0C00
0C00
1C00
1600
3200
2200
7F00
4100
C180
ENDCHAR
STARTCHAR 01FB
ENCODING 507
SWIDTH 576 0
DWIDTH 8 0
BBX 7 13 0 0
BITMAP
0C
10
18
28
18
10
7C
44
04
7C
C4
C4
7E
ENDCHAR
STARTCHAR 01FC
ENCODING 508
SWIDTH 1008 0
DWIDTH 14 0
BBX 13 13 0 0
BITMAP
0060
0080
0000
0FF8
0900
1900
1100
31F8
2100
3F00
6100
4100
C1F8
ENDCHAR
STARTCHAR 01FD
ENCODING 509
SWIDTH 864 0
DWIDTH 12 0
BBX 12 10 0 0
BITMAP
0100
0200
1080
7FE0
4630
0410
7FF0
4400
C620
7BE0
ENDCHAR
STARTCHAR 01FE
ENCODING 510
SWIDTH 792 0
DWIDTH 11 0
BBX 9 13 1 0
BITMAP
0600
0800
0000
3E80
4100
8280
8480
8880
9080
A080
A180
4100
BE00
ENDCHAR
STARTCHAR 01FF
ENCODING 511
SWIDTH 648 0
DWIDTH 9 0
BBX 7 10 0 0
BITMAP
0C
08
10
7E
46
CA
D2
E2
46
7C
ENDCHAR
STARTCHAR 0200
ENCODING 512
SWIDTH 648 0
DWIDTH 9 0
BBX 9 13 0 0
BITMAP
2C00
1400
0000
0C00
1C00
1400
1600
2200
2300
7F00
4100
4180
C180
ENDCHAR
STARTCHAR 0201
ENCODING 513
SWIDTH 576 0
DWIDTH 8 0
BBX 7 10 0 0
BITMAP
68
28
10
7C
44
04
7C
C4
C4
7E
ENDCHAR
STARTCHAR 0202
ENCODING 514
SWIDTH 648 0
DWIDTH 9 0
BBX 9 13 0 0
BITMAP
0C00
1600
0000
0C00
1C00
1400
1600
2200
2300
7F00
4100
4180
C180
ENDCHAR
STARTCHAR 0203
ENCODING 515
SWIDTH 576 0
DWIDTH 8 0
BBX 7 10 0 0
BITMAP
38
24
10
7C
44
04
7C
C4
C4
7E
ENDCHAR
STARTCHAR 0204
ENCODING 516
SWIDTH 648 0
DWIDTH 9 0
BBX 7 13 1 0
BITMAP
78
28
00
FE
80
80
80
FE
80
80
80
80
FE
ENDCHAR
STARTCHAR 0205
ENCODING 517
SWIDTH 504 0
DWIDTH 7 0
BBX 7 10 0 0
BITMAP
68
28
10
7C
46
C2
FE
40
46
3C
ENDCHAR
STARTCHAR 0206
ENCODING 518
SWIDTH 648 0
DWIDTH 9 0
BBX 7 13 1 0
BITMAP
18
2C
00
FE
80
80
80
FE
80
80
80
80
FE
ENDCHAR
STARTCHAR 0207
ENCODING 519
SWIDTH 504 0
DWIDTH 7 0
BBX 7 10 0 0
BITMAP
38
24
10
7C
46
C2
FE
40
46
3C
ENDCHAR
STARTCHAR 0208
ENCODING 520
SWIDTH 288 0
DWIDTH 4 0
BBX 4 13 0 0
BITMAP
B0
50
00
60
60
60
60
60
60
60
60
60
60
ENDCHAR
STARTCHAR 0209
ENCODING 521
SWIDTH 288 0
DWIDTH 4 0
BBX 5 10 -1 0
BITMAP
D0
48
00
20
20
20
20
20
20
20
ENDCHAR
STARTCHAR 020A
ENCODING 522
SWIDTH 288 0
DWIDTH 4 0
BBX 4 13 0 0
BITMAP
60
90
00
60
60
60
60
60
60
60
60
60
60
ENDCHAR
STARTCHAR 020B
ENCODING 523
SWIDTH 288 0
DWIDTH 4 0
BBX 4 10 0 0
BITMAP
E0
90
00
40
40
40
40
40
40
40
ENDCHAR
STARTCHAR 020C
ENCODING 524
SWIDTH 792 0
DWIDTH 11 0
BBX 9 13 1 0
BITMAP
2C00
1400
0000
3E00
4100
8080
8080
8080
8080
8080
8180
4100
3E00
ENDCHAR
STARTCHAR 020D
ENCODING 525
SWIDTH 504 0
DWIDTH 7 0
BBX 7 10 0 0
BITMAP
78
28
10
7C
46
C2
C2
42
46
7C
ENDCHAR
STARTCHAR 020E
ENCODING 526
SWIDTH 792 0
DWIDTH 11 0
BBX 9 13 1 0
BITMAP
0800
1400
0000
3E00
4100
8080
8080
8080
8080
8080
8180
4100
3E00
ENDCHAR
STARTCHAR 020F
ENCODING 527
SWIDTH 504 0
DWIDTH 7 0
BBX 7 10 0 0
BITMAP
38
24
10
7C
46
C2
C2
42
46
7C
ENDCHAR
STARTCHAR 0210
ENCODING 528
SWIDTH 720 0
DWIDTH 10 0
BBX 8 13 1 0
BITMAP
58
28
00
FE
83
81
83
FE
FE
83
83
83
81
ENDCHAR
STARTCHAR 0211
ENCODING 529
SWIDTH 360 0
DWIDTH 5 0
BBX 4 10 0 0
BITMAP
D0
50
00
70
40
40
40
40
40
40
ENDCHAR
STARTCHAR 0212
ENCODING 530
SWIDTH 720 0
DWIDTH 10 0
BBX 8 13 1 0
BITMAP
18
24
00
FE
83
81
83
FE
FE
83
83
83
81
ENDCHAR
STARTCHAR 0213
ENCODING 531
SWIDTH 360 0
DWIDTH 5 0
BBX 4 10 1 0
BITMAP
E0
90
00
E0
80
80
80
80
80
80
ENDCHAR
STARTCHAR 0214
ENCODING 532
SWIDTH 720 0
DWIDTH 10 0
BBX 8 13 1 0
BITMAP
78
28
00
81
81
81
81
81
81
81
81
C3
7E
ENDCHAR
STARTCHAR 0215
ENCODING 533
SWIDTH 576 0
DWIDTH 8 0
BBX 6 10 1 0
BITMAP
50
28
00
84
84
84
84
8C
8C
F4
ENDCHAR
STARTCHAR 0216
ENCODING 534
SWIDTH 720 0
DWIDTH 10 0
BBX 8 13 1 0
BITMAP
18
24
00
81
81
81
81
81
81
81
81
C3
7E
ENDCHAR
STARTCHAR 0217
ENCODING 535
SWIDTH 576 0
DWIDTH 8 0
BBX 6 10 1 0
BITMAP
70
48
00
84
84
84
84
8C
8C
F4
ENDCHAR
STARTCHAR 0218
ENCODING 536
SWIDTH 648 0
DWIDTH 9 0
BBX 8 14 1 -4
BITMAP
7C
C2
82
C0
78
0E
03
83
C2
7E
00
10
10
10
ENDCHAR
STARTCHAR 0219
ENCODING 537
SWIDTH 504 0
DWIDTH 7 0
BBX 5 12 1 -4
BITMAP
20
F8
88
C0
78
08
88
F8
00
20
20
20
ENDCHAR
STARTCHAR 021A
ENCODING 538
SWIDTH 648 0
DWIDTH 9 0
BBX 8 14 0 -4
BITMAP
FF
08
08
08
08
08
08
08
08
08
00
08
08
08
ENDCHAR
STARTCHAR 021B
ENCODING 539
SWIDTH 288 0
DWIDTH 4 0
BBX 4 13 0 -4
BITMAP
40
40
F0
40
40
40
40
40
70
00
60
20
20
ENDCHAR
STARTCHAR 021C
ENCODING 540
SWIDTH 576 0
DWIDTH 8 0
BBX 6 11 1 -1
BITMAP
70
88
8C
0C
18
78
04
04
0C
38
E0
ENDCHAR
STARTCHAR 021D
ENCODING 541
SWIDTH 432 0
DWIDTH 6 0
BBX 5 9 0 -1
BITMAP
30
78
C8
08
38
08
08
38
60
ENDCHAR
STARTCHAR 021E
ENCODING 542
SWIDTH 720 0
DWIDTH 10 0
BBX 8 12 1 0
BITMAP
1C
18
81
81
81
81
FF
81
81
81
81
81
ENDCHAR
STARTCHAR 021F
ENCODING 543
SWIDTH 576 0
DWIDTH 8 0
BBX 6 13 1 0
BITMAP
48
30
30
80
80
90
F8
8C
8C
8C
8C
8C
8C
ENDCHAR
STARTCHAR 0220
ENCODING 544
SWIDTH 720 0
DWIDTH 10 0
BBX 8 13 1 -3
BITMAP
FE
C3
81
81
81
81
81
81
81
81
01
01
01
ENDCHAR
STARTCHAR 0224
ENCODING 548
SWIDTH 648 0
DWIDTH 9 0
BBX 8 13 0 -3
BITMAP
7F
03
06
04
08
18
30
60
40
FF
01
01
03
ENDCHAR
STARTCHAR 0225
ENCODING 549
SWIDTH 504 0
DWIDTH 7 0
BBX 6 10 0 -3
BITMAP
7C
0C
18
30
20
40
FC
04
04
0C
ENDCHAR
STARTCHAR 0226
ENCODING 550
SWIDTH 648 0
DWIDTH 9 0
BBX 9 13 0 0
BITMAP
0800
0800
0000
0C00
1C00
1400
1600
2200
2300
7F00
4100
4180
C180
ENDCHAR
STARTCHAR 0227
ENCODING 551
SWIDTH 576 0
DWIDTH 8 0
BBX 7 10 0 0
BITMAP
18
00
10
7C
44
04
7C
C4
C4
7E
ENDCHAR
STARTCHAR 0228
ENCODING 552
SWIDTH 648 0
DWIDTH 9 0
BBX 7 13 1 -3
BITMAP
FE
80
80
80
FE
80
80
80
80
FE
10
08
38
ENDCHAR
STARTCHAR 0229
ENCODING 553
SWIDTH 504 0
DWIDTH 7 0
BBX 7 11 0 -3
BITMAP
10
7C
46
C2
FE
40
46
3C
10
18
38
ENDCHAR
STARTCHAR 022A
ENCODING 554
SWIDTH 792 0
DWIDTH 11 0
BBX 9 14 1 0
BITMAP
1C00
0000
3400
0000
3E00
4100
8080
8080
8080
8080
8080
8180
4100
3E00
ENDCHAR
STARTCHAR 022B
ENCODING 555
SWIDTH 504 0
DWIDTH 7 0
BBX 7 11 0 0
BITMAP
3C
2C
2C
10
7C
46
C2
C2
42
46
7C
ENDCHAR
STARTCHAR 022C
ENCODING 556
SWIDTH 792 0
DWIDTH 11 0
BBX 9 14 1 0
BITMAP
1C00
0000
3C00
0000
3E00
4100
8080
8080
8080
8080
8080
8180
4100
3E00
ENDCHAR
STARTCHAR 022D
ENCODING 557
SWIDTH 504 0
DWIDTH 7 0
BBX 7 11 0 0
BITMAP
3C
00
3C
10
7C
46
C2
C2
42
46
7C
ENDCHAR
STARTCHAR 022E
ENCODING 558
SWIDTH 792 0
DWIDTH 11 0
BBX 9 13 1 0
BITMAP
0800
0800
0000
3E00
4100
8080
8080
8080
8080
8080
8180
4100
3E00
ENDCHAR
STARTCHAR 022F
ENCODING 559
SWIDTH 504 0
DWIDTH 7 0
BBX 7 10 0 0
BITMAP
18
18
10
7C
46
C2
C2
42
46
7C
ENDCHAR
STARTCHAR 0230
ENCODING 560
SWIDTH 792 0
DWIDTH 11 0
BBX 9 14 1 0
BITMAP
1C00
0000
0800
0000
3E00
4100
8080
8080
8080
8080
8080
8180
4100
3E00
ENDCHAR
STARTCHAR 0231
ENCODING 561
SWIDTH 504 0
DWIDTH 7 0
BBX 7 11 0 0
BITMAP
3C
18
18
10
7C
46
C2
C2
42
46
7C
ENDCHAR
STARTCHAR 0232
ENCODING 562
SWIDTH 648 0
DWIDTH 9 0
BBX 8 12 1 0
BITMAP
3C
00
83
C2
46
24
38
18
10
10
10
10
ENDCHAR
STARTCHAR 0233
ENCODING 563
SWIDTH 504 0
DWIDTH 7 0
BBX 6 12 0 -3
BITMAP
38
00
C4
44
4C
68
28
30
30
30
20
60
ENDCHAR
STARTCHAR 0237
ENCODING 567
SWIDTH 216 0
DWIDTH 3 0
BBX 2 10 0 -3
BITMAP
40
40
40
40
40
40
40
40
40
C0
ENDCHAR
STARTCHAR 0238
ENCODING 568
SWIDTH 936 0
DWIDTH 13 0
BBX 12 10 0 0
BITMAP
0200
0200
1240
7FF0
4610
C210
C210
4210
4710
7FE0
ENDCHAR
STARTCHAR 0239
ENCODING 569
SWIDTH 936 0
DWIDTH 13 0
BBX 12 11 0 -3
BITMAP
1040
7FF0
4610
C210
C210
4210
4710
7FE0
0200
0200
0200
ENDCHAR
STARTCHAR 0250
ENCODING 592
SWIDTH 576 0
DWIDTH 8 0
BBX 6 8 1 0
BITMAP
90
EC
84
84
F8
80
84
78
ENDCHAR
STARTCHAR 0251
ENCODING 593
SWIDTH 576 0
DWIDTH 8 0
BBX 8 8 0 0
BITMAP
10
6E
46
C2
C2
46
46
3B
ENDCHAR
STARTCHAR 0252
ENCODING 594
SWIDTH 576 0
DWIDTH 8 0
BBX 8 8 0 0
BITMAP
C8
7E
62
43
43
62
62
5C
ENDCHAR
STARTCHAR 0253
ENCODING 595
SWIDTH 576 0
DWIDTH 8 0
BBX 6 10 1 0
BITMAP
C0
80
90
FC
84
84
84
84
C4
F8
ENDCHAR
STARTCHAR 0254
ENCODING 596
SWIDTH 504 0
DWIDTH 7 0
BBX 6 8 1 0
BITMAP
20
F8
88
0C
0C
0C
88
F8
ENDCHAR
STARTCHAR 0255
ENCODING 597
SWIDTH 504 0
DWIDTH 7 0
BBX 7 8 0 -1
BITMAP
10
7C
46
40
C0
5C
64
FC
ENDCHAR
STARTCHAR 0256
ENCODING 598
SWIDTH 576 0
DWIDTH 8 0
BBX 8 13 0 -3
BITMAP
02
02
12
7E
46
C2
C2
42
46
7E
02
02
03
ENDCHAR
STARTCHAR 0257
ENCODING 599
SWIDTH 576 0
DWIDTH 8 0
BBX 8 10 0 0
BITMAP
03
02
12
7E
46
C2
C2
42
46
7E
ENDCHAR
STARTCHAR 0258
ENCODING 600
SWIDTH 504 0
DWIDTH 7 0
BBX 7 8 0 0
BITMAP
10
7C
46
42
FE
02
46
7C
ENDCHAR
STARTCHAR 0259
ENCODING 601
SWIDTH 504 0
DWIDTH 7 0
BBX 7 8 0 0
BITMAP
10
7C
46
02
FE
42
46
7C
ENDCHAR
STARTCHAR 025A
ENCODING 602
SWIDTH 792 0
DWIDTH 11 0
BBX 11 8 0 0
BITMAP
1100
7E80
4680
02A0
FE40
4200
4600
7C00
ENDCHAR
STARTCHAR 025B
ENCODING 603
SWIDTH 504 0
DWIDTH 7 0
BBX 6 8 0 0
BITMAP
10
7C
44
40
70
C0
C4
7C
ENDCHAR
STARTCHAR 025C
ENCODING 604
SWIDTH 504 0
DWIDTH 7 0
BBX 5 8 1 0
BITMAP
20
F8
88
18
38
08
88
F8
ENDCHAR
STARTCHAR 025D
ENCODING 605
SWIDTH 720 0
DWIDTH 10 0
BBX 9 8 1 0
BITMAP
2600
FA00
8A00
1980
3980
0800
8800
F800
ENDCHAR
STARTCHAR 025E
ENCODING 606
SWIDTH 504 0
DWIDTH 7 0
BBX 7 8 0 0
BITMAP
10
7C
44
C4
DC
C6
46
7C
ENDCHAR
STARTCHAR 025F
ENCODING 607
SWIDTH 288 0
DWIDTH 4 0
BBX 4 10 0 -3
BITMAP
20
20
20
F0
20
20
20
20
60
C0
ENDCHAR
STARTCHAR 0260
ENCODING 608
SWIDTH 576 0
DWIDTH 8 0
BBX 8 12 0 -3
BITMAP
03
12
7E
46
C2
C2
42
46
7A
02
44
3C
ENDCHAR
STARTCHAR 0261
ENCODING 609
SWIDTH 576 0
DWIDTH 8 0
BBX 7 11 0 -3
BITMAP
10
7E
46
C2
C2
42
46
7A
02
44
3C
ENDCHAR
STARTCHAR 0262
ENCODING 610
SWIDTH 576 0
DWIDTH 8 0
BBX 7 8 0 0
BITMAP
18
7E
42
40
CE
42
42
3E
ENDCHAR
STARTCHAR 0263
ENCODING 611
SWIDTH 504 0
DWIDTH 7 0
BBX 5 10 1 -3
BITMAP
88
88
D0
50
60
20
70
50
50
70
ENDCHAR
STARTCHAR 0264
ENCODING 612
SWIDTH 576 0
DWIDTH 8 0
BBX 7 8 0 0
BITMAP
24
7E
9A
38
24
24
24
3C
ENDCHAR
STARTCHAR 0265
ENCODING 613
SWIDTH 576 0
DWIDTH 8 0
BBX 6 10 1 -3
BITMAP
8C
8C
8C
8C
8C
8C
FC
0C
0C
0C
ENDCHAR
STARTCHAR 0266
ENCODING 614
SWIDTH 576 0
DWIDTH 8 0
BBX 6 10 1 0
BITMAP
C0
80
90
F8
8C
8C
8C
8C
8C
8C
ENDCHAR
STARTCHAR 0267
ENCODING 615
SWIDTH 576 0
DWIDTH 8 0
BBX 6 13 1 -3
BITMAP
C0
80
90
F8
8C
8C
8C
8C
8C
8C
0C
0C
18
ENDCHAR
STARTCHAR 0268
ENCODING 616
SWIDTH 288 0
DWIDTH 4 0
BBX 4 10 0 0
BITMAP
40
00
00
40
40
40
F0
40
40
40
ENDCHAR
STARTCHAR 0269
ENCODING 617
SWIDTH 288 0
DWIDTH 4 0
BBX 2 7 1 0
BITMAP
80
80
80
80
80
80
C0
ENDCHAR
STARTCHAR 026A
ENCODING 618
SWIDTH 288 0
DWIDTH 4 0
BBX 4 7 0 0
BITMAP
F0
60
60
60
60
60
F0
ENDCHAR
STARTCHAR 026B
ENCODING 619
SWIDTH 504 0
DWIDTH 7 0
BBX 6 10 0 0
BITMAP
10
10
10
10
70
9C
10
10
10
10
ENDCHAR
STARTCHAR 026C
ENCODING 620
SWIDTH 432 0
DWIDTH 6 0
BBX 6 10 0 0
BITMAP
30
30
30
70
B0
7C
30
30
30
30
ENDCHAR
STARTCHAR 026D
ENCODING 621
SWIDTH 288 0
DWIDTH 4 0
BBX 2 13 1 -3
BITMAP
80
80
80
80
80
80
80
80
80
80
80
80
C0
ENDCHAR
STARTCHAR 026E
ENCODING 622
SWIDTH 648 0
DWIDTH 9 0
BBX 7 12 1 -2
BITMAP
80
80
80
FC
8C
88
9C
86
82
82
46
3C
ENDCHAR
STARTCHAR 026F
ENCODING 623
SWIDTH 792 0
DWIDTH 11 0
BBX 10 7 1 0
BITMAP
88C0
88C0
88C0
88C0
88C0
88C0
F7C0
ENDCHAR
STARTCHAR 0270
ENCODING 624
SWIDTH 792 0
DWIDTH 11 0
BBX 10 10 1 -3
BITMAP
88C0
88C0
88C0
88C0
88C0
88C0
F7C0
00C0
00C0
00C0
ENDCHAR
STARTCHAR 0271
ENCODING 625
SWIDTH 792 0
DWIDTH 11 0
BBX 10 11 1 -3
BITMAP
1100
FF80
88C0
88C0
88C0
88C0
88C0
88C0
00C0
00C0
0180
ENDCHAR
STARTCHAR 0272
ENCODING 626
SWIDTH 576 0
DWIDTH 8 0
BBX 7 11 0 -3
BITMAP
08
56
62
62
62
62
62
62
60
60
C0
ENDCHAR
STARTCHAR 0273
ENCODING 627
SWIDTH 576 0
DWIDTH 8 0
BBX 7 11 1 -3
BITMAP
10
F8
8C
84
84
84
84
84
04
04
06
ENDCHAR
STARTCHAR 0274
ENCODING 628
SWIDTH 576 0
DWIDTH 8 0
BBX 6 7 1 0
BITMAP
C4
C4
A4
B4
94
9C
8C
ENDCHAR
STARTCHAR 0275
ENCODING 629
SWIDTH 504 0
DWIDTH 7 0
BBX 7 8 0 0
BITMAP
10
7C
46
C2
FE
42
46
7C
ENDCHAR
STARTCHAR 0276
ENCODING 630
SWIDTH 792 0
DWIDTH 11 0
BBX 10 8 0 0
BITMAP
1000
7FC0
4600
C200
C3C0
4200
4600
7FC0
ENDCHAR
STARTCHAR 0277
ENCODING 631
SWIDTH 720 0
DWIDTH 10 0
BBX 10 8 0 0
BITMAP
0C00
3F80
4080
44C0
C440
C440
4C80
7B80
ENDCHAR
STARTCHAR 0278
ENCODING 632
SWIDTH 720 0
DWIDTH 10 0
BBX 9 13 0 -3
BITMAP
0800
0800
0800
7F00
4880
C880
C880
C880
4980
3F00
0800
0800
0800
ENDCHAR
STARTCHAR 0279
ENCODING 633
SWIDTH 360 0
DWIDTH 5 0
BBX 4 7 0 0
BITMAP
10
10
10
10
10
30
D0
ENDCHAR
STARTCHAR 027A
ENCODING 634
SWIDTH 360 0
DWIDTH 5 0
BBX 4 10 0 0
BITMAP
10
10
10
10
10
10
10
10
30
D0
ENDCHAR
STARTCHAR 027B
ENCODING 635
SWIDTH 360 0
DWIDTH 5 0
BBX 5 10 0 -3
BITMAP
10
10
10
10
10
30
D0
10
10
18
ENDCHAR
STARTCHAR 027C
ENCODING 636
SWIDTH 360 0
DWIDTH 5 0
BBX 3 10 1 -2
BITMAP
E0
80
80
80
80
80
80
80
80
80
ENDCHAR
STARTCHAR 027D
ENCODING 637
SWIDTH 360 0
DWIDTH 5 0
BBX 3 10 1 -2
BITMAP
E0
80
80
80
80
80
80
80
80
C0
ENDCHAR
STARTCHAR 027E
ENCODING 638
SWIDTH 360 0
DWIDTH 5 0
BBX 4 8 1 0
BITMAP
60
F0
80
80
80
80
80
80
ENDCHAR
STARTCHAR 027F
ENCODING 639
SWIDTH 360 0
DWIDTH 5 0
BBX 4 11 0 -3
BITMAP
20
D0
10
10
10
10
10
10
10
10
10
ENDCHAR
STARTCHAR 0280
ENCODING 640
SWIDTH 504 0
DWIDTH 7 0
BBX 6 7 1 0
BITMAP
F8
88
88
F8
B0
98
8C
ENDCHAR
STARTCHAR 0281
ENCODING 641
SWIDTH 576 0
DWIDTH 8 0
BBX 6 7 1 0
BITMAP
8C
98
B0
F8
8C
88
F8
ENDCHAR
STARTCHAR 0282
ENCODING 642
SWIDTH 504 0
DWIDTH 7 0
BBX 6 11 0 -3
BITMAP
10
7C
44
60
3C
04
C4
FC
C0
C0
60
ENDCHAR
STARTCHAR 0283
ENCODING 643
SWIDTH 288 0
DWIDTH 4 0
BBX 4 13 0 -3
BITMAP
30
20
20
20
20
20
20
20
20
20
20
60
C0
ENDCHAR
STARTCHAR 0284
ENCODING 644
SWIDTH 288 0
DWIDTH 4 0
BBX 4 13 0 -3
BITMAP
30
20
20
20
20
20
70
20
20
20
20
60
C0
ENDCHAR
STARTCHAR 0285
ENCODING 645
SWIDTH 288 0
DWIDTH 4 0
BBX 3 11 1 -3
BITMAP
80
C0
40
40
40
40
40
40
40
40
60
ENDCHAR
STARTCHAR 0286
ENCODING 646
SWIDTH 432 0
DWIDTH 6 0
BBX 6 13 0 -3
BITMAP
0C
18
18
18
18
18
18
18
18
18
F8
9C
70
ENDCHAR
STARTCHAR 0287
ENCODING 647
SWIDTH 288 0
DWIDTH 4 0
BBX 4 10 0 0
BITMAP
C0
60
60
60
60
60
60
F0
60
60
ENDCHAR
STARTCHAR 0288
ENCODING 648
SWIDTH 288 0
DWIDTH 4 0
BBX 4 12 0 -3
BITMAP
40
40
F0
40
40
40
40
40
40
40
40
70
ENDCHAR
STARTCHAR 0289
ENCODING 649
SWIDTH 576 0
DWIDTH 8 0
BBX 8 7 0 0
BITMAP
42
42
42
FF
42
46
3E
ENDCHAR
STARTCHAR 028A
ENCODING 650
SWIDTH 648 0
DWIDTH 9 0
BBX 8 8 0 0
BITMAP
E7
26
42
41
C1
41
42
3E
ENDCHAR
STARTCHAR 028B
ENCODING 651
SWIDTH 504 0
DWIDTH 7 0
BBX 6 7 1 0
BITMAP
90
88
8C
84
8C
88
F0
ENDCHAR
STARTCHAR 028C
ENCODING 652
SWIDTH 504 0
DWIDTH 7 0
BBX 7 7 0 0
BITMAP
18
28
28
6C
44
44
C6
ENDCHAR
STARTCHAR 028D
ENCODING 653
SWIDTH 720 0
DWIDTH 10 0
BBX 10 7 0 0
BITMAP
3300
3300
7280
5A80
4C80
4CC0
CC40
ENDCHAR
STARTCHAR 028E
ENCODING 654
SWIDTH 504 0
DWIDTH 7 0
BBX 6 10 0 0
BITMAP
0C
18
10
10
38
28
68
4C
44
C4
ENDCHAR
STARTCHAR 028F
ENCODING 655
SWIDTH 504 0
DWIDTH 7 0
BBX 5 7 1 0
BITMAP
88
C8
50
30
20
20
20
ENDCHAR
STARTCHAR 0290
ENCODING 656
SWIDTH 576 0
DWIDTH 8 0
BBX 8 10 0 -3
BITMAP
7C
0C
18
30
20
40
FC
04
04
03
ENDCHAR
STARTCHAR 0291
ENCODING 657
SWIDTH 504 0
DWIDTH 7 0
BBX 7 8 0 -1
BITMAP
7C
0C
18
30
2C
52
FC
10
ENDCHAR
STARTCHAR 0292
ENCODING 658
SWIDTH 504 0
DWIDTH 7 0
BBX 7 9 0 -2
BITMAP
7C
0C
18
1C
06
02
C2
46
3C
ENDCHAR
STARTCHAR 0293
ENCODING 659
SWIDTH 504 0
DWIDTH 7 0
BBX 7 9 0 -2
BITMAP
FC
08
10
38
04
04
7C
46
38
ENDCHAR
STARTCHAR 0294
ENCODING 660
SWIDTH 504 0
DWIDTH 7 0
BBX 7 10 0 0
BITMAP
38
44
C6
04
1C
10
10
10
10
10
ENDCHAR
STARTCHAR 0295
ENCODING 661
SWIDTH 504 0
DWIDTH 7 0
BBX 6 10 0 0
BITMAP
38
44
C4
40
70
10
10
10
10
10
ENDCHAR
STARTCHAR 0296
ENCODING 662
SWIDTH 504 0
DWIDTH 7 0
BBX 6 10 0 0
BITMAP
10
10
10
10
10
70
40
C4
44
38
ENDCHAR
STARTCHAR 0297
ENCODING 663
SWIDTH 720 0
DWIDTH 10 0
BBX 8 13 1 -3
BITMAP
7E
43
81
80
80
80
80
80
80
81
C1
62
3C
ENDCHAR
STARTCHAR 0298
ENCODING 664
SWIDTH 792 0
DWIDTH 11 0
BBX 9 10 1 0
BITMAP
3E00
4100
8080
8080
8880
8880
8080
8180
4100
3E00
ENDCHAR
STARTCHAR 0299
ENCODING 665
SWIDTH 504 0
DWIDTH 7 0
BBX 5 7 1 0
BITMAP
F8
88
98
F8
88
88
F8
ENDCHAR
STARTCHAR 029A
ENCODING 666
SWIDTH 504 0
DWIDTH 7 0
BBX 7 8 0 0
BITMAP
10
7C
46
46
76
C6
C4
7C
ENDCHAR
STARTCHAR 029B
ENCODING 667
SWIDTH 648 0
DWIDTH 9 0
BBX 8 8 0 0
BITMAP
19
7F
42
40
CE
42
42
3E
ENDCHAR
STARTCHAR 029C
ENCODING 668
SWIDTH 576 0
DWIDTH 8 0
BBX 6 7 1 0
BITMAP
84
84
84
FC
84
84
84
ENDCHAR
STARTCHAR 029D
ENCODING 669
SWIDTH 432 0
DWIDTH 6 0
BBX 6 13 0 -3
BITMAP
18
00
00
18
18
18
18
18
18
18
F8
9C
70
ENDCHAR
STARTCHAR 029E
ENCODING 670
SWIDTH 504 0
DWIDTH 7 0
BBX 5 10 1 -3
BITMAP
88
C8
48
38
38
68
C8
08
08
08
ENDCHAR
STARTCHAR 029F
ENCODING 671
SWIDTH 360 0
DWIDTH 5 0
BBX 4 7 1 0
BITMAP
80
80
80
80
80
80
F0
ENDCHAR
STARTCHAR 02A0
ENCODING 672
SWIDTH 576 0
DWIDTH 8 0
BBX 8 12 0 -3
BITMAP
03
12
7E
46
C2
C2
42
46
7E
02
02
02
ENDCHAR
STARTCHAR 02A1
ENCODING 673
SWIDTH 504 0
DWIDTH 7 0
BBX 7 10 0 0
BITMAP
38
44
C6
04
1C
10
7C
10
10
10
ENDCHAR
STARTCHAR 02A2
ENCODING 674
SWIDTH 504 0
DWIDTH 7 0
BBX 6 10 0 0
BITMAP
38
44
C4
40
70
10
7C
10
10
10
ENDCHAR
STARTCHAR 02A3
ENCODING 675
SWIDTH 936 0
DWIDTH 13 0
BBX 13 10 0 0
BITMAP
0200
0200
1200
7FF0
4630
C220
C240
4280
4700
7FF8
ENDCHAR
STARTCHAR 02A4
ENCODING 676
SWIDTH 936 0
DWIDTH 13 0
BBX 13 12 0 -2
BITMAP
0200
0200
1200
7FF0
4630
C220
C270
4218
4608
7E08
0118
00F0
ENDCHAR
STARTCHAR 02A5
ENCODING 677
SWIDTH 936 0
DWIDTH 13 0
BBX 13 11 0 -1
BITMAP
0200
0200
1200
7FF0
4630
C220
C240
42B8
4728
7FF8
0020
ENDCHAR
STARTCHAR 02A6
ENCODING 678
SWIDTH 720 0
DWIDTH 10 0
BBX 9 9 0 0
BITMAP
4000
4200
FF80
4880
4C00
4780
4080
4080
7F80
ENDCHAR
STARTCHAR 02A7
ENCODING 679
SWIDTH 504 0
DWIDTH 7 0
BBX 7 13 0 -3
BITMAP
06
44
44
FC
44
44
44
44
44
7C
04
04
1C
ENDCHAR
STARTCHAR 02A8
ENCODING 680
SWIDTH 792 0
DWIDTH 11 0
BBX 10 11 0 -2
BITMAP
4000
4100
F7C0
4C40
4800
4800
48C0
4D40
7FC0
0100
0100
ENDCHAR
STARTCHAR 02A9
ENCODING 681
SWIDTH 792 0
DWIDTH 11 0
BBX 10 13 0 -3
BITMAP
7000
4000
4180
FEC0
4C40
4C40
4C40
4C40
4C40
4C40
0040
0040
00C0
ENDCHAR
STARTCHAR 02AA
ENCODING 682
SWIDTH 648 0
DWIDTH 9 0
BBX 8 10 1 0
BITMAP
80
80
88
BE
A2
B0
9E
83
C3
FE
ENDCHAR
STARTCHAR 02AB
ENCODING 683
SWIDTH 576 0
DWIDTH 8 0
BBX 7 10 1 0
BITMAP
80
80
80
FC
8C
88
90
A0
E0
FE
ENDCHAR
STARTCHAR 02AC
ENCODING 684
SWIDTH 504 0
DWIDTH 7 0
BBX 6 10 1 0
BITMAP
A4
B4
B8
D8
48
A4
B4
B8
D8
48
ENDCHAR
STARTCHAR 02AD
ENCODING 685
SWIDTH 504 0
DWIDTH 7 0
BBX 6 7 0 2
BITMAP
FC
84
00
00
00
FC
84
ENDCHAR
STARTCHAR 02AE
ENCODING 686
SWIDTH 576 0
DWIDTH 8 0
BBX 7 13 0 -3
BITMAP
C0
60
60
62
62
62
62
62
62
3E
02
02
02
ENDCHAR
STARTCHAR 02AF
ENCODING 687
SWIDTH 648 0
DWIDTH 9 0
BBX 8 13 0 -3
BITMAP
C0
60
60
62
62
62
62
62
62
3E
02
02
03
ENDCHAR
STARTCHAR 02B0
ENCODING 688
SWIDTH 360 0
DWIDTH 5 0
BBX 4 7 0 5
BITMAP
80
80
F0
90
90
90
90
ENDCHAR
STARTCHAR 02B1
ENCODING 689
SWIDTH 360 0
DWIDTH 5 0
BBX 4 7 0 5
BITMAP
40
80
F0
90
90
90
90
ENDCHAR
STARTCHAR 02B2
ENCODING 690
SWIDTH 144 0
DWIDTH 2 0
BBX 2 9 0 4
BITMAP
40
00
40
40
40
40
40
40
C0
ENDCHAR
STARTCHAR 02B3
ENCODING 691
SWIDTH 216 0
DWIDTH 3 0
BBX 3 5 0 5
BITMAP
A0
C0
80
80
80
ENDCHAR
STARTCHAR 02B4
ENCODING 692
SWIDTH 216 0
DWIDTH 3 0
BBX 3 5 0 5
BITMAP
20
20
20
20
E0
ENDCHAR
STARTCHAR 02B5
ENCODING 693
SWIDTH 288 0
DWIDTH 4 0
BBX 3 6 0 3
BITMAP
20
20
20
20
E0
20
ENDCHAR
STARTCHAR 02B6
ENCODING 694
SWIDTH 360 0
DWIDTH 5 0
BBX 3 5 1 5
BITMAP
A0
C0
A0
A0
C0
ENDCHAR
STARTCHAR 02B7
ENCODING 695
SWIDTH 504 0
DWIDTH 7 0
BBX 7 5 0 5
BITMAP
92
74
6C
6C
28
ENDCHAR
STARTCHAR 02B8
ENCODING 696
SWIDTH 360 0
DWIDTH 5 0
BBX 4 7 0 3
BITMAP
90
90
60
60
20
40
C0
ENDCHAR
STARTCHAR 02B9
ENCODING 697
SWIDTH 288 0
DWIDTH 4 0
BBX 2 3 1 6
BITMAP
40
C0
80
ENDCHAR
STARTCHAR 02BA
ENCODING 698
SWIDTH 432 0
DWIDTH 6 0
BBX 5 3 1 6
BITMAP
48
D8
90
ENDCHAR
STARTCHAR 02BB
ENCODING 699
SWIDTH 288 0
DWIDTH 4 0
BBX 2 4 1 7
BITMAP
40
80
C0
C0
ENDCHAR
STARTCHAR 02BC
ENCODING 700
SWIDTH 288 0
DWIDTH 4 0
BBX 2 4 1 6
BITMAP
C0
C0
40
80
ENDCHAR
STARTCHAR 02BD
ENCODING 701
SWIDTH 288 0
DWIDTH 4 0
BBX 2 4 1 6
BITMAP
C0
C0
80
40
ENDCHAR
STARTCHAR 02BE
ENCODING 702
SWIDTH 288 0
DWIDTH 4 0
BBX 1 3 1 8
BITMAP
80
80
80
ENDCHAR
STARTCHAR 02BF
ENCODING 703
SWIDTH 288 0
DWIDTH 4 0
BBX 1 2 1 9
BITMAP
80
80
ENDCHAR
STARTCHAR 02C0
ENCODING 704
SWIDTH 360 0
DWIDTH 5 0
BBX 4 5 0 6
BITMAP
60
90
10
30
20
ENDCHAR
STARTCHAR 02C1
ENCODING 705
SWIDTH 360 0
DWIDTH 5 0
BBX 4 5 0 6
BITMAP
60
90
80
60
20
ENDCHAR
STARTCHAR 02C2
ENCODING 706
SWIDTH 360 0
DWIDTH 5 0
BBX 2 2 1 8
BITMAP
C0
40
ENDCHAR
STARTCHAR 02C3
ENCODING 707
SWIDTH 360 0
DWIDTH 5 0
BBX 3 2 1 8
BITMAP
C0
E0
ENDCHAR
STARTCHAR 02C4
ENCODING 708
SWIDTH 360 0
DWIDTH 5 0
BBX 3 3 1 8
BITMAP
40
C0
20
ENDCHAR
STARTCHAR 02C5
ENCODING 709
SWIDTH 360 0
DWIDTH 5 0
BBX 3 3 1 8
BITMAP
20
C0
40
ENDCHAR
STARTCHAR 02C6
ENCODING 710
SWIDTH 360 0
DWIDTH 5 0
BBX 4 2 0 8
BITMAP
70
90
ENDCHAR
STARTCHAR 02C7
ENCODING 711
SWIDTH 360 0
DWIDTH 5 0
BBX 3 2 1 8
BITMAP
A0
C0
ENDCHAR
STARTCHAR 02C8
ENCODING 712
SWIDTH 288 0
DWIDTH 4 0
BBX 1 3 1 8
BITMAP
80
80
80
ENDCHAR
STARTCHAR 02C9
ENCODING 713
SWIDTH 360 0
DWIDTH 5 0
BBX 4 1 0 9
BITMAP
F0
ENDCHAR
STARTCHAR 02CA
ENCODING 714
SWIDTH 360 0
DWIDTH 5 0
BBX 3 2 1 8
BITMAP
60
80
ENDCHAR
STARTCHAR 02CB
ENCODING 715
SWIDTH 360 0
DWIDTH 5 0
BBX 2 2 1 8
BITMAP
80
40
ENDCHAR
STARTCHAR 02CC
ENCODING 716
SWIDTH 288 0
DWIDTH 4 0
BBX 1 3 1 -4
BITMAP
80
80
80
ENDCHAR
STARTCHAR 02CD
ENCODING 717
SWIDTH 360 0
DWIDTH 5 0
BBX 4 1 0 -2
BITMAP
F0
ENDCHAR
STARTCHAR 02CE
ENCODING 718
SWIDTH 360 0
DWIDTH 5 0
BBX 2 2 2 -3
BITMAP
80
40
ENDCHAR
STARTCHAR 02CF
ENCODING 719
SWIDTH 360 0
DWIDTH 5 0
BBX 2 2 1 -3
BITMAP
C0
80
ENDCHAR
STARTCHAR 02D0
ENCODING 720
SWIDTH 360 0
DWIDTH 5 0
BBX 1 8 2 0
BITMAP
80
80
00
00
00
00
80
80
ENDCHAR
STARTCHAR 02D1
ENCODING 721
SWIDTH 360 0
DWIDTH 5 0
BBX 1 2 2 6
BITMAP
80
80
ENDCHAR
STARTCHAR 02D2
ENCODING 722
SWIDTH 288 0
DWIDTH 4 0
BBX 2 3 1 0
BITMAP
80
40
80
ENDCHAR
STARTCHAR 02D3
ENCODING 723
SWIDTH 288 0
DWIDTH 4 0
BBX 1 1 1 1
BITMAP
80
ENDCHAR
STARTCHAR 02D4
ENCODING 724
SWIDTH 360 0
DWIDTH 5 0
BBX 5 4 0 2
BITMAP
20
20
20
F8
ENDCHAR
STARTCHAR 02D5
ENCODING 725
SWIDTH 360 0
DWIDTH 5 0
BBX 5 4 0 2
BITMAP
F8
20
20
20
ENDCHAR
STARTCHAR 02D6
ENCODING 726
SWIDTH 360 0
DWIDTH 5 0
BBX 5 4 0 2
BITMAP
20
20
F8
20
ENDCHAR
STARTCHAR 02D7
ENCODING 727
SWIDTH 360 0
DWIDTH 5 0
BBX 5 1 0 3
BITMAP
F8
ENDCHAR
STARTCHAR 02D8
ENCODING 728
SWIDTH 360 0
DWIDTH 5 0
BBX 4 2 0 8
BITMAP
D0
60
ENDCHAR
STARTCHAR 02D9
ENCODING 729
SWIDTH 360 0
DWIDTH 5 0
BBX 1 1 2 9
BITMAP
80
ENDCHAR
STARTCHAR 02DA
ENCODING 730
SWIDTH 360 0
DWIDTH 5 0
BBX 3 3 1 8
BITMAP
C0
A0
E0
ENDCHAR
STARTCHAR 02DB
ENCODING 731
SWIDTH 360 0
DWIDTH 5 0
BBX 3 3 1 -3
BITMAP
80
80
E0
ENDCHAR
STARTCHAR 02DC
ENCODING 732
SWIDTH 360 0
DWIDTH 5 0
BBX 4 1 0 9
BITMAP
F0
ENDCHAR
STARTCHAR 02DD
ENCODING 733
SWIDTH 360 0
DWIDTH 5 0
BBX 4 2 0 8
BITMAP
D0
A0
ENDCHAR
STARTCHAR 02DE
ENCODING 734
SWIDTH 360 0
DWIDTH 5 0
BBX 5 5 0 3
BITMAP
40
C0
28
28
10
ENDCHAR
STARTCHAR 02DF
ENCODING 735
SWIDTH 360 0
DWIDTH 5 0
BBX 4 3 0 8
BITMAP
D0
20
D0
ENDCHAR
STARTCHAR 02E0
ENCODING 736
SWIDTH 360 0
DWIDTH 5 0
BBX 4 7 0 3
BITMAP
90
50
60
20
20
60
60
ENDCHAR
STARTCHAR 02E1
ENCODING 737
SWIDTH 216 0
DWIDTH 3 0
BBX 1 7 1 5
BITMAP
80
80
80
80
80
80
80
ENDCHAR
STARTCHAR 02E2
ENCODING 738
SWIDTH 360 0
DWIDTH 5 0
BBX 4 5 0 6
BITMAP
70
90
60
10
70
ENDCHAR
STARTCHAR 02E3
ENCODING 739
SWIDTH 360 0
DWIDTH 5 0
BBX 4 5 0 5
BITMAP
90
60
20
60
90
ENDCHAR
STARTCHAR 02E4
ENCODING 740
SWIDTH 360 0
DWIDTH 5 0
BBX 4 6 0 5
BITMAP
F0
90
60
20
20
20
ENDCHAR
STARTCHAR 02E5
ENCODING 741
SWIDTH 504 0
DWIDTH 7 0
BBX 5 11 1 0
BITMAP
F8
08
08
08
08
08
08
08
08
08
08
ENDCHAR
STARTCHAR 02E6
ENCODING 742
SWIDTH 504 0
DWIDTH 7 0
BBX 5 11 1 0
BITMAP
08
08
F8
08
08
08
08
08
08
08
08
ENDCHAR
STARTCHAR 02E7
ENCODING 743
SWIDTH 504 0
DWIDTH 7 0
BBX 5 11 1 0
BITMAP
08
08
08
08
08
F8
08
08
08
08
08
ENDCHAR
STARTCHAR 02E8
ENCODING 744
SWIDTH 504 0
DWIDTH 7 0
BBX 5 11 1 0
BITMAP
08
08
08
08
08
08
08
08
F8
08
08
ENDCHAR
STARTCHAR 02E9
ENCODING 745
SWIDTH 504 0
DWIDTH 7 0
BBX 5 11 1 0
BITMAP
08
08
08
08
08
08
08
08
08
08
F8
ENDCHAR
STARTCHAR 02EA
ENCODING 746
SWIDTH 504 0
DWIDTH 7 0
BBX 6 8 1 0
BITMAP
80
80
80
80
80
80
80
FC
ENDCHAR
STARTCHAR 02EB
ENCODING 747
SWIDTH 504 0
DWIDTH 7 0
BBX 6 9 1 0
BITMAP
80
80
80
80
FC
80
80
80
80
ENDCHAR
STARTCHAR 02EC
ENCODING 748
SWIDTH 360 0
DWIDTH 5 0
BBX 3 2 1 -3
BITMAP
A0
40
ENDCHAR
STARTCHAR 02ED
ENCODING 749
SWIDTH 360 0
DWIDTH 5 0
BBX 4 3 0 8
BITMAP
F0
00
F0
ENDCHAR
STARTCHAR 02EE
ENCODING 750
SWIDTH 432 0
DWIDTH 6 0
BBX 4 3 1 7
BITMAP
B0
90
A0
ENDCHAR
STARTCHAR 02EF
ENCODING 751
SWIDTH 360 0
DWIDTH 5 0
BBX 3 3 1 -3
BITMAP
20
C0
40
ENDCHAR
STARTCHAR 02F0
ENCODING 752
SWIDTH 360 0
DWIDTH 5 0
BBX 3 3 1 -3
BITMAP
40
C0
20
ENDCHAR
STARTCHAR 02F1
ENCODING 753
SWIDTH 360 0
DWIDTH 5 0
BBX 2 2 1 -3
BITMAP
C0
C0
ENDCHAR
STARTCHAR 02F2
ENCODING 754
SWIDTH 360 0
DWIDTH 5 0
BBX 3 2 1 -3
BITMAP
C0
E0
ENDCHAR
STARTCHAR 02F3
ENCODING 755
SWIDTH 360 0
DWIDTH 5 0
BBX 3 3 1 -3
BITMAP
C0
A0
E0
ENDCHAR
STARTCHAR 02F4
ENCODING 756
SWIDTH 288 0
DWIDTH 4 0
BBX 2 2 1 5
BITMAP
80
40
ENDCHAR
STARTCHAR 02F5
ENCODING 757
SWIDTH 360 0
DWIDTH 5 0
BBX 5 2 0 5
BITMAP
D0
28
ENDCHAR
STARTCHAR 02F6
ENCODING 758
SWIDTH 360 0
DWIDTH 5 0
BBX 4 2 0 5
BITMAP
D0
A0
ENDCHAR
STARTCHAR 02F7
ENCODING 759
SWIDTH 360 0
DWIDTH 5 0
BBX 4 1 0 -2
BITMAP
F0
ENDCHAR
STARTCHAR 02F8
ENCODING 760
SWIDTH 288 0
DWIDTH 4 0
BBX 2 7 1 1
BITMAP
C0
00
00
00
00
00
C0
ENDCHAR
STARTCHAR 02F9
ENCODING 761
SWIDTH 216 0
DWIDTH 3 0
BBX 2 3 0 7
BITMAP
C0
80
80
ENDCHAR
STARTCHAR 02FA
ENCODING 762
SWIDTH 216 0
DWIDTH 3 0
BBX 2 3 0 7
BITMAP
C0
40
40
ENDCHAR
STARTCHAR 02FB
ENCODING 763
SWIDTH 216 0
DWIDTH 3 0
BBX 2 3 0 -1
BITMAP
80
80
C0
ENDCHAR
STARTCHAR 02FC
ENCODING 764
SWIDTH 216 0
DWIDTH 3 0
BBX 2 3 0 -1
BITMAP
40
40
C0
ENDCHAR
STARTCHAR 02FD
ENCODING 765
SWIDTH 360 0
DWIDTH 5 0
BBX 5 3 0 -3
BITMAP
98
98
F8
ENDCHAR
STARTCHAR 02FE
ENCODING 766
SWIDTH 360 0
DWIDTH 5 0
BBX 5 3 0 -3
BITMAP
80
80
F8
ENDCHAR
STARTCHAR 02FF
ENCODING 767
SWIDTH 360 0
DWIDTH 5 0
BBX 5 3 0 -3
BITMAP
40
F8
80
ENDCHAR
STARTCHAR 0300
ENCODING 768
SWIDTH 0 0
DWIDTH 0 0
BBX 2 1 -4 8
BITMAP
C0
ENDCHAR
STARTCHAR 0301
ENCODING 769
SWIDTH 0 0
DWIDTH 0 0
BBX 2 2 -3 8
BITMAP
C0
80
ENDCHAR
STARTCHAR 0302
ENCODING 770
SWIDTH 0 0
DWIDTH 0 0
BBX 4 2 -4 8
BITMAP
E0
90
ENDCHAR
STARTCHAR 0303
ENCODING 771
SWIDTH 0 0
DWIDTH 0 0
BBX 4 1 -4 9
BITMAP
F0
ENDCHAR
STARTCHAR 0304
ENCODING 772
SWIDTH 0 0
DWIDTH 0 0
BBX 4 1 -4 9
BITMAP
F0
ENDCHAR
STARTCHAR 0305
ENCODING 773
SWIDTH 0 0
DWIDTH 0 0
BBX 8 1 -6 9
BITMAP
FF
ENDCHAR
STARTCHAR 0306
ENCODING 774
SWIDTH 0 0
DWIDTH 0 0
BBX 4 2 -4 8
BITMAP
B0
60
ENDCHAR
STARTCHAR 0307
ENCODING 775
SWIDTH 0 0
DWIDTH 0 0
BBX 1 1 -3 9
BITMAP
80
ENDCHAR
STARTCHAR 0308
ENCODING 776
SWIDTH 0 0
DWIDTH 0 0
BBX 4 1 -4 9
BITMAP
B0
ENDCHAR
STARTCHAR 0309
ENCODING 777
SWIDTH 0 0
DWIDTH 0 0
BBX 2 3 -4 8
BITMAP
80
40
C0
ENDCHAR
STARTCHAR 030A
ENCODING 778
SWIDTH 0 0
DWIDTH 0 0
BBX 3 3 -4 8
BITMAP
60
A0
E0
ENDCHAR
STARTCHAR 030B
ENCODING 779
SWIDTH 0 0
DWIDTH 0 0
BBX 4 2 -4 8
BITMAP
B0
A0
ENDCHAR
STARTCHAR 030C
ENCODING 780
SWIDTH 0 0
DWIDTH 0 0
BBX 3 2 -4 8
BITMAP
A0
40
ENDCHAR
STARTCHAR 030D
ENCODING 781
SWIDTH 0 0
DWIDTH 0 0
BBX 1 3 -3 8
BITMAP
80
80
80
ENDCHAR
STARTCHAR 030E
ENCODING 782
SWIDTH 0 0
DWIDTH 0 0
BBX 3 3 -4 8
BITMAP
A0
A0
A0
ENDCHAR
STARTCHAR 030F
ENCODING 783
SWIDTH 0 0
DWIDTH 0 0
BBX 4 2 -5 8
BITMAP
A0
50
ENDCHAR
STARTCHAR 0310
ENCODING 784
SWIDTH 0 0
DWIDTH 0 0
BBX 4 3 -4 8
BITMAP
40
B0
60
ENDCHAR
STARTCHAR 0311
ENCODING 785
SWIDTH 0 0
DWIDTH 0 0
BBX 4 2 -4 8
BITMAP
E0
10
ENDCHAR
STARTCHAR 0312
ENCODING 786
SWIDTH 0 0
DWIDTH 0 0
BBX 1 2 -3 8
BITMAP
80
80
ENDCHAR
STARTCHAR 0313
ENCODING 787
SWIDTH 0 0
DWIDTH 0 0
BBX 1 2 -3 8
BITMAP
80
80
ENDCHAR
STARTCHAR 0314
ENCODING 788
SWIDTH 0 0
DWIDTH 0 0
BBX 1 2 -3 8
BITMAP
80
80
ENDCHAR
STARTCHAR 0315
ENCODING 789
SWIDTH 0 0
DWIDTH 0 0
BBX 1 2 0 8
BITMAP
80
80
ENDCHAR
STARTCHAR 0316
ENCODING 790
SWIDTH 0 0
DWIDTH 0 0
BBX 2 2 -4 -3
BITMAP
C0
40
ENDCHAR
STARTCHAR 0317
ENCODING 791
SWIDTH 0 0
DWIDTH 0 0
BBX 2 2 -3 -3
BITMAP
C0
80
ENDCHAR
STARTCHAR 0318
ENCODING 792
SWIDTH 0 0
DWIDTH 0 0
BBX 3 3 -4 -4
BITMAP
20
E0
20
ENDCHAR
STARTCHAR 0319
ENCODING 793
SWIDTH 0 0
DWIDTH 0 0
BBX 3 3 -4 -4
BITMAP
80
E0
80
ENDCHAR
STARTCHAR 031A
ENCODING 794
SWIDTH 0 0
DWIDTH 0 0
BBX 4 4 -3 6
BITMAP
F0
10
10
10
ENDCHAR
STARTCHAR 031B
ENCODING 795
SWIDTH 0 0
DWIDTH 0 0
BBX 3 3 -2 6
BITMAP
20
20
C0
ENDCHAR
STARTCHAR 031C
ENCODING 796
SWIDTH 0 0
DWIDTH 0 0
BBX 1 2 -3 -2
BITMAP
80
80
ENDCHAR
STARTCHAR 031D
ENCODING 797
SWIDTH 0 0
DWIDTH 0 0
BBX 3 2 -4 -3
BITMAP
40
E0
ENDCHAR
STARTCHAR 031E
ENCODING 798
SWIDTH 0 0
DWIDTH 0 0
BBX 3 2 -4 -3
BITMAP
E0
40
ENDCHAR
STARTCHAR 031F
ENCODING 799
SWIDTH 0 0
DWIDTH 0 0
BBX 3 3 -4 -4
BITMAP
40
E0
40
ENDCHAR
STARTCHAR 0320
ENCODING 800
SWIDTH 0 0
DWIDTH 0 0
BBX 4 1 -6 -2
BITMAP
F0
ENDCHAR
STARTCHAR 0321
ENCODING 801
SWIDTH 0 0
DWIDTH 0 0
BBX 2 4 -2 -3
BITMAP
40
40
40
C0
ENDCHAR
STARTCHAR 0322
ENCODING 802
SWIDTH 0 0
DWIDTH 0 0
BBX 2 4 -1 -3
BITMAP
80
80
80
C0
ENDCHAR
STARTCHAR 0323
ENCODING 803
SWIDTH 0 0
DWIDTH 0 0
BBX 2 1 -4 -2
BITMAP
C0
ENDCHAR
STARTCHAR 0324
ENCODING 804
SWIDTH 0 0
DWIDTH 0 0
BBX 4 1 -5 -2
BITMAP
B0
ENDCHAR
STARTCHAR 0325
ENCODING 805
SWIDTH 0 0
DWIDTH 0 0
BBX 3 3 -5 -4
BITMAP
E0
A0
40
ENDCHAR
STARTCHAR 0326
ENCODING 806
SWIDTH 0 0
DWIDTH 0 0
BBX 2 3 -4 -4
BITMAP
C0
40
80
ENDCHAR
STARTCHAR 0327
ENCODING 807
SWIDTH 0 0
DWIDTH 0 0
BBX 3 3 -5 -3
BITMAP
40
20
E0
ENDCHAR
STARTCHAR 0328
ENCODING 808
SWIDTH 0 0
DWIDTH 0 0
BBX 3 3 -4 -3
BITMAP
40
80
60
ENDCHAR
STARTCHAR 0329
ENCODING 809
SWIDTH 0 0
DWIDTH 0 0
BBX 1 3 -4 -4
BITMAP
80
80
80
ENDCHAR
STARTCHAR 032A
ENCODING 810
SWIDTH 0 0
DWIDTH 0 0
BBX 4 2 -4 -3
BITMAP
F0
90
ENDCHAR
STARTCHAR 032B
ENCODING 811
SWIDTH 0 0
DWIDTH 0 0
BBX 4 1 -4 -2
BITMAP
F0
ENDCHAR
STARTCHAR 032C
ENCODING 812
SWIDTH 0 0
DWIDTH 0 0
BBX 3 2 -4 -3
BITMAP
A0
40
ENDCHAR
STARTCHAR 032D
ENCODING 813
SWIDTH 0 0
DWIDTH 0 0
BBX 3 2 -4 -3
BITMAP
E0
A0
ENDCHAR
STARTCHAR 032E
ENCODING 814
SWIDTH 0 0
DWIDTH 0 0
BBX 4 2 -4 -3
BITMAP
90
E0
ENDCHAR
STARTCHAR 032F
ENCODING 815
SWIDTH 0 0
DWIDTH 0 0
BBX 4 2 -4 -3
BITMAP
E0
10
ENDCHAR
STARTCHAR 0330
ENCODING 816
SWIDTH 0 0
DWIDTH 0 0
BBX 4 2 -5 -3
BITMAP
D0
20
ENDCHAR
STARTCHAR 0331
ENCODING 817
SWIDTH 0 0
DWIDTH 0 0
BBX 4 1 -5 -2
BITMAP
F0
ENDCHAR
STARTCHAR 0332
ENCODING 818
SWIDTH 0 0
DWIDTH 0 0
BBX 7 1 -8 -3
BITMAP
FE
ENDCHAR
STARTCHAR 0333
ENCODING 819
SWIDTH 0 0
DWIDTH 0 0
BBX 7 1 -8 -3
BITMAP
FE
ENDCHAR
STARTCHAR 0334
ENCODING 820
SWIDTH 0 0
DWIDTH 0 0
BBX 4 1 -6 3
BITMAP
F0
ENDCHAR
STARTCHAR 0335
ENCODING 821
SWIDTH 0 0
DWIDTH 0 0
BBX 4 1 -6 3
BITMAP
F0
ENDCHAR
STARTCHAR 0336
ENCODING 822
SWIDTH 0 0
DWIDTH 0 0
BBX 7 1 -9 3
BITMAP
FE
ENDCHAR
STARTCHAR 0337
ENCODING 823
SWIDTH 0 0
DWIDTH 0 0
BBX 9 9 -9 0
BITMAP
0080
0100
0200
0400
0800
1000
2000
4000
8000
ENDCHAR
STARTCHAR 0338
ENCODING 824
SWIDTH 0 0
DWIDTH 0 0
BBX 9 11 -10 -1
BITMAP
0080
0100
0300
0200
0400
0800
1800
1000
2000
4000
C000
ENDCHAR
STARTCHAR 0339
ENCODING 825
SWIDTH 0 0
DWIDTH 0 0
BBX 2 3 -4 -4
BITMAP
80
40
80
ENDCHAR
STARTCHAR 033A
ENCODING 826
SWIDTH 0 0
DWIDTH 0 0
BBX 4 2 -5 -2
BITMAP
90
F0
ENDCHAR
STARTCHAR 033B
ENCODING 827
SWIDTH 0 0
DWIDTH 0 0
BBX 4 3 -5 -4
BITMAP
F0
90
F0
ENDCHAR
STARTCHAR 033C
ENCODING 828
SWIDTH 0 0
DWIDTH 0 0
BBX 4 1 -5 -2
BITMAP
F0
ENDCHAR
STARTCHAR 033D
ENCODING 829
SWIDTH 0 0
DWIDTH 0 0
BBX 3 2 -4 9
BITMAP
C0
A0
ENDCHAR
STARTCHAR 033E
ENCODING 830
SWIDTH 0 0
DWIDTH 0 0
BBX 1 4 -3 8
BITMAP
80
80
80
80
ENDCHAR
STARTCHAR 033F
ENCODING 831
SWIDTH 0 0
DWIDTH 0 0
BBX 8 1 -8 9
BITMAP
FF
ENDCHAR
STARTCHAR 0340
ENCODING 832
SWIDTH 0 0
DWIDTH 0 0
BBX 2 1 -4 8
BITMAP
C0
ENDCHAR
STARTCHAR 0341
ENCODING 833
SWIDTH 0 0
DWIDTH 0 0
BBX 2 2 -3 8
BITMAP
C0
80
ENDCHAR
STARTCHAR 0342
ENCODING 834
SWIDTH 0 0
DWIDTH 0 0
BBX 4 1 -5 9
BITMAP
F0
ENDCHAR
STARTCHAR 0343
ENCODING 835
SWIDTH 0 0
DWIDTH 0 0
BBX 1 2 -3 8
BITMAP
80
80
ENDCHAR
STARTCHAR 0344
ENCODING 836
SWIDTH 0 0
DWIDTH 0 0
BBX 5 2 -5 9
BITMAP
20
B8
ENDCHAR
STARTCHAR 0345
ENCODING 837
SWIDTH 0 0
DWIDTH 0 0
BBX 1 2 -4 -2
BITMAP
80
80
ENDCHAR
STARTCHAR 0346
ENCODING 838
SWIDTH 0 0
DWIDTH 0 0
BBX 4 2 -4 8
BITMAP
F0
90
ENDCHAR
STARTCHAR 0347
ENCODING 839
SWIDTH 0 0
DWIDTH 0 0
BBX 4 3 -5 -3
BITMAP
F0
00
F0
ENDCHAR
STARTCHAR 0348
ENCODING 840
SWIDTH 0 0
DWIDTH 0 0
BBX 3 3 -5 -4
BITMAP
A0
A0
A0
ENDCHAR
STARTCHAR 0349
ENCODING 841
SWIDTH 0 0
DWIDTH 0 0
BBX 2 2 -4 -3
BITMAP
C0
40
ENDCHAR
STARTCHAR 034A
ENCODING 842
SWIDTH 0 0
DWIDTH 0 0
BBX 4 3 -5 8
BITMAP
20
F0
40
ENDCHAR
STARTCHAR 034B
ENCODING 843
SWIDTH 0 0
DWIDTH 0 0
BBX 5 5 -6 8
BITMAP
30
30
68
90
60
ENDCHAR
STARTCHAR 034C
ENCODING 844
SWIDTH 0 0
DWIDTH 0 0
BBX 4 3 -5 8
BITMAP
F0
00
F0
ENDCHAR
STARTCHAR 034D
ENCODING 845
SWIDTH 0 0
DWIDTH 0 0
BBX 7 3 -8 -3
BITMAP
04
82
7C
ENDCHAR
STARTCHAR 034E
ENCODING 846
SWIDTH 0 0
DWIDTH 0 0
BBX 2 2 -5 -4
BITMAP
C0
80
ENDCHAR
STARTCHAR 034F
ENCODING 847
SWIDTH 0 0
DWIDTH 0 0
BBX 0 0 0 0
BITMAP
ENDCHAR
STARTCHAR 0350
ENCODING 848
SWIDTH 0 0
DWIDTH 0 0
BBX 3 2 -4 8
BITMAP
C0
E0
ENDCHAR
STARTCHAR 0351
ENCODING 849
SWIDTH 0 0
DWIDTH 0 0
BBX 1 1 -3 9
BITMAP
80
ENDCHAR
STARTCHAR 0352
ENCODING 850
SWIDTH 0 0
DWIDTH 0 0
BBX 4 3 -5 8
BITMAP
F0
90
60
ENDCHAR
STARTCHAR 0353
ENCODING 851
SWIDTH 0 0
DWIDTH 0 0
BBX 3 3 -6 -3
BITMAP
80
60
A0
ENDCHAR
STARTCHAR 0354
ENCODING 852
SWIDTH 0 0
DWIDTH 0 0
BBX 2 2 -5 -3
BITMAP
C0
C0
ENDCHAR
STARTCHAR 0355
ENCODING 853
SWIDTH 0 0
DWIDTH 0 0
BBX 2 2 -4 -3
BITMAP
80
C0
ENDCHAR
STARTCHAR 0356
ENCODING 854
SWIDTH 0 0
DWIDTH 0 0
BBX 5 2 -6 -3
BITMAP
D8
A8
ENDCHAR
STARTCHAR 0357
ENCODING 855
SWIDTH 0 0
DWIDTH 0 0
BBX 1 3 -3 8
BITMAP
80
80
80
ENDCHAR
STARTCHAR 0358
ENCODING 856
SWIDTH 0 0
DWIDTH 0 0
BBX 2 1 -5 9
BITMAP
C0
ENDCHAR
STARTCHAR 0359
ENCODING 857
SWIDTH 0 0
DWIDTH 0 0
BBX 2 3 -5 -4
BITMAP
80
C0
C0
ENDCHAR
STARTCHAR 035A
ENCODING 858
SWIDTH 0 0
DWIDTH 0 0
BBX 6 2 -7 -3
BITMAP
FC
DC
ENDCHAR
STARTCHAR 035B
ENCODING 859
SWIDTH 0 0
DWIDTH 0 0
BBX 3 3 -5 8
BITMAP
40
E0
20
ENDCHAR
STARTCHAR 035C
ENCODING 860
SWIDTH 0 0
DWIDTH 0 0
BBX 10 3 -5 -3
BITMAP
8040
4080
3F00
ENDCHAR
STARTCHAR 035D
ENCODING 861
SWIDTH 0 0
DWIDTH 0 0
BBX 10 3 -5 8
BITMAP
8040
4080
3F00
ENDCHAR
STARTCHAR 035E
ENCODING 862
SWIDTH 0 0
DWIDTH 0 0
BBX 8 1 -4 9
BITMAP
FF
ENDCHAR
STARTCHAR 035F
ENCODING 863
SWIDTH 0 0
DWIDTH 0 0
BBX 8 1 -4 -2
BITMAP
FF
ENDCHAR
STARTCHAR 0360
ENCODING 864
SWIDTH 0 0
DWIDTH 0 0
BBX 10 2 -5 8
BITMAP
7840
8780
ENDCHAR
STARTCHAR 0361
ENCODING 865
SWIDTH 0 0
DWIDTH 0 0
BBX 10 3 -5 8
BITMAP
3F00
4080
8040
ENDCHAR
STARTCHAR 0362
ENCODING 866
SWIDTH 0 0
DWIDTH 0 0
BBX 8 2 -4 -3
BITMAP
02
FF
ENDCHAR
STARTCHAR 0363
ENCODING 867
SWIDTH 0 0
DWIDTH 0 0
BBX 2 3 -5 8
BITMAP
C0
40
C0
ENDCHAR
STARTCHAR 0364
ENCODING 868
SWIDTH 0 0
DWIDTH 0 0
BBX 2 3 -5 8
BITMAP
C0
C0
80
ENDCHAR
STARTCHAR 0365
ENCODING 869
SWIDTH 0 0
DWIDTH 0 0
BBX 1 1 -4 10
BITMAP
80
ENDCHAR
STARTCHAR 0366
ENCODING 870
SWIDTH 0 0
DWIDTH 0 0
BBX 2 3 -5 8
BITMAP
C0
C0
C0
ENDCHAR
STARTCHAR 0367
ENCODING 871
SWIDTH 0 0
DWIDTH 0 0
BBX 2 3 -5 8
BITMAP
80
C0
C0
ENDCHAR
STARTCHAR 0368
ENCODING 872
SWIDTH 0 0
DWIDTH 0 0
BBX 3 3 -5 8
BITMAP
40
80
E0
ENDCHAR
STARTCHAR 0369
ENCODING 873
SWIDTH 0 0
DWIDTH 0 0
BBX 3 4 -5 8
BITMAP
20
60
A0
E0
ENDCHAR
STARTCHAR 036A
ENCODING 874
SWIDTH 0 0
DWIDTH 0 0
BBX 3 4 -5 8
BITMAP
80
C0
A0
A0
ENDCHAR
STARTCHAR 036B
ENCODING 875
SWIDTH 0 0
DWIDTH 0 0
BBX 4 3 -6 8
BITMAP
F0
D0
80
ENDCHAR
STARTCHAR 036C
ENCODING 876
SWIDTH 0 0
DWIDTH 0 0
BBX 1 1 -4 9
BITMAP
80
ENDCHAR
STARTCHAR 036D
ENCODING 877
SWIDTH 0 0
DWIDTH 0 0
BBX 1 4 -4 8
BITMAP
80
80
80
80
ENDCHAR
STARTCHAR 036E
ENCODING 878
SWIDTH 0 0
DWIDTH 0 0
BBX 2 3 -5 8
BITMAP
80
C0
40
ENDCHAR
STARTCHAR 036F
ENCODING 879
SWIDTH 0 0
DWIDTH 0 0
BBX 2 3 -5 8
BITMAP
80
40
C0
ENDCHAR
STARTCHAR 0374
ENCODING 884
SWIDTH 288 0
DWIDTH 4 0
BBX 2 3 1 6
BITMAP
40
C0
80
ENDCHAR
STARTCHAR 0375
ENCODING 885
SWIDTH 216 0
DWIDTH 3 0
BBX 1 2 1 -3
BITMAP
80
80
ENDCHAR
STARTCHAR 037A
ENCODING 890
SWIDTH 360 0
DWIDTH 5 0
BBX 2 2 2 -3
BITMAP
80
C0
ENDCHAR
STARTCHAR 037B
ENCODING 891
SWIDTH 432 0
DWIDTH 6 0
BBX 6 7 0 0
BITMAP
F8
08
0C
0C
0C
08
F8
ENDCHAR
STARTCHAR 037C
ENCODING 892
SWIDTH 432 0
DWIDTH 6 0
BBX 6 7 0 0
BITMAP
7C
40
D8
D8
40
40
3C
ENDCHAR
STARTCHAR 037D
ENCODING 893
SWIDTH 432 0
DWIDTH 6 0
BBX 6 7 0 0
BITMAP
F8
08
6C
6C
0C
08
F8
ENDCHAR
STARTCHAR 037E
ENCODING 894
SWIDTH 288 0
DWIDTH 4 0
BBX 2 9 1 -2
BITMAP
C0
00
00
00
00
00
C0
40
80
ENDCHAR
STARTCHAR 0384
ENCODING 900
SWIDTH 360 0
DWIDTH 5 0
BBX 2 2 2 8
BITMAP
C0
80
ENDCHAR
STARTCHAR 0385
ENCODING 901
SWIDTH 360 0
DWIDTH 5 0
BBX 5 2 0 9
BITMAP
30
B8
ENDCHAR
STARTCHAR 0386
ENCODING 902
SWIDTH 648 0
DWIDTH 9 0
BBX 9 10 0 0
BITMAP
4C00
9C00
1400
1600
2200
2300
7F00
4100
4180
C180
ENDCHAR
STARTCHAR 0387
ENCODING 903
SWIDTH 288 0
DWIDTH 4 0
BBX 2 1 1 6
BITMAP
C0
ENDCHAR
STARTCHAR 0388
ENCODING 904
SWIDTH 792 0
DWIDTH 11 0
BBX 11 10 0 0
BITMAP
5FC0
9800
1800
1800
1FC0
1800
1800
1800
1800
1FE0
ENDCHAR
STARTCHAR 0389
ENCODING 905
SWIDTH 864 0
DWIDTH 12 0
BBX 11 10 0 0
BITMAP
5820
9820
1820
1820
1FE0
1820
1820
1820
1820
1820
ENDCHAR
STARTCHAR 038A
ENCODING 906
SWIDTH 432 0
DWIDTH 6 0
BBX 5 10 0 0
BITMAP
58
98
18
18
18
18
18
18
18
18
ENDCHAR
STARTCHAR 038C
ENCODING 908
SWIDTH 864 0
DWIDTH 12 0
BBX 12 10 0 0
BITMAP
4FC0
9060
3020
2020
2030
2030
2020
3020
1860
0F80
ENDCHAR
STARTCHAR 038E
ENCODING 910
SWIDTH 936 0
DWIDTH 13 0
BBX 12 10 0 0
BITMAP
4830
8C20
0460
0240
0380
0180
0100
0100
0100
0100
ENDCHAR
STARTCHAR 038F
ENCODING 911
SWIDTH 792 0
DWIDTH 11 0
BBX 11 10 0 0
BITMAP
5F80
B0C0
2040
4060
4060
4040
6040
20C0
1180
79C0
ENDCHAR
STARTCHAR 0390
ENCODING 912
SWIDTH 288 0
DWIDTH 4 0
BBX 4 11 0 0
BITMAP
20
B0
40
00
40
40
40
40
40
40
70
ENDCHAR
STARTCHAR 0391
ENCODING 913
SWIDTH 648 0
DWIDTH 9 0
BBX 9 10 0 0
BITMAP
0C00
1C00
1400
1600
2200
2300
7F00
4100
4180
C180
ENDCHAR
STARTCHAR 0392
ENCODING 914
SWIDTH 648 0
DWIDTH 9 0
BBX 8 10 1 0
BITMAP
FE
82
82
82
FC
86
83
83
82
FE
ENDCHAR
STARTCHAR 0393
ENCODING 915
SWIDTH 576 0
DWIDTH 8 0
BBX 7 10 1 0
BITMAP
FE
80
80
80
80
80
80
80
80
80
ENDCHAR
STARTCHAR 0394
ENCODING 916
SWIDTH 720 0
DWIDTH 10 0
BBX 9 10 0 0
BITMAP
0C00
1C00
1600
1200
3200
2300
6100
6180
4080
FF80
ENDCHAR
STARTCHAR 0395
ENCODING 917
SWIDTH 648 0
DWIDTH 9 0
BBX 7 10 1 0
BITMAP
FE
80
80
80
FE
80
80
80
80
FE
ENDCHAR
STARTCHAR 0396
ENCODING 918
SWIDTH 648 0
DWIDTH 9 0
BBX 8 10 0 0
BITMAP
7F
03
06
04
08
18
30
60
40
FF
ENDCHAR
STARTCHAR 0397
ENCODING 919
SWIDTH 720 0
DWIDTH 10 0
BBX 8 10 1 0
BITMAP
81
81
81
81
FF
81
81
81
81
81
ENDCHAR
STARTCHAR 0398
ENCODING 920
SWIDTH 792 0
DWIDTH 11 0
BBX 9 10 1 0
BITMAP
3E00
4100
8080
8080
BE80
BE80
8080
8180
4100
3E00
ENDCHAR
STARTCHAR 0399
ENCODING 921
SWIDTH 288 0
DWIDTH 4 0
BBX 2 10 1 0
BITMAP
C0
C0
C0
C0
C0
C0
C0
C0
C0
C0
ENDCHAR
STARTCHAR 039A
ENCODING 922
SWIDTH 648 0
DWIDTH 9 0
BBX 8 10 1 0
BITMAP
83
84
88
90
B0
C8
8C
84
82
83
ENDCHAR
STARTCHAR 039B
ENCODING 923
SWIDTH 648 0
DWIDTH 9 0
BBX 9 10 0 0
BITMAP
0C00
1C00
1400
1600
3200
2300
6300
4100
4180
C180
ENDCHAR
STARTCHAR 039C
ENCODING 924
SWIDTH 864 0
DWIDTH 12 0
BBX 10 10 1 0
BITMAP
C0C0
E1C0
A1C0
A1C0
B2C0
92C0
92C0
9CC0
8CC0
8CC0
ENDCHAR
STARTCHAR 039D
ENCODING 925
SWIDTH 720 0
DWIDTH 10 0
BBX 8 10 1 0
BITMAP
C1
E1
A1
B1
99
89
8D
85
83
83
ENDCHAR
STARTCHAR 039E
ENCODING 926
SWIDTH 648 0
DWIDTH 9 0
BBX 7 10 1 0
BITMAP
FE
00
00
00
7C
00
00
00
00
FE
ENDCHAR
STARTCHAR 039F
ENCODING 927
SWIDTH 792 0
DWIDTH 11 0
BBX 9 10 1 0
BITMAP
3E00
4100
8080
8080
8080
8080
8080
8180
4100
3E00
ENDCHAR
STARTCHAR 03A0
ENCODING 928
SWIDTH 720 0
DWIDTH 10 0
BBX 8 10 1 0
BITMAP
FF
81
81
81
81
81
81
81
81
81
ENDCHAR
STARTCHAR 03A1
ENCODING 929
SWIDTH 648 0
DWIDTH 9 0
BBX 7 10 1 0
BITMAP
FE
82
82
82
86
FC
80
80
80
80
ENDCHAR
STARTCHAR 03A3
ENCODING 931
SWIDTH 648 0
DWIDTH 9 0
BBX 7 10 1 0
BITMAP
FE
C0
60
30
10
30
60
40
80
FE
ENDCHAR
STARTCHAR 03A4
ENCODING 932
SWIDTH 648 0
DWIDTH 9 0
BBX 8 10 0 0
BITMAP
FF
08
08
08
08
08
08
08
08
08
ENDCHAR
STARTCHAR 03A5
ENCODING 933
SWIDTH 648 0
DWIDTH 9 0
BBX 8 10 1 0
BITMAP
83
C2
46
24
38
18
10
10
10
10
ENDCHAR
STARTCHAR 03A6
ENCODING 934
SWIDTH 720 0
DWIDTH 10 0
BBX 9 10 1 0
BITMAP
0800
7E00
CB00
8980
8880
8980
8900
6B00
3C00
0800
ENDCHAR
STARTCHAR 03A7
ENCODING 935
SWIDTH 648 0
DWIDTH 9 0
BBX 8 10 1 0
BITMAP
82
46
6C
28
18
38
2C
44
C6
83
ENDCHAR
STARTCHAR 03A8
ENCODING 936
SWIDTH 792 0
DWIDTH 11 0
BBX 9 10 1 0
BITMAP
8880
8880
8880
8880
8880
8980
FF00
3E00
0800
0800
ENDCHAR
STARTCHAR 03A9
ENCODING 937
SWIDTH 792 0
DWIDTH 11 0
BBX 9 10 1 0
BITMAP
3E00
4300
8180
8080
8080
8080
8180
C100
6200
E780
ENDCHAR
STARTCHAR 03AA
ENCODING 938
SWIDTH 288 0
DWIDTH 4 0
BBX 4 13 0 0
BITMAP
B0
B0
00
60
60
60
60
60
60
60
60
60
60
ENDCHAR
STARTCHAR 03AB
ENCODING 939
SWIDTH 648 0
DWIDTH 9 0
BBX 8 13 1 0
BITMAP
2C
2C
00
83
C2
46
24
38
18
10
10
10
10
ENDCHAR
STARTCHAR 03AC
ENCODING 940
SWIDTH 576 0
DWIDTH 8 0
BBX 8 10 0 0
BITMAP
0C
08
00
7E
46
C2
C2
42
46
3F
ENDCHAR
STARTCHAR 03AD
ENCODING 941
SWIDTH 504 0
DWIDTH 7 0
BBX 7 10 0 0
BITMAP
0C
10
00
7C
C6
40
70
40
C4
7C
ENDCHAR
STARTCHAR 03AE
ENCODING 942
SWIDTH 576 0
DWIDTH 8 0
BBX 7 12 0 -3
BITMAP
0C
00
00
FC
46
42
42
42
42
42
02
02
ENDCHAR
STARTCHAR 03AF
ENCODING 943
SWIDTH 288 0
DWIDTH 4 0
BBX 3 10 1 0
BITMAP
60
80
00
80
80
80
80
80
80
E0
ENDCHAR
STARTCHAR 03B0
ENCODING 944
SWIDTH 576 0
DWIDTH 8 0
BBX 6 11 1 0
BITMAP
10
E8
20
00
84
84
84
84
84
8C
F8
ENDCHAR
STARTCHAR 03B1
ENCODING 945
SWIDTH 576 0
DWIDTH 8 0
BBX 8 7 0 0
BITMAP
7E
46
C2
C2
42
46
3F
ENDCHAR
STARTCHAR 03B2
ENCODING 946
SWIDTH 576 0
DWIDTH 8 0
BBX 6 13 1 -3
BITMAP
78
88
88
88
B0
8C
84
84
84
F8
80
80
80
ENDCHAR
STARTCHAR 03B3
ENCODING 947
SWIDTH 504 0
DWIDTH 7 0
BBX 7 10 0 -2
BITMAP
C2
64
24
2C
38
18
10
10
10
10
ENDCHAR
STARTCHAR 03B4
ENCODING 948
SWIDTH 576 0
DWIDTH 8 0
BBX 7 10 0 0
BITMAP
7E
30
18
3C
46
42
C2
C2
46
3C
ENDCHAR
STARTCHAR 03B5
ENCODING 949
SWIDTH 504 0
DWIDTH 7 0
BBX 7 7 0 0
BITMAP
7C
C6
40
70
40
C4
7C
ENDCHAR
STARTCHAR 03B6
ENCODING 950
SWIDTH 432 0
DWIDTH 6 0
BBX 6 13 0 -3
BITMAP
7C
18
30
60
40
40
C0
C0
60
3C
04
04
04
ENDCHAR
STARTCHAR 03B7
ENCODING 951
SWIDTH 576 0
DWIDTH 8 0
BBX 7 9 0 -3
BITMAP
FC
46
42
42
42
42
42
02
02
ENDCHAR
STARTCHAR 03B8
ENCODING 952
SWIDTH 504 0
DWIDTH 7 0
BBX 7 10 0 0
BITMAP
38
44
44
C6
FE
C6
C6
44
44
38
ENDCHAR
STARTCHAR 03B9
ENCODING 953
SWIDTH 288 0
DWIDTH 4 0
BBX 3 7 1 0
BITMAP
80
80
80
80
80
80
E0
ENDCHAR
STARTCHAR 03BA
ENCODING 954
SWIDTH 504 0
DWIDTH 7 0
BBX 6 7 1 0
BITMAP
98
B0
E0
F0
90
98
8C
ENDCHAR
STARTCHAR 03BB
ENCODING 955
SWIDTH 576 0
DWIDTH 8 0
BBX 7 10 0 0
BITMAP
60
30
10
10
28
28
6C
44
44
C6
ENDCHAR
STARTCHAR 03BC
ENCODING 956
SWIDTH 576 0
DWIDTH 8 0
BBX 6 10 1 -3
BITMAP
84
84
84
84
8C
CC
F4
80
80
80
ENDCHAR
STARTCHAR 03BD
ENCODING 957
SWIDTH 504 0
DWIDTH 7 0
BBX 6 7 0 0
BITMAP
C4
44
4C
68
28
38
10
ENDCHAR
STARTCHAR 03BE
ENCODING 958
SWIDTH 504 0
DWIDTH 7 0
BBX 6 13 0 -3
BITMAP
7C
60
40
40
3C
60
40
C0
40
7C
04
04
04
ENDCHAR
STARTCHAR 03BF
ENCODING 959
SWIDTH 576 0
DWIDTH 8 0
BBX 7 7 0 0
BITMAP
7C
42
C2
C2
42
46
3C
ENDCHAR
STARTCHAR 03C0
ENCODING 960
SWIDTH 576 0
DWIDTH 8 0
BBX 8 7 0 0
BITMAP
FF
62
62
62
62
62
63
ENDCHAR
STARTCHAR 03C1
ENCODING 961
SWIDTH 576 0
DWIDTH 8 0
BBX 7 10 1 -3
BITMAP
7C
C4
86
86
84
C4
F8
80
80
80
ENDCHAR
STARTCHAR 03C2
ENCODING 962
SWIDTH 576 0
DWIDTH 8 0
BBX 7 9 0 -2
BITMAP
7C
42
C0
C0
40
60
3E
02
06
ENDCHAR
STARTCHAR 03C3
ENCODING 963
SWIDTH 576 0
DWIDTH 8 0
BBX 8 7 0 0
BITMAP
7F
46
C2
C2
42
46
3C
ENDCHAR
STARTCHAR 03C4
ENCODING 964
SWIDTH 504 0
DWIDTH 7 0
BBX 7 7 0 0
BITMAP
FE
10
10
10
10
10
18
ENDCHAR
STARTCHAR 03C5
ENCODING 965
SWIDTH 576 0
DWIDTH 8 0
BBX 6 7 1 0
BITMAP
84
84
84
84
84
8C
F8
ENDCHAR
STARTCHAR 03C6
ENCODING 966
SWIDTH 720 0
DWIDTH 10 0
BBX 10 10 0 -3
BITMAP
2F00
4C80
4C80
CCC0
4C80
6D80
3F00
0C00
0C00
0C00
ENDCHAR
STARTCHAR 03C7
ENCODING 967
SWIDTH 576 0
DWIDTH 8 0
BBX 8 11 0 -3
BITMAP
80
C2
26
34
1C
18
18
3C
24
46
C3
ENDCHAR
STARTCHAR 03C8
ENCODING 968
SWIDTH 720 0
DWIDTH 10 0
BBX 8 10 1 -3
BITMAP
91
91
91
91
91
D3
7E
10
10
10
ENDCHAR
STARTCHAR 03C9
ENCODING 969
SWIDTH 720 0
DWIDTH 10 0
BBX 10 7 0 0
BITMAP
6180
4080
44C0
C440
C440
4C80
7B80
ENDCHAR
STARTCHAR 03CA
ENCODING 970
SWIDTH 288 0
DWIDTH 4 0
BBX 5 10 -1 0
BITMAP
D0
D0
00
20
20
20
20
20
20
38
ENDCHAR
STARTCHAR 03CB
ENCODING 971
SWIDTH 576 0
DWIDTH 8 0
BBX 6 10 1 0
BITMAP
58
58
00
84
84
84
84
84
8C
F8
ENDCHAR
STARTCHAR 03CC
ENCODING 972
SWIDTH 576 0
DWIDTH 8 0
BBX 7 10 0 0
BITMAP
0C
08
00
7C
42
C2
C2
42
46
3C
ENDCHAR
STARTCHAR 03CD
ENCODING 973
SWIDTH 576 0
DWIDTH 8 0
BBX 6 10 1 0
BITMAP
18
20
00
84
84
84
84
84
8C
F8
ENDCHAR
STARTCHAR 03CE
ENCODING 974
SWIDTH 720 0
DWIDTH 10 0
BBX 10 10 0 0
BITMAP
0200
0400
0000
6180
4080
44C0
C440
C440
4C80
7B80
ENDCHAR
STARTCHAR 03D1
ENCODING 977
SWIDTH 576 0
DWIDTH 8 0
BBX 7 10 0 0
BITMAP
3C
24
24
26
3E
06
C4
44
44
38
ENDCHAR
STARTCHAR 03D2
ENCODING 978
SWIDTH 720 0
DWIDTH 10 0
BBX 9 10 0 0
BITMAP
E380
2400
1C00
1800
1800
1800
1800
1800
1800
1800
ENDCHAR
STARTCHAR 03D3
ENCODING 979
SWIDTH 864 0
DWIDTH 12 0
BBX 12 10 0 0
BITMAP
58F0
8C80
0700
0300
0300
0300
0300
0300
0300
0300
ENDCHAR
STARTCHAR 03D4
ENCODING 980
SWIDTH 720 0
DWIDTH 10 0
BBX 9 13 0 0
BITMAP
3400
3400
0000
E380
2400
1C00
1800
1800
1800
1800
1800
1800
1800
ENDCHAR
STARTCHAR 03D5
ENCODING 981
SWIDTH 720 0
DWIDTH 10 0
BBX 9 13 0 -3
BITMAP
0C00
0C00
0C00
7F00
4C80
CC80
CC80
4C80
6D80
3F00
0C00
0C00
0C00
ENDCHAR
STARTCHAR 03D6
ENCODING 982
SWIDTH 720 0
DWIDTH 10 0
BBX 10 7 0 0
BITMAP
FFC0
4080
44C0
C440
C440
4C80
7B80
ENDCHAR
STARTCHAR 03D7
ENCODING 983
SWIDTH 576 0
DWIDTH 8 0
BBX 8 10 0 -3
BITMAP
E2
14
18
18
38
68
47
03
03
06
ENDCHAR
STARTCHAR 03F0
ENCODING 1008
SWIDTH 576 0
DWIDTH 8 0
BBX 8 8 0 0
BITMAP
20
F2
14
1C
18
38
68
4F
ENDCHAR
STARTCHAR 03F1
ENCODING 1009
SWIDTH 576 0
DWIDTH 8 0
BBX 7 10 1 -3
BITMAP
7C
C4
86
86
86
C4
F8
80
FC
30
ENDCHAR
STARTCHAR 03F2
ENCODING 1010
SWIDTH 432 0
DWIDTH 6 0
BBX 6 7 0 0
BITMAP
7C
40
C0
C0
40
40
3C
ENDCHAR
STARTCHAR 03F3
ENCODING 1011
SWIDTH 216 0
DWIDTH 3 0
BBX 2 13 0 -3
BITMAP
40
00
00
40
40
40
40
40
40
40
40
40
C0
ENDCHAR
STARTCHAR 03F4
ENCODING 1012
SWIDTH 792 0
DWIDTH 11 0
BBX 9 10 1 0
BITMAP
3E00
4100
8080
8080
8080
FF80
8080
8080
4100
3E00
ENDCHAR
STARTCHAR 03F5
ENCODING 1013
SWIDTH 288 0
DWIDTH 4 0
BBX 4 7 0 0
BITMAP
70
40
C0
F0
40
40
30
ENDCHAR
STARTCHAR 03F6
ENCODING 1014
SWIDTH 288 0
DWIDTH 4 0
BBX 3 7 1 0
BITMAP
C0
60
20
E0
20
60
C0
ENDCHAR
STARTCHAR 03F9
ENCODING 1017
SWIDTH 648 0
DWIDTH 9 0
BBX 7 10 1 0
BITMAP
7E
40
80
80
80
80
80
80
40
7E
ENDCHAR
STARTCHAR 03FD
ENCODING 1021
SWIDTH 648 0
DWIDTH 9 0
BBX 8 10 0 0
BITMAP
FC
06
03
01
01
01
01
03
02
FC
ENDCHAR
STARTCHAR 03FE
ENCODING 1022
SWIDTH 648 0
DWIDTH 9 0
BBX 7 10 1 0
BITMAP
7E
40
80
80
88
88
80
80
40
7E
ENDCHAR
STARTCHAR 03FF
ENCODING 1023
SWIDTH 648 0
DWIDTH 9 0
BBX 8 10 0 0
BITMAP
FC
06
03
01
11
11
01
03
02
FC
ENDCHAR
STARTCHAR 0400
ENCODING 1024
SWIDTH 648 0
DWIDTH 9 0
BBX 7 13 1 0
BITMAP
30
10
08
FE
80
80
80
FE
80
80
80
80
FE
ENDCHAR
STARTCHAR 0401
ENCODING 1025
SWIDTH 648 0
DWIDTH 9 0
BBX 7 13 1 0
BITMAP
2C
2C
00
FE
80
80
80
FE
80
80
80
80
FE
ENDCHAR
STARTCHAR 0402
ENCODING 1026
SWIDTH 792 0
DWIDTH 11 0
BBX 10 12 0 -2
BITMAP
FE00
1800
1800
1800
1FC0
1840
1840
1840
1840
1840
0040
01C0
ENDCHAR
STARTCHAR 0403
ENCODING 1027
SWIDTH 576 0
DWIDTH 8 0
BBX 7 13 1 0
BITMAP
08
10
00
FE
80
80
80
80
80
80
80
80
80
ENDCHAR
STARTCHAR 0404
ENCODING 1028
SWIDTH 720 0
DWIDTH 10 0
BBX 8 10 1 0
BITMAP
7E
43
81
80
FC
80
81
81
43
7E
ENDCHAR
STARTCHAR 0405
ENCODING 1029
SWIDTH 648 0
DWIDTH 9 0
BBX 8 10 1 0
BITMAP
7C
C2
82
C0
78
0E
03
83
C2
7E
ENDCHAR
STARTCHAR 0406
ENCODING 1030
SWIDTH 288 0
DWIDTH 4 0
BBX 2 10 1 0
BITMAP
C0
C0
C0
C0
C0
C0
C0
C0
C0
C0
ENDCHAR
STARTCHAR 0407
ENCODING 1031
SWIDTH 288 0
DWIDTH 4 0
BBX 4 13 0 0
BITMAP
D0
D0
00
60
60
60
60
60
60
60
60
60
60
ENDCHAR
STARTCHAR 0408
ENCODING 1032
SWIDTH 504 0
DWIDTH 7 0
BBX 6 10 0 0
BITMAP
04
04
04
04
04
04
04
C4
44
78
ENDCHAR
STARTCHAR 0409
ENCODING 1033
SWIDTH 1008 0
DWIDTH 14 0
BBX 14 10 0 0
BITMAP
3F00
2300
2300
2300
23F0
2318
230C
230C
4308
C3F0
ENDCHAR
STARTCHAR 040A
ENCODING 1034
SWIDTH 1008 0
DWIDTH 14 0
BBX 13 10 1 0
BITMAP
8200
8200
8200
8200
FFE0
8230
8218
8218
8210
83E0
ENDCHAR
STARTCHAR 040B
ENCODING 1035
SWIDTH 792 0
DWIDTH 11 0
BBX 10 10 0 0
BITMAP
FE00
1800
1800
1800
1FC0
1840
1840
1840
1840
1840
ENDCHAR
STARTCHAR 040C
ENCODING 1036
SWIDTH 648 0
DWIDTH 9 0
BBX 7 13 1 0
BITMAP
0C
10
00
86
8C
98
B0
E0
A0
90
88
84
86
ENDCHAR
STARTCHAR 040D
ENCODING 1037
SWIDTH 720 0
DWIDTH 10 0
BBX 8 13 1 0
BITMAP
30
08
00
83
83
85
8D
89
91
B1
A1
E1
C1
ENDCHAR
STARTCHAR 040E
ENCODING 1038
SWIDTH 648 0
DWIDTH 9 0
BBX 7 13 1 0
BITMAP
44
38
00
82
C6
44
6C
28
38
10
30
20
60
ENDCHAR
STARTCHAR 040F
ENCODING 1039
SWIDTH 720 0
DWIDTH 10 0
BBX 8 12 1 -2
BITMAP
81
81
81
81
81
81
81
81
81
FF
18
18
ENDCHAR
STARTCHAR 0410
ENCODING 1040
SWIDTH 648 0
DWIDTH 9 0
BBX 9 10 0 0
BITMAP
0C00
1C00
1400
1600
2200
2300
7F00
4100
4180
C180
ENDCHAR
STARTCHAR 0411
ENCODING 1041
SWIDTH 648 0
DWIDTH 9 0
BBX 8 10 1 0
BITMAP
FE
80
80
80
FE
82
83
83
82
FE
ENDCHAR
STARTCHAR 0412
ENCODING 1042
SWIDTH 648 0
DWIDTH 9 0
BBX 8 10 1 0
BITMAP
FE
82
82
82
FC
86
83
83
82
FE
ENDCHAR
STARTCHAR 0413
ENCODING 1043
SWIDTH 576 0
DWIDTH 8 0
BBX 7 10 1 0
BITMAP
FE
80
80
80
80
80
80
80
80
80
ENDCHAR
STARTCHAR 0414
ENCODING 1044
SWIDTH 792 0
DWIDTH 11 0
BBX 11 12 0 -2
BITMAP
1FC0
18C0
18C0
18C0
18C0
18C0
10C0
10C0
30C0
FFE0
C020
C020
ENDCHAR
STARTCHAR 0415
ENCODING 1045
SWIDTH 648 0
DWIDTH 9 0
BBX 7 10 1 0
BITMAP
FE
80
80
80
FE
80
80
80
80
FE
ENDCHAR
STARTCHAR 0416
ENCODING 1046
SWIDTH 936 0
DWIDTH 13 0
BBX 11 10 1 0
BITMAP
C460
64C0
3580
1500
0E00
1F00
3580
6480
4440
8420
ENDCHAR
STARTCHAR 0417
ENCODING 1047
SWIDTH 648 0
DWIDTH 9 0
BBX 8 10 1 0
BITMAP
7C
C2
82
06
3C
3E
02
83
82
7C
ENDCHAR
STARTCHAR 0418
ENCODING 1048
SWIDTH 720 0
DWIDTH 10 0
BBX 8 10 1 0
BITMAP
83
83
85
8D
89
91
B1
A1
E1
C1
ENDCHAR
STARTCHAR 0419
ENCODING 1049
SWIDTH 720 0
DWIDTH 10 0
BBX 8 13 1 0
BITMAP
24
3C
00
83
83
85
8D
89
91
B1
A1
E1
C1
ENDCHAR
STARTCHAR 041A
ENCODING 1050
SWIDTH 648 0
DWIDTH 9 0
BBX 7 10 1 0
BITMAP
86
8C
98
B0
E0
A0
90
88
84
86
ENDCHAR
STARTCHAR 041B
ENCODING 1051
SWIDTH 648 0
DWIDTH 9 0
BBX 8 10 0 0
BITMAP
3F
21
21
21
21
21
21
21
61
C1
ENDCHAR
STARTCHAR 041C
ENCODING 1052
SWIDTH 864 0
DWIDTH 12 0
BBX 10 10 1 0
BITMAP
C0C0
E1C0
A1C0
A1C0
B2C0
92C0
92C0
9CC0
8CC0
8CC0
ENDCHAR
STARTCHAR 041D
ENCODING 1053
SWIDTH 720 0
DWIDTH 10 0
BBX 8 10 1 0
BITMAP
81
81
81
81
FF
81
81
81
81
81
ENDCHAR
STARTCHAR 041E
ENCODING 1054
SWIDTH 792 0
DWIDTH 11 0
BBX 9 10 1 0
BITMAP
3E00
4100
8080
8080
8080
8080
8080
8180
4100
3E00
ENDCHAR
STARTCHAR 041F
ENCODING 1055
SWIDTH 720 0
DWIDTH 10 0
BBX 8 10 1 0
BITMAP
FF
81
81
81
81
81
81
81
81
81
ENDCHAR
STARTCHAR 0420
ENCODING 1056
SWIDTH 648 0
DWIDTH 9 0
BBX 7 10 1 0
BITMAP
FE
82
82
82
86
FC
80
80
80
80
ENDCHAR
STARTCHAR 0421
ENCODING 1057
SWIDTH 720 0
DWIDTH 10 0
BBX 8 10 1 0
BITMAP
7E
43
81
80
80
80
81
81
43
7E
ENDCHAR
STARTCHAR 0422
ENCODING 1058
SWIDTH 648 0
DWIDTH 9 0
BBX 8 10 0 0
BITMAP
FF
08
08
08
08
08
08
08
08
08
ENDCHAR
STARTCHAR 0423
ENCODING 1059
SWIDTH 648 0
DWIDTH 9 0
BBX 7 10 1 0
BITMAP
82
C6
44
6C
28
38
10
30
20
60
ENDCHAR
STARTCHAR 0424
ENCODING 1060
SWIDTH 864 0
DWIDTH 12 0
BBX 10 10 1 0
BITMAP
0C00
3F00
EDC0
8C40
8C40
8C40
8CC0
FF80
3F00
0C00
ENDCHAR
STARTCHAR 0425
ENCODING 1061
SWIDTH 648 0
DWIDTH 9 0
BBX 8 10 1 0
BITMAP
82
46
6C
28
18
38
2C
44
C6
83
ENDCHAR
STARTCHAR 0426
ENCODING 1062
SWIDTH 720 0
DWIDTH 10 0
BBX 9 12 1 -2
BITMAP
8100
8100
8100
8100
8100
8100
8100
8100
8100
FF80
0080
0080
ENDCHAR
STARTCHAR 0427
ENCODING 1063
SWIDTH 648 0
DWIDTH 9 0
BBX 7 10 1 0
BITMAP
86
86
86
86
86
FE
06
06
06
06
ENDCHAR
STARTCHAR 0428
ENCODING 1064
SWIDTH 864 0
DWIDTH 12 0
BBX 10 10 1 0
BITMAP
88C0
88C0
88C0
88C0
88C0
88C0
88C0
88C0
88C0
FFC0
ENDCHAR
STARTCHAR 0429
ENCODING 1065
SWIDTH 864 0
DWIDTH 12 0
BBX 10 12 1 -2
BITMAP
88C0
88C0
88C0
88C0
88C0
88C0
88C0
88C0
88C0
FFC0
0040
0040
ENDCHAR
STARTCHAR 042A
ENCODING 1066
SWIDTH 864 0
DWIDTH 12 0
BBX 11 10 0 0
BITMAP
F800
0800
0800
0800
0FC0
0820
0820
0820
0860
0FC0
ENDCHAR
STARTCHAR 042B
ENCODING 1067
SWIDTH 864 0
DWIDTH 12 0
BBX 10 10 1 0
BITMAP
8040
8040
8040
8040
FE40
8240
8340
8340
8240
FC40
ENDCHAR
STARTCHAR 042C
ENCODING 1068
SWIDTH 648 0
DWIDTH 9 0
BBX 8 10 1 0
BITMAP
80
80
80
80
FE
82
83
83
82
FC
ENDCHAR
STARTCHAR 042D
ENCODING 1069
SWIDTH 720 0
DWIDTH 10 0
BBX 8 10 1 0
BITMAP
7E
C2
81
01
3F
01
81
81
C2
7C
ENDCHAR
STARTCHAR 042E
ENCODING 1070
SWIDTH 1008 0
DWIDTH 14 0
BBX 12 10 1 0
BITMAP
87E0
8C20
8810
9810
F010
9010
9810
8810
8C20
87C0
ENDCHAR
STARTCHAR 042F
ENCODING 1071
SWIDTH 720 0
DWIDTH 10 0
BBX 7 10 1 0
BITMAP
7E
C2
82
82
7E
3E
32
62
42
82
ENDCHAR
STARTCHAR 0430
ENCODING 1072
SWIDTH 576 0
DWIDTH 8 0
BBX 7 8 0 0
BITMAP
10
7C
44
04
7C
C4
C4
7E
ENDCHAR
STARTCHAR 0431
ENCODING 1073
SWIDTH 504 0
DWIDTH 7 0
BBX 7 11 0 0
BITMAP
04
3C
60
50
7C
46
C2
C2
42
46
7C
ENDCHAR
STARTCHAR 0432
ENCODING 1074
SWIDTH 504 0
DWIDTH 7 0
BBX 5 7 1 0
BITMAP
F8
88
98
F8
88
88
F8
ENDCHAR
STARTCHAR 0433
ENCODING 1075
SWIDTH 360 0
DWIDTH 5 0
BBX 4 7 1 0
BITMAP
F0
80
80
80
80
80
80
ENDCHAR
STARTCHAR 0434
ENCODING 1076
SWIDTH 576 0
DWIDTH 8 0
BBX 8 9 0 -2
BITMAP
3E
22
22
22
22
22
FF
81
81
ENDCHAR
STARTCHAR 0435
ENCODING 1077
SWIDTH 504 0
DWIDTH 7 0
BBX 7 8 0 0
BITMAP
10
7C
46
C2
FE
40
46
3C
ENDCHAR
STARTCHAR 0436
ENCODING 1078
SWIDTH 792 0
DWIDTH 11 0
BBX 9 7 1 0
BITMAP
C980
6A00
3C00
1C00
2A00
4900
8880
ENDCHAR
STARTCHAR 0437
ENCODING 1079
SWIDTH 504 0
DWIDTH 7 0
BBX 5 8 1 0
BITMAP
20
F8
88
18
38
08
88
F8
ENDCHAR
STARTCHAR 0438
ENCODING 1080
SWIDTH 576 0
DWIDTH 8 0
BBX 6 7 1 0
BITMAP
8C
94
94
A4
A4
C4
C4
ENDCHAR
STARTCHAR 0439
ENCODING 1081
SWIDTH 576 0
DWIDTH 8 0
BBX 6 10 1 0
BITMAP
48
70
00
8C
94
94
A4
A4
C4
C4
ENDCHAR
STARTCHAR 043A
ENCODING 1082
SWIDTH 504 0
DWIDTH 7 0
BBX 5 7 1 0
BITMAP
98
A0
C0
C0
A0
90
88
ENDCHAR
STARTCHAR 043B
ENCODING 1083
SWIDTH 504 0
DWIDTH 7 0
BBX 6 7 0 0
BITMAP
7C
64
64
44
44
44
C4
ENDCHAR
STARTCHAR 043C
ENCODING 1084
SWIDTH 576 0
DWIDTH 8 0
BBX 7 7 1 0
BITMAP
C6
CE
CE
BE
B6
B6
86
ENDCHAR
STARTCHAR 043D
ENCODING 1085
SWIDTH 576 0
DWIDTH 8 0
BBX 6 7 1 0
BITMAP
84
84
84
FC
84
84
84
ENDCHAR
STARTCHAR 043E
ENCODING 1086
SWIDTH 504 0
DWIDTH 7 0
BBX 7 8 0 0
BITMAP
10
7C
46
C2
C2
42
46
7C
ENDCHAR
STARTCHAR 043F
ENCODING 1087
SWIDTH 576 0
DWIDTH 8 0
BBX 6 7 1 0
BITMAP
FC
8C
8C
8C
8C
8C
8C
ENDCHAR
STARTCHAR 0440
ENCODING 1088
SWIDTH 576 0
DWIDTH 8 0
BBX 6 11 1 -3
BITMAP
10
FC
84
84
84
84
C4
F8
80
80
80
ENDCHAR
STARTCHAR 0441
ENCODING 1089
SWIDTH 504 0
DWIDTH 7 0
BBX 7 8 0 0
BITMAP
10
7C
44
C0
C0
46
44
7C
ENDCHAR
STARTCHAR 0442
ENCODING 1090
SWIDTH 432 0
DWIDTH 6 0
BBX 5 7 0 0
BITMAP
F8
20
20
20
20
20
20
ENDCHAR
STARTCHAR 0443
ENCODING 1091
SWIDTH 504 0
DWIDTH 7 0
BBX 6 10 0 -3
BITMAP
C4
44
4C
68
28
30
30
30
20
60
ENDCHAR
STARTCHAR 0444
ENCODING 1092
SWIDTH 864 0
DWIDTH 12 0
BBX 11 12 0 -3
BITMAP
0600
1680
7FE0
4620
C620
C620
C620
4620
7FE0
0600
0600
0600
ENDCHAR
STARTCHAR 0445
ENCODING 1093
SWIDTH 504 0
DWIDTH 7 0
BBX 6 7 0 0
BITMAP
44
28
30
10
28
4C
C4
ENDCHAR
STARTCHAR 0446
ENCODING 1094
SWIDTH 576 0
DWIDTH 8 0
BBX 7 9 1 -2
BITMAP
8C
8C
8C
8C
8C
8C
FE
02
02
ENDCHAR
STARTCHAR 0447
ENCODING 1095
SWIDTH 504 0
DWIDTH 7 0
BBX 5 7 1 0
BITMAP
88
88
88
F8
08
08
08
ENDCHAR
STARTCHAR 0448
ENCODING 1096
SWIDTH 648 0
DWIDTH 9 0
BBX 8 7 1 0
BITMAP
93
93
93
93
93
93
FF
ENDCHAR
STARTCHAR 0449
ENCODING 1097
SWIDTH 720 0
DWIDTH 10 0
BBX 8 9 1 -2
BITMAP
93
93
93
93
93
93
FF
01
01
ENDCHAR
STARTCHAR 044A
ENCODING 1098
SWIDTH 648 0
DWIDTH 9 0
BBX 9 7 0 0
BITMAP
F000
1000
1E00
1100
1180
1100
1F00
ENDCHAR
STARTCHAR 044B
ENCODING 1099
SWIDTH 720 0
DWIDTH 10 0
BBX 8 7 1 0
BITMAP
83
83
F3
8B
8F
8B
FB
ENDCHAR
STARTCHAR 044C
ENCODING 1100
SWIDTH 504 0
DWIDTH 7 0
BBX 6 7 1 0
BITMAP
80
80
F0
88
8C
88
F8
ENDCHAR
STARTCHAR 044D
ENCODING 1101
SWIDTH 504 0
DWIDTH 7 0
BBX 7 8 0 0
BITMAP
10
7C
44
06
3E
C6
44
7C
ENDCHAR
STARTCHAR 044E
ENCODING 1102
SWIDTH 720 0
DWIDTH 10 0
BBX 9 8 1 0
BITMAP
0400
9F00
9180
B080
F080
B080
9180
9F00
ENDCHAR
STARTCHAR 044F
ENCODING 1103
SWIDTH 504 0
DWIDTH 7 0
BBX 6 7 1 0
BITMAP
FC
8C
8C
7C
6C
4C
8C
ENDCHAR
STARTCHAR 0450
ENCODING 1104
SWIDTH 504 0
DWIDTH 7 0
BBX 7 10 0 0
BITMAP
30
08
10
7C
46
C2
FE
40
46
3C
ENDCHAR
STARTCHAR 0451
ENCODING 1105
SWIDTH 504 0
DWIDTH 7 0
BBX 7 10 0 0
BITMAP
24
00
10
7C
46
C2
FE
40
46
3C
ENDCHAR
STARTCHAR 0452
ENCODING 1106
SWIDTH 576 0
DWIDTH 8 0
BBX 7 12 0 -2
BITMAP
60
F8
60
7E
62
62
62
62
62
62
06
0C
ENDCHAR
STARTCHAR 0453
ENCODING 1107
SWIDTH 360 0
DWIDTH 5 0
BBX 4 10 1 0
BITMAP
20
40
00
F0
80
80
80
80
80
80
ENDCHAR
STARTCHAR 0454
ENCODING 1108
SWIDTH 504 0
DWIDTH 7 0
BBX 7 8 0 0
BITMAP
10
7C
44
C0
F8
46
44
7C
ENDCHAR
STARTCHAR 0455
ENCODING 1109
SWIDTH 504 0
DWIDTH 7 0
BBX 5 8 1 0
BITMAP
20
F8
88
C0
78
08
88
F8
ENDCHAR
STARTCHAR 0456
ENCODING 1110
SWIDTH 216 0
DWIDTH 3 0
BBX 1 10 1 0
BITMAP
80
00
00
80
80
80
80
80
80
80
ENDCHAR
STARTCHAR 0457
ENCODING 1111
SWIDTH 288 0
DWIDTH 4 0
BBX 4 10 0 0
BITMAP
B0
B0
00
40
40
40
40
40
40
40
ENDCHAR
STARTCHAR 0458
ENCODING 1112
SWIDTH 216 0
DWIDTH 3 0
BBX 2 13 0 -3
BITMAP
40
00
00
40
40
40
40
40
40
40
40
40
C0
ENDCHAR
STARTCHAR 0459
ENCODING 1113
SWIDTH 792 0
DWIDTH 11 0
BBX 11 7 0 0
BITMAP
7C00
6400
6400
47C0
4460
4460
C7C0
ENDCHAR
STARTCHAR 045A
ENCODING 1114
SWIDTH 864 0
DWIDTH 12 0
BBX 10 7 1 0
BITMAP
8400
8400
8400
FFC0
8440
8440
8780
ENDCHAR
STARTCHAR 045B
ENCODING 1115
SWIDTH 576 0
DWIDTH 8 0
BBX 7 10 0 0
BITMAP
60
F8
60
7E
62
62
62
62
62
62
ENDCHAR
STARTCHAR 045C
ENCODING 1116
SWIDTH 504 0
DWIDTH 7 0
BBX 5 10 1 0
BITMAP
30
00
00
98
A0
C0
C0
A0
90
88
ENDCHAR
STARTCHAR 045D
ENCODING 1117
SWIDTH 576 0
DWIDTH 8 0
BBX 6 10 1 0
BITMAP
60
10
00
8C
94
94
A4
A4
C4
C4
ENDCHAR
STARTCHAR 045E
ENCODING 1118
SWIDTH 504 0
DWIDTH 7 0
BBX 6 13 0 -3
BITMAP
48
38
00
C4
44
4C
68
28
30
30
30
20
60
ENDCHAR
STARTCHAR 045F
ENCODING 1119
SWIDTH 576 0
DWIDTH 8 0
BBX 6 9 1 -2
BITMAP
84
84
84
84
84
84
FC
20
20
ENDCHAR
STARTCHAR 0460
ENCODING 1120
SWIDTH 936 0
DWIDTH 13 0
BBX 13 10 0 0
BITMAP
C218
C218
C218
4210
4710
4530
6D30
2DA0
38E0
18C0
ENDCHAR
STARTCHAR 0461
ENCODING 1121
SWIDTH 720 0
DWIDTH 10 0
BBX 9 7 0 0
BITMAP
8880
8880
CC80
4C80
5D80
7700
3300
ENDCHAR
STARTCHAR 0462
ENCODING 1122
SWIDTH 792 0
DWIDTH 11 0
BBX 11 10 0 0
BITMAP
1800
FE00
1800
1800
1FC0
1860
1820
1860
1840
1F80
ENDCHAR
STARTCHAR 0463
ENCODING 1123
SWIDTH 648 0
DWIDTH 9 0
BBX 8 9 0 0
BITMAP
10
10
FC
10
1E
11
11
11
1F
ENDCHAR
STARTCHAR 0464
ENCODING 1124
SWIDTH 936 0
DWIDTH 13 0
BBX 12 10 1 0
BITMAP
C7C0
C860
D820
D000
FF80
D000
D030
D820
CC60
C7C0
ENDCHAR
STARTCHAR 0465
ENCODING 1125
SWIDTH 720 0
DWIDTH 10 0
BBX 8 8 1 0
BITMAP
04
9F
B1
A0
FE
A1
91
9F
ENDCHAR
STARTCHAR 0466
ENCODING 1126
SWIDTH 792 0
DWIDTH 11 0
BBX 11 10 0 0
BITMAP
0C00
0E00
0A00
1300
1100
3180
3F80
64C0
4440
C460
ENDCHAR
STARTCHAR 0467
ENCODING 1127
SWIDTH 576 0
DWIDTH 8 0
BBX 7 7 0 0
BITMAP
18
18
24
24
6E
5A
DA
ENDCHAR
STARTCHAR 0468
ENCODING 1128
SWIDTH 1008 0
DWIDTH 14 0
BBX 13 10 1 0
BITMAP
C180
C380
C2C0
C640
C460
C420
FFF0
C910
D910
D108
ENDCHAR
STARTCHAR 0469
ENCODING 1129
SWIDTH 720 0
DWIDTH 10 0
BBX 9 7 1 0
BITMAP
8600
8A00
8A00
FB00
FB00
BB80
A480
ENDCHAR
STARTCHAR 046A
ENCODING 1130
SWIDTH 936 0
DWIDTH 13 0
BBX 11 10 1 0
BITMAP
3F80
1100
1A00
0E00
0E00
1F00
3580
6480
4440
8420
ENDCHAR
STARTCHAR 046B
ENCODING 1131
SWIDTH 792 0
DWIDTH 11 0
BBX 9 7 1 0
BITMAP
7F00
3600
1C00
1C00
2A00
4900
8880
ENDCHAR
STARTCHAR 046C
ENCODING 1132
SWIDTH 1152 0
DWIDTH 16 0
BBX 14 10 1 0
BITMAP
C7F0
C220
C340
C1C0
FFC0
C3E0
C6B0
CC90
D888
D08C
ENDCHAR
STARTCHAR 046D
ENCODING 1133
SWIDTH 936 0
DWIDTH 13 0
BBX 11 7 1 0
BITMAP
9FC0
8580
8700
FF00
8E80
9A40
B220
ENDCHAR
STARTCHAR 046E
ENCODING 1134
SWIDTH 648 0
DWIDTH 9 0
BBX 9 14 0 -3
BITMAP
1600
3E00
6100
4100
0300
1E00
1F00
0100
0180
0100
7E00
C000
7E00
3E00
ENDCHAR
STARTCHAR 046F
ENCODING 1135
SWIDTH 504 0
DWIDTH 7 0
BBX 5 11 1 -3
BITMAP
F0
F8
88
18
38
08
08
F8
80
F0
60
ENDCHAR
STARTCHAR 0470
ENCODING 1136
SWIDTH 792 0
DWIDTH 11 0
BBX 9 10 1 0
BITMAP
8880
8880
8880
8880
8880
8980
FF00
3E00
0800
0800
ENDCHAR
STARTCHAR 0471
ENCODING 1137
SWIDTH 720 0
DWIDTH 10 0
BBX 8 10 1 -3
BITMAP
91
91
91
91
91
D3
7E
10
10
10
ENDCHAR
STARTCHAR 0472
ENCODING 1138
SWIDTH 792 0
DWIDTH 11 0
BBX 9 10 1 0
BITMAP
3E00
4100
8080
8080
8080
FF80
8080
8080
4100
3E00
ENDCHAR
STARTCHAR 0473
ENCODING 1139
SWIDTH 504 0
DWIDTH 7 0
BBX 7 8 0 0
BITMAP
10
7C
46
C2
FE
42
46
7C
ENDCHAR
STARTCHAR 0474
ENCODING 1140
SWIDTH 792 0
DWIDTH 11 0
BBX 10 10 0 0
BITMAP
C1C0
4100
6100
2300
2200
3200
1400
1400
1C00
0800
ENDCHAR
STARTCHAR 0475
ENCODING 1141
SWIDTH 576 0
DWIDTH 8 0
BBX 8 7 0 0
BITMAP
C7
44
4C
68
28
38
10
ENDCHAR
STARTCHAR 0476
ENCODING 1142
SWIDTH 792 0
DWIDTH 11 0
BBX 10 13 0 0
BITMAP
3C00
1400
0000
C1C0
4100
6100
2300
2200
3200
1400
1400
1C00
0800
ENDCHAR
STARTCHAR 0477
ENCODING 1143
SWIDTH 576 0
DWIDTH 8 0
BBX 8 10 0 0
BITMAP
68
28
00
C7
44
4C
68
28
38
10
ENDCHAR
STARTCHAR 0478
ENCODING 1144
SWIDTH 1152 0
DWIDTH 16 0
BBX 15 13 1 -3
BITMAP
7E00
4300
8100
81C2
80E6
80A4
81A4
8138
4318
3E18
0010
0010
0060
ENDCHAR
STARTCHAR 0479
ENCODING 1145
SWIDTH 936 0
DWIDTH 13 0
BBX 13 11 0 -3
BITMAP
1000
7D08
4590
C690
C2B0
46E0
4460
7C60
0040
0040
0180
ENDCHAR
STARTCHAR 047A
ENCODING 1146
SWIDTH 864 0
DWIDTH 12 0
BBX 11 10 1 0
BITMAP
3F00
6D80
C0C0
8040
8060
8060
8040
C0C0
6D80
3F00
ENDCHAR
STARTCHAR 047B
ENCODING 1147
SWIDTH 576 0
DWIDTH 8 0
BBX 8 8 0 0
BITMAP
18
3E
42
C1
C1
43
62
3C
ENDCHAR
STARTCHAR 047C
ENCODING 1148
SWIDTH 936 0
DWIDTH 13 0
BBX 13 13 0 0
BITMAP
0FC0
0820
0700
C218
C218
C218
4210
4710
4530
6D30
2DA0
38E0
18C0
ENDCHAR
STARTCHAR 047D
ENCODING 1149
SWIDTH 720 0
DWIDTH 10 0
BBX 10 11 0 0
BITMAP
3F00
20C0
0000
0C00
8880
8880
CC80
4C80
5D80
7700
3300
ENDCHAR
STARTCHAR 047E
ENCODING 1150
SWIDTH 936 0
DWIDTH 13 0
BBX 13 12 0 0
BITMAP
3FE0
0200
C218
C218
C218
4210
4710
4530
6D30
2DA0
38E0
18C0
ENDCHAR
STARTCHAR 047F
ENCODING 1151
SWIDTH 720 0
DWIDTH 10 0
BBX 9 10 0 0
BITMAP
7F80
0800
0000
8880
8880
CC80
4C80
5D80
7700
3300
ENDCHAR
STARTCHAR 0482
ENCODING 1154
SWIDTH 504 0
DWIDTH 7 0
BBX 6 10 0 -3
BITMAP
08
08
08
3C
10
10
E0
38
20
40
ENDCHAR
STARTCHAR 0483
ENCODING 1155
SWIDTH 0 0
DWIDTH 0 0
BBX 5 2 -5 9
BITMAP
88
F8
ENDCHAR
STARTCHAR 0484
ENCODING 1156
SWIDTH 0 0
DWIDTH 0 0
BBX 5 2 -4 8
BITMAP
70
88
ENDCHAR
STARTCHAR 0485
ENCODING 1157
SWIDTH 0 0
DWIDTH 0 0
BBX 2 1 -3 9
BITMAP
C0
ENDCHAR
STARTCHAR 0486
ENCODING 1158
SWIDTH 0 0
DWIDTH 0 0
BBX 2 1 -3 8
BITMAP
C0
ENDCHAR
STARTCHAR 0487
ENCODING 1159
SWIDTH 0 0
DWIDTH 0 0
BBX 8 2 -8 8
BITMAP
7C
83
ENDCHAR
STARTCHAR 0488
ENCODING 1160
SWIDTH 0 0
DWIDTH 0 0
BBX 14 14 -10 -2
BITMAP
0200
0000
6030
0000
0000
0000
800C
0000
0000
0000
0000
6010
0000
0200
ENDCHAR
STARTCHAR 0489
ENCODING 1161
SWIDTH 0 0
DWIDTH 0 0
BBX 16 15 -11 -3
BITMAP
0100
0180
200C
1008
0000
0000
0000
C007
0000
0000
0000
1008
3008
0180
0080
ENDCHAR
STARTCHAR 048A
ENCODING 1162
SWIDTH 792 0
DWIDTH 11 0
BBX 9 15 1 -2
BITMAP
2400
3C00
0000
8300
8300
8500
8D00
8900
9100
B100
A100
E100
C180
0080
0080
ENDCHAR
STARTCHAR 048B
ENCODING 1163
SWIDTH 576 0
DWIDTH 8 0
BBX 7 12 1 -2
BITMAP
48
70
00
8C
94
94
A4
A4
C4
C6
02
02
ENDCHAR
STARTCHAR 048C
ENCODING 1164
SWIDTH 720 0
DWIDTH 10 0
BBX 9 10 0 0
BITMAP
2000
F000
2000
2000
3E00
2180
2080
2080
2180
3F00
ENDCHAR
STARTCHAR 048D
ENCODING 1165
SWIDTH 504 0
DWIDTH 7 0
BBX 7 7 0 0
BITMAP
40
E0
40
7C
42
46
7C
ENDCHAR
STARTCHAR 048E
ENCODING 1166
SWIDTH 648 0
DWIDTH 9 0
BBX 7 10 1 0
BITMAP
FE
82
82
8A
86
FE
80
80
80
80
ENDCHAR
STARTCHAR 048F
ENCODING 1167
SWIDTH 576 0
DWIDTH 8 0
BBX 6 11 1 -3
BITMAP
10
FC
84
84
84
84
DC
FC
84
80
80
ENDCHAR
STARTCHAR 0490
ENCODING 1168
SWIDTH 576 0
DWIDTH 8 0
BBX 7 12 1 0
BITMAP
02
02
FE
80
80
80
80
80
80
80
80
80
ENDCHAR
STARTCHAR 0491
ENCODING 1169
SWIDTH 360 0
DWIDTH 5 0
BBX 4 9 1 0
BITMAP
10
10
F0
80
80
80
80
80
80
ENDCHAR
STARTCHAR 0492
ENCODING 1170
SWIDTH 648 0
DWIDTH 9 0
BBX 8 10 0 0
BITMAP
7F
60
60
F0
60
60
60
60
60
60
ENDCHAR
STARTCHAR 0493
ENCODING 1171
SWIDTH 432 0
DWIDTH 6 0
BBX 5 7 0 0
BITMAP
78
40
E0
40
40
40
40
ENDCHAR
STARTCHAR 0494
ENCODING 1172
SWIDTH 576 0
DWIDTH 8 0
BBX 7 12 1 -2
BITMAP
FE
80
80
F8
FC
84
84
84
84
84
04
1C
ENDCHAR
STARTCHAR 0495
ENCODING 1173
SWIDTH 504 0
DWIDTH 7 0
BBX 5 9 1 -2
BITMAP
F0
80
B0
D8
88
88
88
18
30
ENDCHAR
STARTCHAR 0496
ENCODING 1174
SWIDTH 936 0
DWIDTH 13 0
BBX 12 12 1 -2
BITMAP
C460
64C0
3580
1500
0E00
1F00
3580
6480
4440
8430
0030
0030
ENDCHAR
STARTCHAR 0497
ENCODING 1175
SWIDTH 864 0
DWIDTH 12 0
BBX 10 9 1 -2
BITMAP
C880
2900
1A00
1C00
3B00
4980
88C0
0040
0040
ENDCHAR
STARTCHAR 0498
ENCODING 1176
SWIDTH 648 0
DWIDTH 9 0
BBX 8 13 1 -3
BITMAP
7C
C2
82
06
3C
3E
02
83
82
7C
10
08
30
ENDCHAR
STARTCHAR 0499
ENCODING 1177
SWIDTH 504 0
DWIDTH 7 0
BBX 5 11 1 -3
BITMAP
20
F8
88
18
38
08
88
F8
20
10
60
ENDCHAR
STARTCHAR 049A
ENCODING 1178
SWIDTH 648 0
DWIDTH 9 0
BBX 8 12 1 -2
BITMAP
86
8C
98
B0
E0
A0
90
88
84
87
01
01
ENDCHAR
STARTCHAR 049B
ENCODING 1179
SWIDTH 504 0
DWIDTH 7 0
BBX 6 9 1 -2
BITMAP
98
A0
C0
C0
A0
90
8C
04
04
ENDCHAR
STARTCHAR 049C
ENCODING 1180
SWIDTH 720 0
DWIDTH 10 0
BBX 8 10 1 0
BITMAP
83
84
B8
B0
E0
E0
B0
AC
86
83
ENDCHAR
STARTCHAR 049D
ENCODING 1181
SWIDTH 504 0
DWIDTH 7 0
BBX 5 7 1 0
BITMAP
98
B0
E0
E0
A0
B0
88
ENDCHAR
STARTCHAR 049E
ENCODING 1182
SWIDTH 720 0
DWIDTH 10 0
BBX 9 10 0 0
BITMAP
6180
F200
6400
7800
7000
7000
6C00
6600
6300
6180
ENDCHAR
STARTCHAR 049F
ENCODING 1183
SWIDTH 504 0
DWIDTH 7 0
BBX 7 7 0 0
BITMAP
EC
58
70
60
50
48
46
ENDCHAR
STARTCHAR 04A0
ENCODING 1184
SWIDTH 864 0
DWIDTH 12 0
BBX 11 10 0 0
BITMAP
F860
08C0
0900
0A00
0C00
0E00
0B00
0980
08C0
0860
ENDCHAR
STARTCHAR 04A1
ENCODING 1185
SWIDTH 648 0
DWIDTH 9 0
BBX 9 7 0 0
BITMAP
F300
1600
1C00
1800
1400
1200
1180
ENDCHAR
STARTCHAR 04A2
ENCODING 1186
SWIDTH 720 0
DWIDTH 10 0
BBX 9 12 1 -2
BITMAP
8100
8100
8100
8100
FF00
8100
8100
8100
8100
8180
0080
0080
ENDCHAR
STARTCHAR 04A3
ENCODING 1187
SWIDTH 576 0
DWIDTH 8 0
BBX 7 9 1 -2
BITMAP
84
84
84
FC
84
84
86
02
02
ENDCHAR
STARTCHAR 04A4
ENCODING 1188
SWIDTH 1008 0
DWIDTH 14 0
BBX 13 10 1 0
BITMAP
81F8
8100
8100
8100
FF00
8100
8100
8100
8100
8100
ENDCHAR
STARTCHAR 04A5
ENCODING 1189
SWIDTH 720 0
DWIDTH 10 0
BBX 9 7 1 0
BITMAP
8780
8400
8400
FC00
8400
8400
8400
ENDCHAR
STARTCHAR 04A6
ENCODING 1190
SWIDTH 1080 0
DWIDTH 15 0
BBX 13 12 1 -2
BITMAP
FF00
8100
8100
81E0
81F8
8108
8108
8108
8108
8108
0008
0038
ENDCHAR
STARTCHAR 04A7
ENCODING 1191
SWIDTH 792 0
DWIDTH 11 0
BBX 10 9 1 -2
BITMAP
FC00
8C00
8F80
8C80
8CC0
8CC0
8CC0
0080
0180
ENDCHAR
STARTCHAR 04A8
ENCODING 1192
SWIDTH 792 0
DWIDTH 11 0
BBX 10 10 1 0
BITMAP
7000
4600
8900
9980
9180
9180
9180
9900
CF40
7F80
ENDCHAR
STARTCHAR 04A9
ENCODING 1193
SWIDTH 648 0
DWIDTH 9 0
BBX 8 8 0 0
BITMAP
10
70
4C
DA
D2
52
5E
7F
ENDCHAR
STARTCHAR 04AA
ENCODING 1194
SWIDTH 720 0
DWIDTH 10 0
BBX 8 13 1 -3
BITMAP
7E
43
81
80
80
80
81
81
43
7E
08
08
38
ENDCHAR
STARTCHAR 04AB
ENCODING 1195
SWIDTH 504 0
DWIDTH 7 0
BBX 7 11 0 -3
BITMAP
10
7C
44
C0
C0
46
44
3C
10
08
30
ENDCHAR
STARTCHAR 04AC
ENCODING 1196
SWIDTH 648 0
DWIDTH 9 0
BBX 8 12 0 -2
BITMAP
FF
08
08
08
08
08
08
08
08
0C
04
04
ENDCHAR
STARTCHAR 04AD
ENCODING 1197
SWIDTH 432 0
DWIDTH 6 0
BBX 5 9 0 -2
BITMAP
F8
20
20
20
20
20
30
10
10
ENDCHAR
STARTCHAR 04AE
ENCODING 1198
SWIDTH 648 0
DWIDTH 9 0
BBX 8 10 1 0
BITMAP
83
C2
46
24
38
18
10
10
10
10
ENDCHAR
STARTCHAR 04AF
ENCODING 1199
SWIDTH 576 0
DWIDTH 8 0
BBX 7 10 1 -3
BITMAP
86
C4
4C
68
38
30
10
10
10
10
ENDCHAR
STARTCHAR 04B0
ENCODING 1200
SWIDTH 648 0
DWIDTH 9 0
BBX 8 10 1 0
BITMAP
83
C2
46
24
38
18
FF
10
10
10
ENDCHAR
STARTCHAR 04B1
ENCODING 1201
SWIDTH 576 0
DWIDTH 8 0
BBX 8 10 0 -3
BITMAP
43
62
26
34
1C
18
FF
08
08
08
ENDCHAR
STARTCHAR 04B2
ENCODING 1202
SWIDTH 648 0
DWIDTH 9 0
BBX 8 12 1 -2
BITMAP
82
46
6C
28
18
38
2C
44
C6
83
01
01
ENDCHAR
STARTCHAR 04B3
ENCODING 1203
SWIDTH 504 0
DWIDTH 7 0
BBX 7 9 0 -2
BITMAP
44
28
30
10
28
4C
C6
02
02
ENDCHAR
STARTCHAR 04B4
ENCODING 1204
SWIDTH 936 0
DWIDTH 13 0
BBX 13 12 0 -2
BITMAP
FF30
0830
0830
0830
0830
0830
0830
0830
0830
0FF8
0008
0008
ENDCHAR
STARTCHAR 04B5
ENCODING 1205
SWIDTH 648 0
DWIDTH 9 0
BBX 9 9 0 -2
BITMAP
F900
2100
2100
2100
2100
2100
3F80
0080
0080
ENDCHAR
STARTCHAR 04B6
ENCODING 1206
SWIDTH 648 0
DWIDTH 9 0
BBX 8 12 1 -2
BITMAP
86
86
86
86
86
FE
06
06
06
07
03
03
ENDCHAR
STARTCHAR 04B7
ENCODING 1207
SWIDTH 504 0
DWIDTH 7 0
BBX 6 9 1 -2
BITMAP
88
88
88
F8
08
08
0C
04
04
ENDCHAR
STARTCHAR 04B8
ENCODING 1208
SWIDTH 648 0
DWIDTH 9 0
BBX 7 10 1 0
BITMAP
86
86
86
96
96
FE
16
16
06
06
ENDCHAR
STARTCHAR 04B9
ENCODING 1209
SWIDTH 504 0
DWIDTH 7 0
BBX 5 7 1 0
BITMAP
88
88
A8
F8
28
28
08
ENDCHAR
STARTCHAR 04BA
ENCODING 1210
SWIDTH 648 0
DWIDTH 9 0
BBX 7 10 1 0
BITMAP
80
80
80
F8
FE
82
82
82
82
82
ENDCHAR
STARTCHAR 04BB
ENCODING 1211
SWIDTH 504 0
DWIDTH 7 0
BBX 5 7 1 0
BITMAP
80
80
F0
88
88
88
88
ENDCHAR
STARTCHAR 04BC
ENCODING 1212
SWIDTH 936 0
DWIDTH 13 0
BBX 11 11 1 0
BITMAP
4000
AFC0
9860
9020
FFE0
7FE0
3000
1000
1020
1860
0FC0
ENDCHAR
STARTCHAR 04BD
ENCODING 1213
SWIDTH 720 0
DWIDTH 10 0
BBX 9 8 0 0
BITMAP
0600
6F00
9080
5080
3F80
1000
1080
0F00
ENDCHAR
STARTCHAR 04BE
ENCODING 1214
SWIDTH 936 0
DWIDTH 13 0
BBX 11 14 1 -3
BITMAP
4000
AFC0
9860
9020
FFE0
7FE0
3000
1000
1020
1860
0FC0
0200
0200
0200
ENDCHAR
STARTCHAR 04BF
ENCODING 1215
SWIDTH 720 0
DWIDTH 10 0
BBX 9 11 0 -3
BITMAP
0600
6F00
9080
5080
3F80
1000
1080
0F00
0600
0600
0600
ENDCHAR
STARTCHAR 04C0
ENCODING 1216
SWIDTH 288 0
DWIDTH 4 0
BBX 1 10 1 0
BITMAP
80
80
80
80
80
80
80
80
80
80
ENDCHAR
STARTCHAR 04C1
ENCODING 1217
SWIDTH 936 0
DWIDTH 13 0
BBX 11 13 1 0
BITMAP
1000
0E00
0000
C460
64C0
3580
1500
0E00
1F00
3580
6480
4440
8420
ENDCHAR
STARTCHAR 04C2
ENCODING 1218
SWIDTH 792 0
DWIDTH 11 0
BBX 9 10 1 0
BITMAP
2000
1C00
0000
C980
6A00
3C00
1C00
2A00
4900
8880
ENDCHAR
STARTCHAR 04C3
ENCODING 1219
SWIDTH 648 0
DWIDTH 9 0
BBX 8 12 1 -2
BITMAP
83
84
98
B0
E0
FE
82
83
83
83
02
0E
ENDCHAR
STARTCHAR 04C4
ENCODING 1220
SWIDTH 504 0
DWIDTH 7 0
BBX 5 9 1 -2
BITMAP
98
B0
E0
F0
98
88
88
08
18
ENDCHAR
STARTCHAR 04C5
ENCODING 1221
SWIDTH 720 0
DWIDTH 10 0
BBX 9 12 0 -2
BITMAP
3F00
2100
2100
2100
2100
2100
2100
2100
6100
C180
0080
0080
ENDCHAR
STARTCHAR 04C6
ENCODING 1222
SWIDTH 504 0
DWIDTH 7 0
BBX 7 9 0 -2
BITMAP
7C
64
64
44
44
44
C6
02
02
ENDCHAR
STARTCHAR 04C7
ENCODING 1223
SWIDTH 720 0
DWIDTH 10 0
BBX 8 12 1 -2
BITMAP
81
81
81
81
FF
81
81
81
81
81
01
06
ENDCHAR
STARTCHAR 04C8
ENCODING 1224
SWIDTH 576 0
DWIDTH 8 0
BBX 6 9 1 -2
BITMAP
84
84
84
FC
84
84
84
0C
18
ENDCHAR
STARTCHAR 04C9
ENCODING 1225
SWIDTH 720 0
DWIDTH 10 0
BBX 9 12 1 -2
BITMAP
8100
8100
8100
8100
FF00
8100
8100
8100
8100
8180
0080
0080
ENDCHAR
STARTCHAR 04CA
ENCODING 1226
SWIDTH 576 0
DWIDTH 8 0
BBX 7 9 1 -2
BITMAP
84
84
84
FC
84
84
86
02
02
ENDCHAR
STARTCHAR 04CB
ENCODING 1227
SWIDTH 648 0
DWIDTH 9 0
BBX 7 12 1 -2
BITMAP
86
86
86
86
86
FE
06
06
06
0E
0C
0C
ENDCHAR
STARTCHAR 04CC
ENCODING 1228
SWIDTH 504 0
DWIDTH 7 0
BBX 5 9 1 -2
BITMAP
88
88
88
F8
08
08
18
10
10
ENDCHAR
STARTCHAR 04CD
ENCODING 1229
SWIDTH 864 0
DWIDTH 12 0
BBX 11 12 1 -2
BITMAP
C0C0
E1C0
A1C0
A1C0
B2C0
92C0
92C0
9CC0
8CC0
8CE0
0020
0020
ENDCHAR
STARTCHAR 04CE
ENCODING 1230
SWIDTH 648 0
DWIDTH 9 0
BBX 7 9 1 -2
BITMAP
C6
CE
CE
BE
B6
B6
86
02
02
ENDCHAR
STARTCHAR 04CF
ENCODING 1231
SWIDTH 288 0
DWIDTH 4 0
BBX 1 10 1 0
BITMAP
80
80
80
80
80
80
80
80
80
80
ENDCHAR
STARTCHAR 04D0
ENCODING 1232
SWIDTH 648 0
DWIDTH 9 0
BBX 9 13 0 0
BITMAP
0200
1C00
0000
0C00
1C00
1400
1600
2200
2300
7F00
4100
4180
C180
ENDCHAR
STARTCHAR 04D1
ENCODING 1233
SWIDTH 576 0
DWIDTH 8 0
BBX 7 10 0 0
BITMAP
24
18
10
7C
44
04
7C
C4
C4
7E
ENDCHAR
STARTCHAR 04D2
ENCODING 1234
SWIDTH 648 0
DWIDTH 9 0
BBX 9 13 0 0
BITMAP
1600
1600
0000
0C00
1C00
1400
1600
2200
2300
7F00
4100
4180
C180
ENDCHAR
STARTCHAR 04D3
ENCODING 1235
SWIDTH 576 0
DWIDTH 8 0
BBX 7 10 0 0
BITMAP
2C
2C
10
7C
44
04
7C
C4
C4
7E
ENDCHAR
STARTCHAR 04D4
ENCODING 1236
SWIDTH 1008 0
DWIDTH 14 0
BBX 13 10 0 0
BITMAP
0FF8
0900
1900
1100
31F8
2100
3F00
6100
4100
C1F8
ENDCHAR
STARTCHAR 04D5
ENCODING 1237
SWIDTH 864 0
DWIDTH 12 0
BBX 12 8 0 0
BITMAP
1080
7FE0
4630
0410
7FF0
4400
C620
7BE0
ENDCHAR
STARTCHAR 04D6
ENCODING 1238
SWIDTH 648 0
DWIDTH 9 0
BBX 7 13 1 0
BITMAP
04
38
00
FE
80
80
80
FE
80
80
80
80
FE
ENDCHAR
STARTCHAR 04D7
ENCODING 1239
SWIDTH 504 0
DWIDTH 7 0
BBX 7 10 0 0
BITMAP
24
18
10
7C
46
C2
FE
40
46
3C
ENDCHAR
STARTCHAR 04D8
ENCODING 1240
SWIDTH 720 0
DWIDTH 10 0
BBX 8 10 1 0
BITMAP
7E
C2
81
01
01
FF
81
81
C2
7C
ENDCHAR
STARTCHAR 04D9
ENCODING 1241
SWIDTH 576 0
DWIDTH 8 0
BBX 6 8 1 -1
BITMAP
78
8C
04
FC
84
84
F8
20
ENDCHAR
STARTCHAR 04DA
ENCODING 1242
SWIDTH 720 0
DWIDTH 10 0
BBX 8 13 1 0
BITMAP
2C
2C
00
7E
C2
81
01
01
FF
81
81
C2
7C
ENDCHAR
STARTCHAR 04DB
ENCODING 1243
SWIDTH 576 0
DWIDTH 8 0
BBX 6 11 1 -1
BITMAP
58
58
00
78
8C
04
FC
84
84
F8
20
ENDCHAR
STARTCHAR 04DC
ENCODING 1244
SWIDTH 936 0
DWIDTH 13 0
BBX 11 13 1 0
BITMAP
1A00
1A00
0000
C460
64C0
3580
1500
0E00
1F00
3580
6480
4440
8420
ENDCHAR
STARTCHAR 04DD
ENCODING 1245
SWIDTH 792 0
DWIDTH 11 0
BBX 9 10 1 0
BITMAP
3400
3400
0000
C980
6A00
3C00
1C00
2A00
4900
8880
ENDCHAR
STARTCHAR 04DE
ENCODING 1246
SWIDTH 648 0
DWIDTH 9 0
BBX 8 13 1 0
BITMAP
2C
2C
00
7C
C2
82
06
3C
3E
02
83
82
7C
ENDCHAR
STARTCHAR 04DF
ENCODING 1247
SWIDTH 504 0
DWIDTH 7 0
BBX 5 10 1 0
BITMAP
D0
D0
20
F8
88
18
38
08
88
F8
ENDCHAR
STARTCHAR 04E0
ENCODING 1248
SWIDTH 648 0
DWIDTH 9 0
BBX 7 10 1 0
BITMAP
FE
06
0C
08
1C
06
02
82
86
7C
ENDCHAR
STARTCHAR 04E1
ENCODING 1249
SWIDTH 504 0
DWIDTH 7 0
BBX 6 9 1 -2
BITMAP
F8
18
10
38
0C
04
84
8C
78
ENDCHAR
STARTCHAR 04E2
ENCODING 1250
SWIDTH 720 0
DWIDTH 10 0
BBX 8 12 1 0
BITMAP
3C
00
83
83
85
8D
89
91
B1
A1
E1
C1
ENDCHAR
STARTCHAR 04E3
ENCODING 1251
SWIDTH 576 0
DWIDTH 8 0
BBX 6 10 1 0
BITMAP
78
00
00
8C
94
94
A4
A4
C4
C4
ENDCHAR
STARTCHAR 04E4
ENCODING 1252
SWIDTH 720 0
DWIDTH 10 0
BBX 8 13 1 0
BITMAP
34
34
00
83
83
85
8D
89
91
B1
A1
E1
C1
ENDCHAR
STARTCHAR 04E5
ENCODING 1253
SWIDTH 576 0
DWIDTH 8 0
BBX 6 10 1 0
BITMAP
48
48
00
8C
94
94
A4
A4
C4
C4
ENDCHAR
STARTCHAR 04E6
ENCODING 1254
SWIDTH 792 0
DWIDTH 11 0
BBX 9 13 1 0
BITMAP
1600
1600
0000
3E00
4100
8080
8080
8080
8080
8080
8180
4100
3E00
ENDCHAR
STARTCHAR 04E7
ENCODING 1255
SWIDTH 504 0
DWIDTH 7 0
BBX 7 10 0 0
BITMAP
24
24
10
7C
46
C2
C2
42
46
7C
ENDCHAR
STARTCHAR 04E8
ENCODING 1256
SWIDTH 792 0
DWIDTH 11 0
BBX 9 10 1 0
BITMAP
3E00
4100
8080
8080
8080
FF80
8080
8080
4100
3E00
ENDCHAR
STARTCHAR 04E9
ENCODING 1257
SWIDTH 504 0
DWIDTH 7 0
BBX 7 8 0 0
BITMAP
10
7C
46
C2
FE
42
46
7C
ENDCHAR
STARTCHAR 04EA
ENCODING 1258
SWIDTH 792 0
DWIDTH 11 0
BBX 9 13 1 0
BITMAP
3400
3400
0000
3E00
4100
8080
8080
8080
FF80
8080
8080
4100
3E00
ENDCHAR
STARTCHAR 04EB
ENCODING 1259
SWIDTH 504 0
DWIDTH 7 0
BBX 7 10 0 0
BITMAP
2C
2C
10
7C
46
C2
FE
42
46
7C
ENDCHAR
STARTCHAR 04EC
ENCODING 1260
SWIDTH 720 0
DWIDTH 10 0
BBX 8 13 1 0
BITMAP
2C
2C
00
7E
C2
81
01
3F
01
81
81
C2
7C
ENDCHAR
STARTCHAR 04ED
ENCODING 1261
SWIDTH 504 0
DWIDTH 7 0
BBX 7 10 0 0
BITMAP
68
68
10
7C
44
06
3E
C6
44
7C
ENDCHAR
STARTCHAR 04EE
ENCODING 1262
SWIDTH 648 0
DWIDTH 9 0
BBX 7 12 1 0
BITMAP
38
00
82
C6
44
6C
28
38
10
30
20
60
ENDCHAR
STARTCHAR 04EF
ENCODING 1263
SWIDTH 504 0
DWIDTH 7 0
BBX 6 13 0 -3
BITMAP
38
00
00
C4
44
4C
68
28
30
30
30
20
60
ENDCHAR
STARTCHAR 04F0
ENCODING 1264
SWIDTH 648 0
DWIDTH 9 0
BBX 7 13 1 0
BITMAP
2C
2C
00
82
C6
44
6C
28
38
10
30
20
60
ENDCHAR
STARTCHAR 04F1
ENCODING 1265
SWIDTH 504 0
DWIDTH 7 0
BBX 6 13 0 -3
BITMAP
2C
2C
00
C4
44
4C
68
28
30
30
30
20
60
ENDCHAR
STARTCHAR 04F2
ENCODING 1266
SWIDTH 648 0
DWIDTH 9 0
BBX 7 13 1 0
BITMAP
34
28
00
82
C6
44
6C
28
38
10
30
20
60
ENDCHAR
STARTCHAR 04F3
ENCODING 1267
SWIDTH 504 0
DWIDTH 7 0
BBX 6 13 0 -3
BITMAP
2C
08
00
C4
44
4C
68
28
30
30
30
20
60
ENDCHAR
STARTCHAR 04F4
ENCODING 1268
SWIDTH 648 0
DWIDTH 9 0
BBX 7 13 1 0
BITMAP
68
68
00
86
86
86
86
86
FE
06
06
06
06
ENDCHAR
STARTCHAR 04F5
ENCODING 1269
SWIDTH 504 0
DWIDTH 7 0
BBX 5 10 1 0
BITMAP
58
58
00
88
88
88
F8
08
08
08
ENDCHAR
STARTCHAR 04F6
ENCODING 1270
SWIDTH 576 0
DWIDTH 8 0
BBX 7 12 1 -2
BITMAP
FE
80
80
80
80
80
80
80
80
C0
40
40
ENDCHAR
STARTCHAR 04F7
ENCODING 1271
SWIDTH 360 0
DWIDTH 5 0
BBX 4 9 1 -2
BITMAP
F0
80
80
80
80
80
C0
40
40
ENDCHAR
STARTCHAR 04F8
ENCODING 1272
SWIDTH 864 0
DWIDTH 12 0
BBX 10 13 1 0
BITMAP
1A00
1A00
0000
8040
8040
8040
8040
FE40
8240
8340
8340
8240
FC40
ENDCHAR
STARTCHAR 04F9
ENCODING 1273
SWIDTH 720 0
DWIDTH 10 0
BBX 8 10 1 0
BITMAP
2C
2C
00
83
83
F3
8B
8F
8B
FB
ENDCHAR
STARTCHAR 04FA
ENCODING 1274
SWIDTH 648 0
DWIDTH 9 0
BBX 8 13 0 -3
BITMAP
7F
60
60
F0
60
60
60
60
60
70
10
10
60
ENDCHAR
STARTCHAR 04FB
ENCODING 1275
SWIDTH 432 0
DWIDTH 6 0
BBX 5 10 0 -3
BITMAP
78
40
E0
40
40
40
60
20
20
60
ENDCHAR
STARTCHAR 04FC
ENCODING 1276
SWIDTH 648 0
DWIDTH 9 0
BBX 8 12 1 -2
BITMAP
82
46
6C
28
18
38
2C
44
C6
83
03
0E
ENDCHAR
STARTCHAR 04FD
ENCODING 1277
SWIDTH 504 0
DWIDTH 7 0
BBX 6 9 0 -2
BITMAP
44
28
30
10
28
4C
C4
04
0C
ENDCHAR
STARTCHAR 04FE
ENCODING 1278
SWIDTH 648 0
DWIDTH 9 0
BBX 8 10 1 0
BITMAP
82
46
6C
28
FE
38
2C
44
C6
83
ENDCHAR
STARTCHAR 04FF
ENCODING 1279
SWIDTH 504 0
DWIDTH 7 0
BBX 6 7 0 0
BITMAP
44
28
30
7C
28
4C
C4
ENDCHAR
STARTCHAR 0510
ENCODING 1296
SWIDTH 648 0
DWIDTH 9 0
BBX 8 10 1 0
BITMAP
7C
C2
82
C0
78
F8
80
83
82
7C
ENDCHAR
STARTCHAR 0511
ENCODING 1297
SWIDTH 504 0
DWIDTH 7 0
BBX 6 8 0 0
BITMAP
10
7C
44
40
70
C0
C4
7C
ENDCHAR
STARTCHAR 0512
ENCODING 1298
SWIDTH 648 0
DWIDTH 9 0
BBX 8 12 0 -2
BITMAP
3F
21
21
21
21
21
21
21
61
C1
01
07
ENDCHAR
STARTCHAR 0513
ENCODING 1299
SWIDTH 504 0
DWIDTH 7 0
BBX 6 9 0 -2
BITMAP
7C
64
64
44
44
44
C4
04
18
ENDCHAR
STARTCHAR 051A
ENCODING 1306
SWIDTH 792 0
DWIDTH 11 0
BBX 9 11 1 -1
BITMAP
3E00
4100
8080
8080
8080
8080
8080
8580
4300
3F80
0080
ENDCHAR
STARTCHAR 051B
ENCODING 1307
SWIDTH 576 0
DWIDTH 8 0
BBX 7 11 0 -3
BITMAP
10
7E
46
C2
C2
42
46
7E
02
02
02
ENDCHAR
STARTCHAR 051C
ENCODING 1308
SWIDTH 936 0
DWIDTH 13 0
BBX 13 10 0 0
BITMAP
C218
4710
4510
6510
65B0
28A0
28A0
28A0
38E0
1040
ENDCHAR
STARTCHAR 051D
ENCODING 1309
SWIDTH 720 0
DWIDTH 10 0
BBX 10 7 0 0
BITMAP
CCC0
4C80
4C80
5280
3380
3300
3300
ENDCHAR
STARTCHAR 051E
ENCODING 1310
SWIDTH 648 0
DWIDTH 9 0
BBX 7 10 1 0
BITMAP
96
8C
9E
B0
E0
A0
90
88
84
86
ENDCHAR
STARTCHAR 051F
ENCODING 1311
SWIDTH 504 0
DWIDTH 7 0
BBX 5 7 1 0
BITMAP
B8
B8
C0
C0
A0
90
88
ENDCHAR
STARTCHAR 0524
ENCODING 1316
SWIDTH 720 0
DWIDTH 10 0
BBX 9 12 1 -2
BITMAP
FF00
8100
8100
8100
8100
8100
8100
8100
8100
8180
0080
0080
ENDCHAR
STARTCHAR 0525
ENCODING 1317
SWIDTH 576 0
DWIDTH 8 0
BBX 7 9 1 -2
BITMAP
FC
8C
8C
8C
8C
8C
8E
06
06
ENDCHAR
STARTCHAR 0526
ENCODING 1318
SWIDTH 648 0
DWIDTH 9 0
BBX 8 12 1 -2
BITMAP
80
80
80
80
FC
86
86
86
86
87
03
03
ENDCHAR
STARTCHAR 0527
ENCODING 1319
SWIDTH 504 0
DWIDTH 7 0
BBX 6 9 1 -2
BITMAP
80
80
E0
F8
88
88
8C
04
04
ENDCHAR
STARTCHAR 0531
ENCODING 1329
SWIDTH 720 0
DWIDTH 10 0
BBX 9 10 1 -1
BITMAP
8100
8100
8100
8100
8100
8100
8300
8300
C300
7F80
ENDCHAR
STARTCHAR 0532
ENCODING 1330
SWIDTH 720 0
DWIDTH 10 0
BBX 8 10 1 0
BITMAP
7E
C2
C3
81
81
80
80
FF
80
80
ENDCHAR
STARTCHAR 0533
ENCODING 1331
SWIDTH 720 0
DWIDTH 10 0
BBX 9 10 1 0
BITMAP
7C00
C600
8200
8200
8200
8200
C200
7F80
0200
0200
ENDCHAR
STARTCHAR 0534
ENCODING 1332
SWIDTH 720 0
DWIDTH 10 0
BBX 9 10 1 0
BITMAP
7C00
C200
8300
8300
8300
0300
0300
0380
0300
0300
ENDCHAR
STARTCHAR 0535
ENCODING 1333
SWIDTH 720 0
DWIDTH 10 0
BBX 8 10 1 0
BITMAP
80
80
FF
80
80
81
83
83
42
7C
ENDCHAR
STARTCHAR 0536
ENCODING 1334
SWIDTH 792 0
DWIDTH 11 0
BBX 9 10 1 0
BITMAP
7E00
C300
8100
8100
F100
0100
0200
8600
FF80
8080
ENDCHAR
STARTCHAR 0537
ENCODING 1335
SWIDTH 432 0
DWIDTH 6 0
BBX 5 10 1 0
BITMAP
80
80
80
F8
80
80
80
80
80
E0
ENDCHAR
STARTCHAR 0538
ENCODING 1336
SWIDTH 720 0
DWIDTH 10 0
BBX 8 10 1 0
BITMAP
7E
C2
83
81
81
81
80
80
80
FF
ENDCHAR
STARTCHAR 0539
ENCODING 1337
SWIDTH 792 0
DWIDTH 11 0
BBX 10 10 1 0
BITMAP
7F00
C080
8080
8080
9FC0
9080
9080
9080
9180
9F00
ENDCHAR
STARTCHAR 053A
ENCODING 1338
SWIDTH 648 0
DWIDTH 9 0
BBX 8 10 1 0
BITMAP
06
06
06
7F
86
86
86
86
C4
78
ENDCHAR
STARTCHAR 053B
ENCODING 1339
SWIDTH 720 0
DWIDTH 10 0
BBX 8 10 1 0
BITMAP
80
80
BC
C6
83
83
81
80
80
80
ENDCHAR
STARTCHAR 053C
ENCODING 1340
SWIDTH 360 0
DWIDTH 5 0
BBX 4 10 1 0
BITMAP
80
80
80
80
80
80
80
80
80
F0
ENDCHAR
STARTCHAR 053D
ENCODING 1341
SWIDTH 864 0
DWIDTH 12 0
BBX 10 10 1 0
BITMAP
8000
8000
8000
F040
9040
9040
9040
9040
98C0
8F80
ENDCHAR
STARTCHAR 053E
ENCODING 1342
SWIDTH 792 0
DWIDTH 11 0
BBX 9 11 1 0
BITMAP
8000
FF80
3E00
4300
8180
8080
8080
8080
8180
4300
3E00
ENDCHAR
STARTCHAR 053F
ENCODING 1343
SWIDTH 720 0
DWIDTH 10 0
BBX 8 10 1 0
BITMAP
80
80
81
81
83
C3
67
3F
03
03
ENDCHAR
STARTCHAR 0540
ENCODING 1344
SWIDTH 576 0
DWIDTH 8 0
BBX 7 11 1 -1
BITMAP
06
08
10
30
60
C0
C0
70
1C
06
02
ENDCHAR
STARTCHAR 0541
ENCODING 1345
SWIDTH 648 0
DWIDTH 9 0
BBX 7 10 1 -1
BITMAP
7C
C6
82
82
02
02
06
E4
98
F8
ENDCHAR
STARTCHAR 0542
ENCODING 1346
SWIDTH 648 0
DWIDTH 9 0
BBX 8 10 1 0
BITMAP
7C
C4
86
86
86
86
06
06
06
07
ENDCHAR
STARTCHAR 0543
ENCODING 1347
SWIDTH 648 0
DWIDTH 9 0
BBX 8 10 1 0
BITMAP
06
3C
38
2C
64
C6
C2
82
83
FF
ENDCHAR
STARTCHAR 0544
ENCODING 1348
SWIDTH 792 0
DWIDTH 11 0
BBX 9 10 1 0
BITMAP
8380
8300
8300
8300
8300
8300
8300
8300
C200
7C00
ENDCHAR
STARTCHAR 0545
ENCODING 1349
SWIDTH 576 0
DWIDTH 8 0
BBX 7 10 1 0
BITMAP
7C
C4
04
04
F8
04
06
86
84
7C
ENDCHAR
STARTCHAR 0546
ENCODING 1350
SWIDTH 792 0
DWIDTH 11 0
BBX 10 10 0 0
BITMAP
F000
3000
3000
3000
3040
3040
3040
3040
10C0
0F80
ENDCHAR
STARTCHAR 0547
ENCODING 1351
SWIDTH 576 0
DWIDTH 8 0
BBX 7 10 1 0
BITMAP
F0
3C
C0
80
80
80
86
86
C4
78
ENDCHAR
STARTCHAR 0548
ENCODING 1352
SWIDTH 720 0
DWIDTH 10 0
BBX 8 10 1 0
BITMAP
7E
C2
83
81
81
81
81
81
81
81
ENDCHAR
STARTCHAR 0549
ENCODING 1353
SWIDTH 648 0
DWIDTH 9 0
BBX 7 10 1 0
BITMAP
7C
C6
82
82
02
02
06
0C
F0
1C
ENDCHAR
STARTCHAR 054A
ENCODING 1354
SWIDTH 720 0
DWIDTH 10 0
BBX 8 10 1 0
BITMAP
7E
D2
93
93
93
13
13
03
03
03
ENDCHAR
STARTCHAR 054B
ENCODING 1355
SWIDTH 720 0
DWIDTH 10 0
BBX 9 10 1 0
BITMAP
7E00
C200
8100
8100
F900
0D00
0600
8400
FF00
8080
ENDCHAR
STARTCHAR 054C
ENCODING 1356
SWIDTH 720 0
DWIDTH 10 0
BBX 9 10 1 0
BITMAP
7E00
C200
8300
8100
8100
8100
8180
8180
8100
8100
ENDCHAR
STARTCHAR 054D
ENCODING 1357
SWIDTH 720 0
DWIDTH 10 0
BBX 8 10 1 0
BITMAP
81
81
81
81
81
81
83
83
C2
7E
ENDCHAR
STARTCHAR 054E
ENCODING 1358
SWIDTH 720 0
DWIDTH 10 0
BBX 9 10 1 0
BITMAP
0300
0300
8300
8300
8300
C300
6700
3F00
0300
0380
ENDCHAR
STARTCHAR 054F
ENCODING 1359
SWIDTH 648 0
DWIDTH 9 0
BBX 8 10 1 0
BITMAP
7C
C6
82
C0
78
0E
03
83
C2
7C
ENDCHAR
STARTCHAR 0550
ENCODING 1360
SWIDTH 720 0
DWIDTH 10 0
BBX 8 10 1 0
BITMAP
7E
C2
83
81
81
81
80
80
80
80
ENDCHAR
STARTCHAR 0551
ENCODING 1361
SWIDTH 648 0
DWIDTH 9 0
BBX 7 10 1 0
BITMAP
7C
C6
86
C4
7C
C6
02
82
C6
7C
ENDCHAR
STARTCHAR 0552
ENCODING 1362
SWIDTH 360 0
DWIDTH 5 0
BBX 4 10 1 0
BITMAP
80
80
80
F0
80
80
80
80
80
80
ENDCHAR
STARTCHAR 0553
ENCODING 1363
SWIDTH 792 0
DWIDTH 11 0
BBX 9 10 1 0
BITMAP
0800
7F00
C980
8880
8880
8880
8880
C980
7F00
0800
ENDCHAR
STARTCHAR 0554
ENCODING 1364
SWIDTH 648 0
DWIDTH 9 0
BBX 8 10 0 0
BITMAP
1E
23
21
21
23
3E
20
FF
20
20
ENDCHAR
STARTCHAR 0555
ENCODING 1365
SWIDTH 792 0
DWIDTH 11 0
BBX 9 10 1 0
BITMAP
3E00
4300
C180
8080
8080
8080
8080
C180
6300
3E00
ENDCHAR
STARTCHAR 0556
ENCODING 1366
SWIDTH 720 0
DWIDTH 10 0
BBX 8 10 1 0
BITMAP
70
90
90
7E
11
11
11
11
91
7E
ENDCHAR
STARTCHAR 0559
ENCODING 1369
SWIDTH 288 0
DWIDTH 4 0
BBX 1 2 1 9
BITMAP
80
80
ENDCHAR
STARTCHAR 055A
ENCODING 1370
SWIDTH 216 0
DWIDTH 3 0
BBX 1 3 1 7
BITMAP
80
80
80
ENDCHAR
STARTCHAR 055B
ENCODING 1371
SWIDTH 216 0
DWIDTH 3 0
BBX 1 1 1 8
BITMAP
80
ENDCHAR
STARTCHAR 055C
ENCODING 1372
SWIDTH 360 0
DWIDTH 5 0
BBX 4 2 0 8
BITMAP
70
80
ENDCHAR
STARTCHAR 055D
ENCODING 1373
SWIDTH 360 0
DWIDTH 5 0
BBX 2 2 1 8
BITMAP
80
40
ENDCHAR
STARTCHAR 055E
ENCODING 1374
SWIDTH 360 0
DWIDTH 5 0
BBX 4 3 0 8
BITMAP
70
B0
B0
ENDCHAR
STARTCHAR 055F
ENCODING 1375
SWIDTH 360 0
DWIDTH 5 0
BBX 4 2 0 8
BITMAP
40
F0
ENDCHAR
STARTCHAR 0561
ENCODING 1377
SWIDTH 864 0
DWIDTH 12 0
BBX 10 7 1 0
BITMAP
8840
8840
8840
8840
88C0
8CC0
F740
ENDCHAR
STARTCHAR 0562
ENCODING 1378
SWIDTH 576 0
DWIDTH 8 0
BBX 6 10 1 -3
BITMAP
F8
C4
84
84
80
80
FC
80
80
80
ENDCHAR
STARTCHAR 0563
ENCODING 1379
SWIDTH 576 0
DWIDTH 8 0
BBX 8 10 0 -3
BITMAP
7E
46
42
C2
42
46
3B
02
02
02
ENDCHAR
STARTCHAR 0564
ENCODING 1380
SWIDTH 576 0
DWIDTH 8 0
BBX 7 10 1 -3
BITMAP
F8
88
88
88
88
88
8E
08
08
08
ENDCHAR
STARTCHAR 0565
ENCODING 1381
SWIDTH 576 0
DWIDTH 8 0
BBX 6 10 1 0
BITMAP
80
80
80
FC
80
84
84
84
8C
74
ENDCHAR
STARTCHAR 0566
ENCODING 1382
SWIDTH 576 0
DWIDTH 8 0
BBX 8 11 0 -3
BITMAP
10
6E
46
46
C6
46
66
3E
06
06
07
ENDCHAR
STARTCHAR 0567
ENCODING 1383
SWIDTH 360 0
DWIDTH 5 0
BBX 4 12 1 -2
BITMAP
80
80
80
F0
80
80
80
80
80
E0
20
20
ENDCHAR
STARTCHAR 0568
ENCODING 1384
SWIDTH 576 0
DWIDTH 8 0
BBX 6 10 1 -3
BITMAP
F8
8C
84
84
84
84
84
80
80
FC
ENDCHAR
STARTCHAR 0569
ENCODING 1385
SWIDTH 576 0
DWIDTH 8 0
BBX 7 11 1 -3
BITMAP
10
EC
C4
84
9E
A4
A4
98
80
80
80
ENDCHAR
STARTCHAR 056A
ENCODING 1386
SWIDTH 576 0
DWIDTH 8 0
BBX 8 10 0 0
BITMAP
06
06
06
7F
46
46
C6
46
44
38
ENDCHAR
STARTCHAR 056B
ENCODING 1387
SWIDTH 576 0
DWIDTH 8 0
BBX 6 13 1 -3
BITMAP
80
80
80
F8
C4
84
84
84
84
84
80
80
80
ENDCHAR
STARTCHAR 056C
ENCODING 1388
SWIDTH 288 0
DWIDTH 4 0
BBX 3 10 1 -3
BITMAP
80
80
80
80
80
80
80
80
80
E0
ENDCHAR
STARTCHAR 056D
ENCODING 1389
SWIDTH 792 0
DWIDTH 11 0
BBX 9 13 1 -3
BITMAP
8000
8000
8000
F880
9880
9880
9880
9880
9880
8F80
8000
8000
8000
ENDCHAR
STARTCHAR 056E
ENCODING 1390
SWIDTH 504 0
DWIDTH 7 0
BBX 7 10 0 0
BITMAP
10
10
18
3E
44
46
C6
46
44
3C
ENDCHAR
STARTCHAR 056F
ENCODING 1391
SWIDTH 576 0
DWIDTH 8 0
BBX 6 13 1 -3
BITMAP
80
80
80
84
84
84
84
84
CC
74
04
04
04
ENDCHAR
STARTCHAR 0570
ENCODING 1392
SWIDTH 576 0
DWIDTH 8 0
BBX 6 10 1 0
BITMAP
80
80
80
F8
C4
84
84
84
84
84
ENDCHAR
STARTCHAR 0571
ENCODING 1393
SWIDTH 504 0
DWIDTH 7 0
BBX 7 10 0 0
BITMAP
30
0C
18
3C
44
44
C2
46
46
3E
ENDCHAR
STARTCHAR 0572
ENCODING 1394
SWIDTH 576 0
DWIDTH 8 0
BBX 7 10 1 -3
BITMAP
F8
88
88
88
88
88
88
08
08
0E
ENDCHAR
STARTCHAR 0573
ENCODING 1395
SWIDTH 576 0
DWIDTH 8 0
BBX 6 10 1 0
BITMAP
04
08
50
30
70
48
C8
8C
84
FC
ENDCHAR
STARTCHAR 0574
ENCODING 1396
SWIDTH 504 0
DWIDTH 7 0
BBX 5 10 1 0
BITMAP
38
30
18
88
88
88
88
88
88
F8
ENDCHAR
STARTCHAR 0575
ENCODING 1397
SWIDTH 216 0
DWIDTH 3 0
BBX 3 10 0 -3
BITMAP
60
60
60
60
60
60
60
40
40
C0
ENDCHAR
STARTCHAR 0576
ENCODING 1398
SWIDTH 504 0
DWIDTH 7 0
BBX 5 10 1 0
BITMAP
60
80
80
88
88
88
88
88
88
F8
ENDCHAR
STARTCHAR 0577
ENCODING 1399
SWIDTH 432 0
DWIDTH 6 0
BBX 5 10 0 -3
BITMAP
78
08
08
08
10
20
60
40
C0
78
ENDCHAR
STARTCHAR 0578
ENCODING 1400
SWIDTH 576 0
DWIDTH 8 0
BBX 6 7 1 0
BITMAP
F8
8C
84
84
84
84
84
ENDCHAR
STARTCHAR 0579
ENCODING 1401
SWIDTH 360 0
DWIDTH 5 0
BBX 5 10 0 -3
BITMAP
30
60
60
10
10
30
60
40
C0
78
ENDCHAR
STARTCHAR 057A
ENCODING 1402
SWIDTH 864 0
DWIDTH 12 0
BBX 10 10 1 -3
BITMAP
8840
8840
8840
8840
88C0
8CC0
F740
0040
0040
0040
ENDCHAR
STARTCHAR 057B
ENCODING 1403
SWIDTH 504 0
DWIDTH 7 0
BBX 5 10 1 -3
BITMAP
F8
88
88
88
C8
50
30
40
80
78
ENDCHAR
STARTCHAR 057C
ENCODING 1404
SWIDTH 504 0
DWIDTH 7 0
BBX 6 7 1 0
BITMAP
F8
8C
84
88
88
90
98
ENDCHAR
STARTCHAR 057D
ENCODING 1405
SWIDTH 576 0
DWIDTH 8 0
BBX 6 7 1 0
BITMAP
84
84
84
84
8C
8C
74
ENDCHAR
STARTCHAR 057E
ENCODING 1406
SWIDTH 576 0
DWIDTH 8 0
BBX 7 13 1 -3
BITMAP
04
04
04
84
84
84
84
84
8C
74
04
04
06
ENDCHAR
STARTCHAR 057F
ENCODING 1407
SWIDTH 864 0
DWIDTH 12 0
BBX 11 7 1 0
BITMAP
87C0
8440
8460
8460
8C60
8C60
7460
ENDCHAR
STARTCHAR 0580
ENCODING 1408
SWIDTH 576 0
DWIDTH 8 0
BBX 6 10 1 -3
BITMAP
F8
8C
84
84
84
84
84
80
80
80
ENDCHAR
STARTCHAR 0581
ENCODING 1409
SWIDTH 576 0
DWIDTH 8 0
BBX 7 10 0 -3
BITMAP
7E
46
42
C2
42
46
3A
02
44
38
ENDCHAR
STARTCHAR 0582
ENCODING 1410
SWIDTH 288 0
DWIDTH 4 0
BBX 3 7 1 0
BITMAP
80
80
80
80
80
80
E0
ENDCHAR
STARTCHAR 0583
ENCODING 1411
SWIDTH 864 0
DWIDTH 12 0
BBX 11 13 1 -3
BITMAP
0400
0400
0400
87C0
8440
8460
8460
8C60
8C60
7460
0400
0400
0400
ENDCHAR
STARTCHAR 0584
ENCODING 1412
SWIDTH 576 0
DWIDTH 8 0
BBX 8 11 0 -3
BITMAP
08
76
62
63
63
62
7E
60
60
FE
60
ENDCHAR
STARTCHAR 0585
ENCODING 1413
SWIDTH 576 0
DWIDTH 8 0
BBX 7 7 0 0
BITMAP
7C
42
42
C2
42
46
3C
ENDCHAR
STARTCHAR 0586
ENCODING 1414
SWIDTH 648 0
DWIDTH 9 0
BBX 8 13 1 -3
BITMAP
70
90
D0
7E
12
13
11
13
92
FC
10
10
10
ENDCHAR
STARTCHAR 0587
ENCODING 1415
SWIDTH 576 0
DWIDTH 8 0
BBX 7 10 1 0
BITMAP
80
80
80
80
80
8C
8C
8C
8C
FE
ENDCHAR
STARTCHAR 0589
ENCODING 1417
SWIDTH 288 0
DWIDTH 4 0
BBX 2 7 1 0
BITMAP
C0
00
00
00
00
00
C0
ENDCHAR
STARTCHAR 058A
ENCODING 1418
SWIDTH 360 0
DWIDTH 5 0
BBX 3 1 1 3
BITMAP
E0
ENDCHAR
STARTCHAR 058F
ENCODING 1423
SWIDTH 720 0
DWIDTH 10 0
BBX 9 10 1 0
BITMAP
7C00
C200
8300
8300
8300
0300
0780
0300
0300
0300
ENDCHAR
STARTCHAR 05B0
ENCODING 1456
SWIDTH 0 0
DWIDTH 0 0
BBX 1 3 4 -4
BITMAP
80
00
80
ENDCHAR
STARTCHAR 05B1
ENCODING 1457
SWIDTH 0 0
DWIDTH 0 0
BBX 5 3 2 -4
BITMAP
A8
00
48
ENDCHAR
STARTCHAR 05B2
ENCODING 1458
SWIDTH 0 0
DWIDTH 0 0
BBX 4 3 2 -4
BITMAP
F0
00
10
ENDCHAR
STARTCHAR 05B3
ENCODING 1459
SWIDTH 0 0
DWIDTH 0 0
BBX 5 3 2 -4
BITMAP
E8
40
08
ENDCHAR
STARTCHAR 05B4
ENCODING 1460
SWIDTH 0 0
DWIDTH 0 0
BBX 1 1 4 -2
BITMAP
80
ENDCHAR
STARTCHAR 05B5
ENCODING 1461
SWIDTH 0 0
DWIDTH 0 0
BBX 3 1 3 -2
BITMAP
A0
ENDCHAR
STARTCHAR 05B6
ENCODING 1462
SWIDTH 0 0
DWIDTH 0 0
BBX 2 3 3 -4
BITMAP
C0
00
80
ENDCHAR
STARTCHAR 05B7
ENCODING 1463
SWIDTH 0 0
DWIDTH 0 0
BBX 3 1 3 -2
BITMAP
E0
ENDCHAR
STARTCHAR 05B8
ENCODING 1464
SWIDTH 0 0
DWIDTH 0 0
BBX 3 2 3 -3
BITMAP
E0
40
ENDCHAR
STARTCHAR 05B9
ENCODING 1465
SWIDTH 0 0
DWIDTH 0 0
BBX 1 1 4 9
BITMAP
80
ENDCHAR
STARTCHAR 05BA
ENCODING 1466
SWIDTH 0 0
DWIDTH 0 0
BBX 1 1 0 9
BITMAP
80
ENDCHAR
STARTCHAR 05BB
ENCODING 1467
SWIDTH 0 0
DWIDTH 0 0
BBX 4 3 2 -4
BITMAP
80
20
10
ENDCHAR
STARTCHAR 05BC
ENCODING 1468
SWIDTH 0 0
DWIDTH 0 0
BBX 1 1 3 4
BITMAP
80
ENDCHAR
STARTCHAR 05BD
ENCODING 1469
SWIDTH 0 0
DWIDTH 0 0
BBX 1 2 3 -3
BITMAP
80
80
ENDCHAR
STARTCHAR 05BE
ENCODING 1470
SWIDTH 432 0
DWIDTH 6 0
BBX 5 1 1 7
BITMAP
F8
ENDCHAR
STARTCHAR 05BF
ENCODING 1471
SWIDTH 0 0
DWIDTH 0 0
BBX 4 1 1 9
BITMAP
F0
ENDCHAR
STARTCHAR 05C0
ENCODING 1472
SWIDTH 216 0
DWIDTH 3 0
BBX 1 11 1 -1
BITMAP
80
80
80
80
80
80
80
80
80
80
80
ENDCHAR
STARTCHAR 05C1
ENCODING 1473
SWIDTH 0 0
DWIDTH 0 0
BBX 1 1 9 9
BITMAP
80
ENDCHAR
STARTCHAR 05C2
ENCODING 1474
SWIDTH 0 0
DWIDTH 0 0
BBX 1 1 1 9
BITMAP
80
ENDCHAR
STARTCHAR 05C3
ENCODING 1475
SWIDTH 288 0
DWIDTH 4 0
BBX 2 7 1 0
BITMAP
C0
00
00
00
00
00
C0
ENDCHAR
STARTCHAR 05C4
ENCODING 1476
SWIDTH 0 0
DWIDTH 0 0
BBX 1 1 6 9
BITMAP
80
ENDCHAR
STARTCHAR 05C5
ENCODING 1477
SWIDTH 0 0
DWIDTH 0 0
BBX 1 1 4 -2
BITMAP
80
ENDCHAR
STARTCHAR 05C6
ENCODING 1478
SWIDTH 360 0
DWIDTH 5 0
BBX 4 8 1 0
BITMAP
60
80
80
80
80
80
80
F0
ENDCHAR
STARTCHAR 05C7
ENCODING 1479
SWIDTH 0 0
DWIDTH 0 0
BBX 3 2 3 -3
BITMAP
E0
40
ENDCHAR
STARTCHAR 05D0
ENCODING 1488
SWIDTH 648 0
DWIDTH 9 0
BBX 7 8 1 0
BITMAP
C2
62
22
56
DC
88
84
86
ENDCHAR
STARTCHAR 05D1
ENCODING 1489
SWIDTH 576 0
DWIDTH 8 0
BBX 7 8 1 0
BITMAP
F8
0C
04
04
04
04
04
FE
ENDCHAR
STARTCHAR 05D2
ENCODING 1490
SWIDTH 504 0
DWIDTH 7 0
BBX 5 8 1 0
BITMAP
E0
10
10
10
18
38
68
C8
ENDCHAR
STARTCHAR 05D3
ENCODING 1491
SWIDTH 576 0
DWIDTH 8 0
BBX 7 8 1 0
BITMAP
FE
08
08
08
08
08
08
08
ENDCHAR
STARTCHAR 05D4
ENCODING 1492
SWIDTH 648 0
DWIDTH 9 0
BBX 7 8 1 0
BITMAP
FC
06
02
82
82
82
82
82
ENDCHAR
STARTCHAR 05D5
ENCODING 1493
SWIDTH 216 0
DWIDTH 3 0
BBX 1 8 1 0
BITMAP
80
80
80
80
80
80
80
80
ENDCHAR
STARTCHAR 05D6
ENCODING 1494
SWIDTH 360 0
DWIDTH 5 0
BBX 3 8 1 0
BITMAP
E0
40
40
40
40
40
40
40
ENDCHAR
STARTCHAR 05D7
ENCODING 1495
SWIDTH 648 0
DWIDTH 9 0
BBX 7 8 1 0
BITMAP
FC
86
82
82
82
82
82
82
ENDCHAR
STARTCHAR 05D8
ENCODING 1496
SWIDTH 648 0
DWIDTH 9 0
BBX 7 8 1 0
BITMAP
BC
86
82
82
82
82
C4
38
ENDCHAR
STARTCHAR 05D9
ENCODING 1497
SWIDTH 216 0
DWIDTH 3 0
BBX 1 4 1 4
BITMAP
80
80
80
80
ENDCHAR
STARTCHAR 05DA
ENCODING 1498
SWIDTH 504 0
DWIDTH 7 0
BBX 6 11 1 -3
BITMAP
F8
08
0C
0C
0C
0C
0C
0C
0C
0C
0C
ENDCHAR
STARTCHAR 05DB
ENCODING 1499
SWIDTH 576 0
DWIDTH 8 0
BBX 6 8 1 0
BITMAP
F8
0C
04
04
04
04
0C
F0
ENDCHAR
STARTCHAR 05DC
ENCODING 1500
SWIDTH 576 0
DWIDTH 8 0
BBX 7 10 1 0
BITMAP
80
80
FE
06
06
04
08
10
10
10
ENDCHAR
STARTCHAR 05DD
ENCODING 1501
SWIDTH 648 0
DWIDTH 9 0
BBX 7 8 1 0
BITMAP
FC
86
82
82
82
82
82
FE
ENDCHAR
STARTCHAR 05DE
ENCODING 1502
SWIDTH 648 0
DWIDTH 9 0
BBX 7 8 1 0
BITMAP
FC
46
42
C2
C2
82
82
9E
ENDCHAR
STARTCHAR 05DF
ENCODING 1503
SWIDTH 216 0
DWIDTH 3 0
BBX 1 11 1 -3
BITMAP
80
80
80
80
80
80
80
80
80
80
80
ENDCHAR
STARTCHAR 05E0
ENCODING 1504
SWIDTH 360 0
DWIDTH 5 0
BBX 4 8 1 0
BITMAP
E0
20
30
30
30
30
30
F0
ENDCHAR
STARTCHAR 05E1
ENCODING 1505
SWIDTH 648 0
DWIDTH 9 0
BBX 7 8 1 0
BITMAP
FC
86
82
82
82
82
C6
7C
ENDCHAR
STARTCHAR 05E2
ENCODING 1506
SWIDTH 576 0
DWIDTH 8 0
BBX 6 9 1 -1
BITMAP
C4
44
44
44
64
24
2C
F0
80
ENDCHAR
STARTCHAR 05E3
ENCODING 1507
SWIDTH 576 0
DWIDTH 8 0
BBX 6 11 1 -3
BITMAP
FC
84
84
C4
64
04
04
04
04
04
04
ENDCHAR
STARTCHAR 05E4
ENCODING 1508
SWIDTH 576 0
DWIDTH 8 0
BBX 6 8 1 0
BITMAP
F8
84
84
C4
24
04
0C
F8
ENDCHAR
STARTCHAR 05E5
ENCODING 1509
SWIDTH 576 0
DWIDTH 8 0
BBX 6 11 1 -3
BITMAP
84
C4
4C
38
20
20
20
20
20
20
20
ENDCHAR
STARTCHAR 05E6
ENCODING 1510
SWIDTH 576 0
DWIDTH 8 0
BBX 6 8 1 0
BITMAP
C4
44
24
3C
10
18
0C
FC
ENDCHAR
STARTCHAR 05E7
ENCODING 1511
SWIDTH 576 0
DWIDTH 8 0
BBX 7 11 1 -3
BITMAP
FE
06
86
86
86
84
BC
A0
80
80
80
ENDCHAR
STARTCHAR 05E8
ENCODING 1512
SWIDTH 576 0
DWIDTH 8 0
BBX 6 8 1 0
BITMAP
F8
0C
04
04
04
04
04
04
ENDCHAR
STARTCHAR 05E9
ENCODING 1513
SWIDTH 792 0
DWIDTH 11 0
BBX 9 8 1 0
BITMAP
8880
8880
8880
9880
F080
8080
4300
3E00
ENDCHAR
STARTCHAR 05EA
ENCODING 1514
SWIDTH 720 0
DWIDTH 10 0
BBX 9 8 0 0
BITMAP
3F00
1180
1080
1080
1080
1080
3080
E080
ENDCHAR
STARTCHAR 05F0
ENCODING 1520
SWIDTH 432 0
DWIDTH 6 0
BBX 4 8 1 0
BITMAP
90
90
90
90
90
90
90
90
ENDCHAR
STARTCHAR 05F1
ENCODING 1521
SWIDTH 432 0
DWIDTH 6 0
BBX 4 8 1 0
BITMAP
90
90
90
90
10
10
10
10
ENDCHAR
STARTCHAR 05F2
ENCODING 1522
SWIDTH 432 0
DWIDTH 6 0
BBX 4 4 1 4
BITMAP
90
90
90
90
ENDCHAR
STARTCHAR 05F3
ENCODING 1523
SWIDTH 216 0
DWIDTH 3 0
BBX 1 4 1 6
BITMAP
80
80
80
80
ENDCHAR
STARTCHAR 05F4
ENCODING 1524
SWIDTH 360 0
DWIDTH 5 0
BBX 3 4 1 6
BITMAP
A0
A0
A0
A0
ENDCHAR
STARTCHAR 0700
ENCODING 1792
SWIDTH 576 0
DWIDTH 8 0
BBX 7 7 1 0
BITMAP
10
00
00
86
00
10
10
ENDCHAR
STARTCHAR 0701
ENCODING 1793
SWIDTH 216 0
DWIDTH 3 0
BBX 1 2 1 1
BITMAP
80
80
ENDCHAR
STARTCHAR 0702
ENCODING 1794
SWIDTH 216 0
DWIDTH 3 0
BBX 1 2 1 -2
BITMAP
80
80
ENDCHAR
STARTCHAR 0703
ENCODING 1795
SWIDTH 216 0
DWIDTH 3 0
BBX 1 5 1 1
BITMAP
80
00
00
80
80
ENDCHAR
STARTCHAR 0704
ENCODING 1796
SWIDTH 216 0
DWIDTH 3 0
BBX 1 5 1 -3
BITMAP
80
80
00
00
80
ENDCHAR
STARTCHAR 0705
ENCODING 1797
SWIDTH 504 0
DWIDTH 7 0
BBX 3 2 2 0
BITMAP
A0
A0
ENDCHAR
STARTCHAR 0706
ENCODING 1798
SWIDTH 504 0
DWIDTH 7 0
BBX 3 4 2 -2
BITMAP
80
80
20
20
ENDCHAR
STARTCHAR 0707
ENCODING 1799
SWIDTH 504 0
DWIDTH 7 0
BBX 3 3 2 -2
BITMAP
20
20
80
ENDCHAR
STARTCHAR 0708
ENCODING 1800
SWIDTH 360 0
DWIDTH 5 0
BBX 3 5 1 1
BITMAP
C0
00
00
20
20
ENDCHAR
STARTCHAR 0709
ENCODING 1801
SWIDTH 360 0
DWIDTH 5 0
BBX 3 4 1 -2
BITMAP
C0
00
00
20
ENDCHAR
STARTCHAR 070A
ENCODING 1802
SWIDTH 576 0
DWIDTH 8 0
BBX 8 10 0 0
BITMAP
34
24
00
FF
00
18
00
00
00
18
ENDCHAR
STARTCHAR 070B
ENCODING 1803
SWIDTH 576 0
DWIDTH 8 0
BBX 8 3 0 3
BITMAP
FF
00
18
ENDCHAR
STARTCHAR 070C
ENCODING 1804
SWIDTH 648 0
DWIDTH 9 0
BBX 5 5 2 3
BITMAP
C0
40
20
30
18
ENDCHAR
STARTCHAR 070D
ENCODING 1805
SWIDTH 576 0
DWIDTH 8 0
BBX 8 7 0 3
BITMAP
18
5A
18
FF
18
7A
18
ENDCHAR
STARTCHAR 070F
ENCODING 1807
SWIDTH 0 0
DWIDTH 0 0
BBX 0 0 0 0
BITMAP
ENDCHAR
STARTCHAR 0710
ENCODING 1808
SWIDTH 432 0
DWIDTH 6 0
BBX 5 11 1 -2
BITMAP
40
40
60
60
20
60
60
40
78
C0
80
ENDCHAR
STARTCHAR 0711
ENCODING 1809
SWIDTH 432 0
DWIDTH 6 0
BBX 4 6 1 5
BITMAP
40
60
60
70
70
80
ENDCHAR
STARTCHAR 0712
ENCODING 1810
SWIDTH 576 0
DWIDTH 8 0
BBX 9 6 -1 0
BITMAP
1F80
0180
0180
0180
0180
FF80
ENDCHAR
STARTCHAR 0713
ENCODING 1811
SWIDTH 648 0
DWIDTH 9 0
BBX 10 10 -1 -2
BITMAP
1000
1800
0800
0C00
0400
0200
FFC0
0400
0200
0100
ENDCHAR
STARTCHAR 0714
ENCODING 1812
SWIDTH 648 0
DWIDTH 9 0
BBX 10 10 -1 -2
BITMAP
1000
1800
0800
0C00
0400
1200
FFC0
0400
0200
0100
ENDCHAR
STARTCHAR 0715
ENCODING 1813
SWIDTH 504 0
DWIDTH 7 0
BBX 6 8 1 -2
BITMAP
78
0C
04
04
04
FC
00
40
ENDCHAR
STARTCHAR 0716
ENCODING 1814
SWIDTH 504 0
DWIDTH 7 0
BBX 6 6 1 0
BITMAP
78
0C
04
04
04
FC
ENDCHAR
STARTCHAR 0717
ENCODING 1815
SWIDTH 720 0
DWIDTH 10 0
BBX 7 7 2 -1
BITMAP
7E
92
92
92
92
62
02
ENDCHAR
STARTCHAR 0718
ENCODING 1816
SWIDTH 576 0
DWIDTH 8 0
BBX 6 6 1 0
BITMAP
38
6C
C4
C4
6C
38
ENDCHAR
STARTCHAR 0719
ENCODING 1817
SWIDTH 432 0
DWIDTH 6 0
BBX 3 7 2 -2
BITMAP
60
E0
60
60
20
20
40
ENDCHAR
STARTCHAR 071A
ENCODING 1818
SWIDTH 648 0
DWIDTH 9 0
BBX 9 4 -1 0
BITMAP
1200
1B00
1F80
F680
ENDCHAR
STARTCHAR 071B
ENCODING 1819
SWIDTH 720 0
DWIDTH 10 0
BBX 11 9 -1 -1
BITMAP
1000
1800
0800
0400
0400
0200
FFE0
0140
0080
ENDCHAR
STARTCHAR 071C
ENCODING 1820
SWIDTH 720 0
DWIDTH 10 0
BBX 11 9 -1 -1
BITMAP
1000
1800
0800
0400
0400
0200
FFE0
01C0
0080
ENDCHAR
STARTCHAR 071D
ENCODING 1821
SWIDTH 504 0
DWIDTH 7 0
BBX 7 3 -1 1
BITMAP
04
06
FC
ENDCHAR
STARTCHAR 071E
ENCODING 1822
SWIDTH 720 0
DWIDTH 10 0
BBX 12 13 -1 -2
BITMAP
0800
0800
2400
2400
0000
7E00
D200
9240
9240
9260
73D0
0200
1800
ENDCHAR
STARTCHAR 071F
ENCODING 1823
SWIDTH 576 0
DWIDTH 8 0
BBX 6 9 2 -2
BITMAP
70
C0
80
80
7C
44
04
08
08
ENDCHAR
STARTCHAR 0720
ENCODING 1824
SWIDTH 648 0
DWIDTH 9 0
BBX 10 9 -1 0
BITMAP
1000
1800
0C00
0600
0200
0100
0080
00C0
FFC0
ENDCHAR
STARTCHAR 0721
ENCODING 1825
SWIDTH 720 0
DWIDTH 10 0
BBX 8 8 1 -2
BITMAP
FF
19
11
11
21
3F
60
40
ENDCHAR
STARTCHAR 0722
ENCODING 1826
SWIDTH 576 0
DWIDTH 8 0
BBX 7 7 2 -3
BITMAP
C0
E0
70
10
08
04
02
ENDCHAR
STARTCHAR 0723
ENCODING 1827
SWIDTH 720 0
DWIDTH 10 0
BBX 11 6 -1 0
BITMAP
0E00
1BC0
1160
1220
0E20
F3C0
ENDCHAR
STARTCHAR 0724
ENCODING 1828
SWIDTH 720 0
DWIDTH 10 0
BBX 8 9 2 -3
BITMAP
70
DE
8B
91
73
3E
20
60
40
ENDCHAR
STARTCHAR 0725
ENCODING 1829
SWIDTH 720 0
DWIDTH 10 0
BBX 10 7 -1 1
BITMAP
1000
1800
0800
0400
0400
0640
F980
ENDCHAR
STARTCHAR 0726
ENCODING 1830
SWIDTH 576 0
DWIDTH 8 0
BBX 9 8 -1 0
BITMAP
0300
0D00
1100
1900
0F00
0100
0100
FF80
ENDCHAR
STARTCHAR 0727
ENCODING 1831
SWIDTH 576 0
DWIDTH 8 0
BBX 9 8 -1 0
BITMAP
6000
7800
4800
C800
F000
8000
8000
FF80
ENDCHAR
STARTCHAR 0728
ENCODING 1832
SWIDTH 648 0
DWIDTH 9 0
BBX 7 7 2 -3
BITMAP
88
CC
F8
C0
70
0C
FE
ENDCHAR
STARTCHAR 0729
ENCODING 1833
SWIDTH 576 0
DWIDTH 8 0
BBX 9 6 -1 0
BITMAP
1F80
1080
1080
1080
1080
EF80
ENDCHAR
STARTCHAR 072A
ENCODING 1834
SWIDTH 504 0
DWIDTH 7 0
BBX 6 9 1 0
BITMAP
60
60
00
78
0C
04
04
04
FC
ENDCHAR
STARTCHAR 072B
ENCODING 1835
SWIDTH 720 0
DWIDTH 10 0
BBX 10 6 -1 0
BITMAP
1F80
0200
0200
0200
0200
FFC0
ENDCHAR
STARTCHAR 072C
ENCODING 1836
SWIDTH 720 0
DWIDTH 10 0
BBX 8 6 1 1
BITMAP
30
48
44
C2
9A
79
ENDCHAR
STARTCHAR 072D
ENCODING 1837
SWIDTH 576 0
DWIDTH 8 0
BBX 9 8 -1 1
BITMAP
0400
0800
1F80
0180
0180
0180
0180
FF80
ENDCHAR
STARTCHAR 072E
ENCODING 1838
SWIDTH 648 0
DWIDTH 9 0
BBX 10 10 -1 -2
BITMAP
1200
1E00
0800
0C00
0400
0200
FFC0
0400
0200
0100
ENDCHAR
STARTCHAR 072F
ENCODING 1839
SWIDTH 504 0
DWIDTH 7 0
BBX 6 9 1 -3
BITMAP
78
0C
04
04
04
FC
00
40
18
ENDCHAR
STARTCHAR 0730
ENCODING 1840
SWIDTH 0 0
DWIDTH 0 0
BBX 2 2 3 8
BITMAP
80
C0
ENDCHAR
STARTCHAR 0731
ENCODING 1841
SWIDTH 0 0
DWIDTH 0 0
BBX 2 2 4 -4
BITMAP
40
C0
ENDCHAR
STARTCHAR 0732
ENCODING 1842
SWIDTH 0 0
DWIDTH 0 0
BBX 1 14 4 -4
BITMAP
80
80
00
00
00
00
00
00
00
00
00
00
80
80
ENDCHAR
STARTCHAR 0733
ENCODING 1843
SWIDTH 0 0
DWIDTH 0 0
BBX 4 3 3 8
BITMAP
40
90
20
ENDCHAR
STARTCHAR 0734
ENCODING 1844
SWIDTH 0 0
DWIDTH 0 0
BBX 3 2 3 -4
BITMAP
80
20
ENDCHAR
STARTCHAR 0735
ENCODING 1845
SWIDTH 0 0
DWIDTH 0 0
BBX 4 3 3 8
BITMAP
C0
C0
10
ENDCHAR
STARTCHAR 0736
ENCODING 1846
SWIDTH 0 0
DWIDTH 0 0
BBX 4 3 3 8
BITMAP
40
F0
60
ENDCHAR
STARTCHAR 0737
ENCODING 1847
SWIDTH 0 0
DWIDTH 0 0
BBX 3 2 3 -4
BITMAP
80
E0
ENDCHAR
STARTCHAR 0738
ENCODING 1848
SWIDTH 0 0
DWIDTH 0 0
BBX 3 2 3 -3
BITMAP
A0
A0
ENDCHAR
STARTCHAR 0739
ENCODING 1849
SWIDTH 0 0
DWIDTH 0 0
BBX 4 2 2 -4
BITMAP
10
A0
ENDCHAR
STARTCHAR 073A
ENCODING 1850
SWIDTH 0 0
DWIDTH 0 0
BBX 3 2 2 8
BITMAP
40
E0
ENDCHAR
STARTCHAR 073B
ENCODING 1851
SWIDTH 0 0
DWIDTH 0 0
BBX 3 2 4 -3
BITMAP
40
E0
ENDCHAR
STARTCHAR 073C
ENCODING 1852
SWIDTH 0 0
DWIDTH 0 0
BBX 1 1 4 -2
BITMAP
80
ENDCHAR
STARTCHAR 073D
ENCODING 1853
SWIDTH 0 0
DWIDTH 0 0
BBX 2 2 3 9
BITMAP
C0
80
ENDCHAR
STARTCHAR 073E
ENCODING 1854
SWIDTH 0 0
DWIDTH 0 0
BBX 2 2 4 -4
BITMAP
C0
C0
ENDCHAR
STARTCHAR 073F
ENCODING 1855
SWIDTH 0 0
DWIDTH 0 0
BBX 1 1 4 9
BITMAP
80
ENDCHAR
STARTCHAR 0740
ENCODING 1856
SWIDTH 0 0
DWIDTH 0 0
BBX 1 1 4 -2
BITMAP
80
ENDCHAR
STARTCHAR 0741
ENCODING 1857
SWIDTH 0 0
DWIDTH 0 0
BBX 1 1 4 9
BITMAP
80
ENDCHAR
STARTCHAR 0742
ENCODING 1858
SWIDTH 0 0
DWIDTH 0 0
BBX 1 1 4 -2
BITMAP
80
ENDCHAR
STARTCHAR 0743
ENCODING 1859
SWIDTH 0 0
DWIDTH 0 0
BBX 1 4 4 8
BITMAP
80
80
00
80
ENDCHAR
STARTCHAR 0744
ENCODING 1860
SWIDTH 0 0
DWIDTH 0 0
BBX 1 3 4 -4
BITMAP
80
00
80
ENDCHAR
STARTCHAR 0745
ENCODING 1861
SWIDTH 0 0
DWIDTH 0 0
BBX 5 3 2 8
BITMAP
20
00
D8
ENDCHAR
STARTCHAR 0746
ENCODING 1862
SWIDTH 0 0
DWIDTH 0 0
BBX 5 3 2 -4
BITMAP
D8
00
20
ENDCHAR
STARTCHAR 0747
ENCODING 1863
SWIDTH 0 0
DWIDTH 0 0
BBX 5 2 2 9
BITMAP
18
E0
ENDCHAR
STARTCHAR 0748
ENCODING 1864
SWIDTH 0 0
DWIDTH 0 0
BBX 3 1 3 -2
BITMAP
E0
ENDCHAR
STARTCHAR 0749
ENCODING 1865
SWIDTH 0 0
DWIDTH 0 0
BBX 4 3 2 8
BITMAP
80
F0
30
ENDCHAR
STARTCHAR 074A
ENCODING 1866
SWIDTH 0 0
DWIDTH 0 0
BBX 3 3 3 8
BITMAP
E0
E0
40
ENDCHAR
STARTCHAR 074D
ENCODING 1869
SWIDTH 648 0
DWIDTH 9 0
BBX 8 7 2 1
BITMAP
C3
42
62
26
34
1C
18
ENDCHAR
STARTCHAR 074E
ENCODING 1870
SWIDTH 648 0
DWIDTH 9 0
BBX 10 10 -1 0
BITMAP
0100
1100
1A00
0C00
0600
0200
0100
0080
00C0
FFC0
ENDCHAR
STARTCHAR 074F
ENCODING 1871
SWIDTH 648 0
DWIDTH 9 0
BBX 10 9 -1 0
BITMAP
1100
1E80
0C80
0680
0300
0100
0080
00C0
FFC0
ENDCHAR
STARTCHAR 0900
ENCODING 2304
SWIDTH 0 0
DWIDTH 0 0
BBX 5 4 -4 9
BITMAP
70
98
A8
20
ENDCHAR
STARTCHAR 0901
ENCODING 2305
SWIDTH 0 0
DWIDTH 0 0
BBX 5 4 -4 9
BITMAP
20
A8
88
70
ENDCHAR
STARTCHAR 0902
ENCODING 2306
SWIDTH 0 0
DWIDTH 0 0
BBX 1 2 -2 10
BITMAP
80
80
ENDCHAR
STARTCHAR 0903
ENCODING 2307
SWIDTH 288 0
DWIDTH 4 0
BBX 2 5 1 3
BITMAP
C0
00
00
00
C0
ENDCHAR
STARTCHAR 0904
ENCODING 2308
SWIDTH 720 0
DWIDTH 10 0
BBX 9 12 1 0
BITMAP
1000
1E00
0100
2780
D100
0900
1100
3B00
8D00
C900
7900
0100
ENDCHAR
STARTCHAR 0905
ENCODING 2309
SWIDTH 720 0
DWIDTH 10 0
BBX 9 9 1 0
BITMAP
2780
D100
0900
1100
3B00
8D00
C900
7900
0100
ENDCHAR
STARTCHAR 0906
ENCODING 2310
SWIDTH 864 0
DWIDTH 12 0
BBX 13 9 0 0
BITMAP
13F8
6920
0920
0920
3D20
C720
4520
3D20
0120
ENDCHAR
STARTCHAR 0907
ENCODING 2311
SWIDTH 504 0
DWIDTH 7 0
BBX 7 11 0 -2
BITMAP
FE
08
08
78
40
3C
04
64
78
18
0C
ENDCHAR
STARTCHAR 0908
ENCODING 2312
SWIDTH 504 0
DWIDTH 7 0
BBX 7 15 0 -2
BITMAP
0C
10
10
08
FE
08
08
78
40
3C
04
64
78
18
0C
ENDCHAR
STARTCHAR 0909
ENCODING 2313
SWIDTH 576 0
DWIDTH 8 0
BBX 8 9 0 0
BITMAP
FF
06
02
42
5C
42
21
13
0E
ENDCHAR
STARTCHAR 090A
ENCODING 2314
SWIDTH 792 0
DWIDTH 11 0
BBX 11 9 0 0
BITMAP
FFE0
0600
0200
4200
5CC0
6320
2120
3340
0E40
ENDCHAR
STARTCHAR 090B
ENCODING 2315
SWIDTH 936 0
DWIDTH 13 0
BBX 13 9 0 0
BITMAP
FFF8
0200
0200
3A60
46E0
0720
0E40
3240
0270
ENDCHAR
STARTCHAR 090C
ENCODING 2316
SWIDTH 648 0
DWIDTH 9 0
BBX 9 11 0 -2
BITMAP
FF80
0200
0200
7700
4900
4900
4100
6600
3400
0480
0300
ENDCHAR
STARTCHAR 090D
ENCODING 2317
SWIDTH 432 0
DWIDTH 6 0
BBX 6 14 0 -2
BITMAP
84
48
30
FC
44
44
44
4C
48
60
30
08
04
08
ENDCHAR
STARTCHAR 090E
ENCODING 2318
SWIDTH 432 0
DWIDTH 6 0
BBX 6 14 0 -2
BITMAP
80
F8
08
FC
44
44
44
4C
48
60
30
08
04
08
ENDCHAR
STARTCHAR 090F
ENCODING 2319
SWIDTH 432 0
DWIDTH 6 0
BBX 6 11 0 -2
BITMAP
FC
44
44
44
4C
48
60
30
08
04
08
ENDCHAR
STARTCHAR 0910
ENCODING 2320
SWIDTH 432 0
DWIDTH 6 0
BBX 6 14 0 -1
BITMAP
60
30
08
FC
44
44
44
4C
48
60
30
08
04
08
ENDCHAR
STARTCHAR 0911
ENCODING 2321
SWIDTH 864 0
DWIDTH 12 0
BBX 13 12 0 0
BITMAP
0110
0130
00E0
13F8
6920
0920
0920
3D20
C720
4520
3D20
0120
ENDCHAR
STARTCHAR 0912
ENCODING 2322
SWIDTH 864 0
DWIDTH 12 0
BBX 13 12 0 0
BITMAP
0200
03E0
0020
13F8
6920
0920
0920
3D20
C720
4520
3D20
0120
ENDCHAR
STARTCHAR 0913
ENCODING 2323
SWIDTH 864 0
DWIDTH 12 0
BBX 13 12 0 1
BITMAP
0180
00C0
0060
13F8
6920
0920
0920
3D20
C720
4520
3D20
0120
ENDCHAR
STARTCHAR 0914
ENCODING 2324
SWIDTH 864 0
DWIDTH 12 0
BBX 13 12 0 1
BITMAP
0040
0140
00E0
13F8
6920
0920
0920
3D20
C720
4520
3D20
0120
ENDCHAR
STARTCHAR 0915
ENCODING 2325
SWIDTH 720 0
DWIDTH 10 0
BBX 11 9 0 0
BITMAP
FFE0
0400
0400
7780
4640
4440
7C80
0580
0400
ENDCHAR
STARTCHAR 0916
ENCODING 2326
SWIDTH 792 0
DWIDTH 11 0
BBX 11 9 0 0
BITMAP
FFE0
1040
1140
5640
7440
43C0
20C0
1BC0
0440
ENDCHAR
STARTCHAR 0917
ENCODING 2327
SWIDTH 504 0
DWIDTH 7 0
BBX 7 9 0 0
BITMAP
FE
24
24
24
64
24
04
04
04
ENDCHAR
STARTCHAR 0918
ENCODING 2328
SWIDTH 576 0
DWIDTH 8 0
BBX 8 9 0 0
BITMAP
FF
42
42
62
7A
42
7E
02
02
ENDCHAR
STARTCHAR 0919
ENCODING 2329
SWIDTH 720 0
DWIDTH 10 0
BBX 10 9 0 0
BITMAP
FFC0
0200
0200
1E80
1080
4F00
6100
3100
0E00
ENDCHAR
STARTCHAR 091A
ENCODING 2330
SWIDTH 648 0
DWIDTH 9 0
BBX 9 9 0 0
BITMAP
FF80
0100
0100
7D00
3300
2300
3D00
0100
0100
ENDCHAR
STARTCHAR 091B
ENCODING 2331
SWIDTH 648 0
DWIDTH 9 0
BBX 9 9 0 0
BITMAP
FF80
4200
4200
4300
7500
2500
4300
6200
3C00
ENDCHAR
STARTCHAR 091C
ENCODING 2332
SWIDTH 720 0
DWIDTH 10 0
BBX 10 9 0 0
BITMAP
FFC0
0080
0080
4F80
4480
2480
3480
0880
0080
ENDCHAR
STARTCHAR 091D
ENCODING 2333
SWIDTH 720 0
DWIDTH 10 0
BBX 10 11 0 -2
BITMAP
FFC0
0880
0880
7880
4080
3D80
0680
6480
7880
1800
0C00
ENDCHAR
STARTCHAR 091E
ENCODING 2334
SWIDTH 720 0
DWIDTH 10 0
BBX 10 9 0 0
BITMAP
FFC0
0180
0180
3980
0580
0780
4D80
7980
0180
ENDCHAR
STARTCHAR 091F
ENCODING 2335
SWIDTH 576 0
DWIDTH 8 0
BBX 8 9 0 0
BITMAP
FF
04
04
3C
40
40
40
62
1C
ENDCHAR
STARTCHAR 0920
ENCODING 2336
SWIDTH 504 0
DWIDTH 7 0
BBX 8 9 0 0
BITMAP
FF
04
04
3C
40
42
42
66
3C
ENDCHAR
STARTCHAR 0921
ENCODING 2337
SWIDTH 648 0
DWIDTH 9 0
BBX 9 9 0 0
BITMAP
FF80
0200
0200
1E00
1000
4F00
6100
3100
0E00
ENDCHAR
STARTCHAR 0922
ENCODING 2338
SWIDTH 576 0
DWIDTH 8 0
BBX 8 9 0 0
BITMAP
FF
04
04
7C
40
4C
4A
6A
3C
ENDCHAR
STARTCHAR 0923
ENCODING 2339
SWIDTH 648 0
DWIDTH 9 0
BBX 9 9 0 0
BITMAP
FF80
4B00
4B00
4B00
4B00
7300
0300
0300
0300
ENDCHAR
STARTCHAR 0924
ENCODING 2340
SWIDTH 576 0
DWIDTH 8 0
BBX 8 9 0 0
BITMAP
FF
02
02
7E
42
42
42
22
12
ENDCHAR
STARTCHAR 0925
ENCODING 2341
SWIDTH 648 0
DWIDTH 9 0
BBX 8 9 1 0
BITMAP
47
B2
92
52
32
C6
7E
02
02
ENDCHAR
STARTCHAR 0926
ENCODING 2342
SWIDTH 504 0
DWIDTH 7 0
BBX 7 10 0 -1
BITMAP
FE
04
04
7C
40
44
6C
1C
04
02
ENDCHAR
STARTCHAR 0927
ENCODING 2343
SWIDTH 576 0
DWIDTH 8 0
BBX 7 9 1 0
BITMAP
4E
A4
84
84
74
84
DC
24
04
ENDCHAR
STARTCHAR 0928
ENCODING 2344
SWIDTH 576 0
DWIDTH 8 0
BBX 8 9 0 0
BITMAP
FF
02
02
7E
62
22
02
02
02
ENDCHAR
STARTCHAR 0929
ENCODING 2345
SWIDTH 576 0
DWIDTH 8 0
BBX 8 9 0 -1
BITMAP
FF
02
02
7E
62
22
02
02
1A
ENDCHAR
STARTCHAR 092A
ENCODING 2346
SWIDTH 504 0
DWIDTH 7 0
BBX 7 9 0 0
BITMAP
FE
44
44
44
44
4C
34
04
04
ENDCHAR
STARTCHAR 092B
ENCODING 2347
SWIDTH 720 0
DWIDTH 10 0
BBX 10 9 0 0
BITMAP
FFC0
4400
4400
4780
4680
4C40
3480
0580
0400
ENDCHAR
STARTCHAR 092C
ENCODING 2348
SWIDTH 504 0
DWIDTH 7 0
BBX 7 9 0 0
BITMAP
FE
04
04
74
64
54
7C
04
04
ENDCHAR
STARTCHAR 092D
ENCODING 2349
SWIDTH 576 0
DWIDTH 8 0
BBX 8 9 0 0
BITMAP
47
A2
A2
22
3E
22
22
02
02
ENDCHAR
STARTCHAR 092E
ENCODING 2350
SWIDTH 504 0
DWIDTH 7 0
BBX 7 9 0 0
BITMAP
FE
44
44
44
FC
C4
44
04
04
ENDCHAR
STARTCHAR 092F
ENCODING 2351
SWIDTH 576 0
DWIDTH 8 0
BBX 8 9 0 0
BITMAP
FF
22
12
32
62
66
3A
02
02
ENDCHAR
STARTCHAR 0930
ENCODING 2352
SWIDTH 432 0
DWIDTH 6 0
BBX 6 9 0 0
BITMAP
FC
08
08
C8
78
20
10
18
08
ENDCHAR
STARTCHAR 0931
ENCODING 2353
SWIDTH 432 0
DWIDTH 6 0
BBX 6 10 0 -2
BITMAP
FC
08
08
C8
78
20
10
18
08
C0
ENDCHAR
STARTCHAR 0932
ENCODING 2354
SWIDTH 648 0
DWIDTH 9 0
BBX 9 9 0 0
BITMAP
FF80
0100
0100
3300
4D00
4900
4100
6100
1100
ENDCHAR
STARTCHAR 0933
ENCODING 2355
SWIDTH 648 0
DWIDTH 9 0
BBX 9 8 0 1
BITMAP
FF80
0200
0200
7700
4C80
4880
4C80
7700
ENDCHAR
STARTCHAR 0934
ENCODING 2356
SWIDTH 648 0
DWIDTH 9 0
BBX 9 10 0 -2
BITMAP
FF80
0200
0200
7700
4C80
4880
4C80
7700
0000
0600
ENDCHAR
STARTCHAR 0935
ENCODING 2357
SWIDTH 504 0
DWIDTH 7 0
BBX 7 9 0 0
BITMAP
FE
04
04
74
84
84
7C
04
04
ENDCHAR
STARTCHAR 0936
ENCODING 2358
SWIDTH 648 0
DWIDTH 9 0
BBX 9 9 0 0
BITMAP
FF80
7900
4900
7D00
0900
7900
6100
1100
0900
ENDCHAR
STARTCHAR 0937
ENCODING 2359
SWIDTH 504 0
DWIDTH 7 0
BBX 7 9 0 0
BITMAP
FE
44
64
54
4C
4C
34
04
04
ENDCHAR
STARTCHAR 0938
ENCODING 2360
SWIDTH 648 0
DWIDTH 9 0
BBX 9 9 0 0
BITMAP
FF80
0900
0900
C900
7F00
2100
1100
1900
0900
ENDCHAR
STARTCHAR 0939
ENCODING 2361
SWIDTH 504 0
DWIDTH 7 0
BBX 7 10 0 -1
BITMAP
FE
04
04
7C
40
3C
44
44
60
18
ENDCHAR
STARTCHAR 093A
ENCODING 2362
SWIDTH 0 0
DWIDTH 0 0
BBX 1 2 -2 9
BITMAP
80
80
ENDCHAR
STARTCHAR 093B
ENCODING 2363
SWIDTH 216 0
DWIDTH 3 0
BBX 3 11 0 0
BITMAP
40
40
E0
40
40
40
40
40
40
40
40
ENDCHAR
STARTCHAR 093C
ENCODING 2364
SWIDTH 0 0
DWIDTH 0 0
BBX 2 1 -5 -1
BITMAP
C0
ENDCHAR
STARTCHAR 093D
ENCODING 2365
SWIDTH 432 0
DWIDTH 6 0
BBX 6 8 0 0
BITMAP
7C
40
60
10
08
04
C4
3C
ENDCHAR
STARTCHAR 093E
ENCODING 2366
SWIDTH 216 0
DWIDTH 3 0
BBX 3 9 0 0
BITMAP
E0
40
40
40
40
40
40
40
40
ENDCHAR
STARTCHAR 093F
ENCODING 2367
SWIDTH 216 0
DWIDTH 3 0
BBX 9 12 0 0
BITMAP
3C00
4200
4100
E080
4000
4000
4000
4000
4000
4000
4000
4000
ENDCHAR
STARTCHAR 0940
ENCODING 2368
SWIDTH 216 0
DWIDTH 3 0
BBX 6 12 -3 0
BITMAP
F0
98
88
1C
08
08
08
08
08
08
08
08
ENDCHAR
STARTCHAR 0941
ENCODING 2369
SWIDTH 0 0
DWIDTH 0 0
BBX 6 4 -6 -4
BITMAP
1C
84
C4
38
ENDCHAR
STARTCHAR 0942
ENCODING 2370
SWIDTH 0 0
DWIDTH 0 0
BBX 6 4 -4 -4
BITMAP
70
88
84
E0
ENDCHAR
STARTCHAR 0943
ENCODING 2371
SWIDTH 0 0
DWIDTH 0 0
BBX 3 4 -4 -4
BITMAP
E0
80
80
60
ENDCHAR
STARTCHAR 0944
ENCODING 2372
SWIDTH 0 0
DWIDTH 0 0
BBX 4 6 -4 -4
BITMAP
60
80
80
60
80
70
ENDCHAR
STARTCHAR 0945
ENCODING 2373
SWIDTH 0 0
DWIDTH 0 0
BBX 5 3 -4 9
BITMAP
88
98
70
ENDCHAR
STARTCHAR 0946
ENCODING 2374
SWIDTH 0 0
DWIDTH 0 0
BBX 5 3 -6 9
BITMAP
80
F8
08
ENDCHAR
STARTCHAR 0947
ENCODING 2375
SWIDTH 0 0
DWIDTH 0 0
BBX 3 4 -5 9
BITMAP
80
80
40
20
ENDCHAR
STARTCHAR 0948
ENCODING 2376
SWIDTH 0 0
DWIDTH 0 0
BBX 5 3 -6 10
BITMAP
30
D0
38
ENDCHAR
STARTCHAR 0949
ENCODING 2377
SWIDTH 216 0
DWIDTH 3 0
BBX 5 12 -1 0
BITMAP
88
C8
70
70
20
20
20
20
20
20
20
20
ENDCHAR
STARTCHAR 094A
ENCODING 2378
SWIDTH 216 0
DWIDTH 3 0
BBX 6 12 -3 0
BITMAP
80
F8
08
1C
08
08
08
08
08
08
08
08
ENDCHAR
STARTCHAR 094B
ENCODING 2379
SWIDTH 216 0
DWIDTH 3 0
BBX 5 12 -2 1
BITMAP
C0
40
20
38
10
10
10
10
10
10
10
10
ENDCHAR
STARTCHAR 094C
ENCODING 2380
SWIDTH 216 0
DWIDTH 3 0
BBX 6 12 -3 1
BITMAP
10
D0
38
1C
08
08
08
08
08
08
08
08
ENDCHAR
STARTCHAR 094D
ENCODING 2381
SWIDTH 0 0
DWIDTH 0 0
BBX 3 3 -2 -3
BITMAP
80
40
20
ENDCHAR
STARTCHAR 094E
ENCODING 2382
SWIDTH 144 0
DWIDTH 2 0
BBX 2 9 0 0
BITMAP
C0
80
80
80
80
80
80
80
80
ENDCHAR
STARTCHAR 094F
ENCODING 2383
SWIDTH 216 0
DWIDTH 3 0
BBX 7 12 -4 0
BITMAP
88
86
7A
0E
04
04
04
04
04
04
04
04
ENDCHAR
STARTCHAR 0950
ENCODING 2384
SWIDTH 864 0
DWIDTH 12 0
BBX 12 11 0 0
BITMAP
0080
02A0
03C0
3800
4800
08E0
19A0
8F10
4420
64A0
3C40
ENDCHAR
STARTCHAR 0951
ENCODING 2385
SWIDTH 0 0
DWIDTH 0 0
BBX 1 4 -2 9
BITMAP
80
80
80
80
ENDCHAR
STARTCHAR 0952
ENCODING 2386
SWIDTH 0 0
DWIDTH 0 0
BBX 8 1 -8 -4
BITMAP
FF
ENDCHAR
STARTCHAR 0953
ENCODING 2387
SWIDTH 0 0
DWIDTH 0 0
BBX 3 3 -6 10
BITMAP
80
60
20
ENDCHAR
STARTCHAR 0954
ENCODING 2388
SWIDTH 0 0
DWIDTH 0 0
BBX 3 3 -3 10
BITMAP
20
40
80
ENDCHAR
STARTCHAR 0955
ENCODING 2389
SWIDTH 0 0
DWIDTH 0 0
BBX 5 4 -4 9
BITMAP
88
98
70
F8
ENDCHAR
STARTCHAR 0956
ENCODING 2390
SWIDTH 0 0
DWIDTH 0 0
BBX 6 1 -6 -2
BITMAP
FC
ENDCHAR
STARTCHAR 0957
ENCODING 2391
SWIDTH 0 0
DWIDTH 0 0
BBX 6 3 -6 -4
BITMAP
FC
00
FC
ENDCHAR
STARTCHAR 0958
ENCODING 2392
SWIDTH 720 0
DWIDTH 10 0
BBX 11 10 0 -2
BITMAP
FFE0
0400
0400
7780
4640
4440
7C80
0580
0400
3000
ENDCHAR
STARTCHAR 0959
ENCODING 2393
SWIDTH 792 0
DWIDTH 11 0
BBX 11 11 0 -3
BITMAP
FFE0
1040
1140
5640
7440
43C0
20C0
1BC0
0440
0000
0C00
ENDCHAR
STARTCHAR 095A
ENCODING 2394
SWIDTH 504 0
DWIDTH 7 0
BBX 7 9 0 0
BITMAP
FE
24
24
24
64
24
04
64
04
ENDCHAR
STARTCHAR 095B
ENCODING 2395
SWIDTH 720 0
DWIDTH 10 0
BBX 10 10 0 -2
BITMAP
FFC0
0080
0080
4F80
4480
2480
3480
0880
0080
1800
ENDCHAR
STARTCHAR 095C
ENCODING 2396
SWIDTH 648 0
DWIDTH 9 0
BBX 9 11 0 -3
BITMAP
FF80
0200
0200
1E00
1000
4F00
6100
3100
0E00
0000
1800
ENDCHAR
STARTCHAR 095D
ENCODING 2397
SWIDTH 576 0
DWIDTH 8 0
BBX 8 11 0 -3
BITMAP
FF
04
04
7C
40
4C
4A
6A
3C
00
18
ENDCHAR
STARTCHAR 095E
ENCODING 2398
SWIDTH 720 0
DWIDTH 10 0
BBX 10 9 0 -1
BITMAP
FFC0
4400
4400
4780
4680
4C40
3480
0580
3400
ENDCHAR
STARTCHAR 095F
ENCODING 2399
SWIDTH 576 0
DWIDTH 8 0
BBX 8 9 0 -1
BITMAP
FF
22
12
32
62
66
3A
02
1A
ENDCHAR
STARTCHAR 0960
ENCODING 2400
SWIDTH 936 0
DWIDTH 13 0
BBX 13 12 0 -3
BITMAP
FFF8
0200
0200
3A60
47C0
0760
1A80
3290
0270
0080
0040
0030
ENDCHAR
STARTCHAR 0961
ENCODING 2401
SWIDTH 648 0
DWIDTH 9 0
BBX 9 13 0 -4
BITMAP
FF80
0200
0200
7F00
4900
4900
4300
6600
2400
0780
0600
0400
0380
ENDCHAR
STARTCHAR 0962
ENCODING 2402
SWIDTH 0 0
DWIDTH 0 0
BBX 6 6 -6 -4
BITMAP
48
B4
84
88
50
0C
ENDCHAR
STARTCHAR 0963
ENCODING 2403
SWIDTH 0 0
DWIDTH 0 0
BBX 7 8 -6 -4
BITMAP
48
B4
84
88
50
0C
08
0E
ENDCHAR
STARTCHAR 0964
ENCODING 2404
SWIDTH 648 0
DWIDTH 9 0
BBX 1 10 5 -1
BITMAP
80
80
80
80
80
80
80
80
80
80
ENDCHAR
STARTCHAR 0965
ENCODING 2405
SWIDTH 648 0
DWIDTH 9 0
BBX 4 10 3 -1
BITMAP
90
90
90
90
90
90
90
90
90
90
ENDCHAR
STARTCHAR 0966
ENCODING 2406
SWIDTH 576 0
DWIDTH 8 0
BBX 6 6 1 1
BITMAP
78
4C
84
84
48
30
ENDCHAR
STARTCHAR 0967
ENCODING 2407
SWIDTH 576 0
DWIDTH 8 0
BBX 4 9 2 0
BITMAP
60
B0
90
90
F0
10
10
10
10
ENDCHAR
STARTCHAR 0968
ENCODING 2408
SWIDTH 576 0
DWIDTH 8 0
BBX 6 10 1 -1
BITMAP
30
C8
04
04
04
68
70
10
08
08
ENDCHAR
STARTCHAR 0969
ENCODING 2409
SWIDTH 576 0
DWIDTH 8 0
BBX 5 10 2 -2
BITMAP
60
B0
10
30
70
08
08
D0
60
20
ENDCHAR
STARTCHAR 096A
ENCODING 2410
SWIDTH 576 0
DWIDTH 8 0
BBX 6 8 1 1
BITMAP
84
84
48
30
68
48
48
38
ENDCHAR
STARTCHAR 096B
ENCODING 2411
SWIDTH 576 0
DWIDTH 8 0
BBX 6 8 1 1
BITMAP
40
C8
8C
48
78
04
04
04
ENDCHAR
STARTCHAR 096C
ENCODING 2412
SWIDTH 576 0
DWIDTH 8 0
BBX 6 10 1 -1
BITMAP
30
40
80
40
30
40
48
48
38
0C
ENDCHAR
STARTCHAR 096D
ENCODING 2413
SWIDTH 576 0
DWIDTH 8 0
BBX 7 8 0 0
BITMAP
8C
9A
52
4A
4E
42
24
1C
ENDCHAR
STARTCHAR 096E
ENCODING 2414
SWIDTH 576 0
DWIDTH 8 0
BBX 4 9 2 0
BITMAP
20
40
40
40
C0
80
80
90
60
ENDCHAR
STARTCHAR 096F
ENCODING 2415
SWIDTH 576 0
DWIDTH 8 0
BBX 4 10 2 -2
BITMAP
60
D0
90
90
60
40
20
20
10
10
ENDCHAR
STARTCHAR 0970
ENCODING 2416
SWIDTH 360 0
DWIDTH 5 0
BBX 3 2 1 3
BITMAP
E0
E0
ENDCHAR
STARTCHAR 0971
ENCODING 2417
SWIDTH 360 0
DWIDTH 5 0
BBX 2 2 2 10
BITMAP
C0
C0
ENDCHAR
STARTCHAR 0972
ENCODING 2418
SWIDTH 720 0
DWIDTH 10 0
BBX 10 12 1 0
BITMAP
0440
04C0
0380
2780
D100
0900
1100
3B00
8D00
C900
7900
0100
ENDCHAR
STARTCHAR 0973
ENCODING 2419
SWIDTH 720 0
DWIDTH 10 0
BBX 9 11 1 0
BITMAP
0100
0100
2780
D100
0900
1100
3B00
8D00
C900
7900
0100
ENDCHAR
STARTCHAR 0974
ENCODING 2420
SWIDTH 864 0
DWIDTH 12 0
BBX 13 11 0 0
BITMAP
0020
0020
13F8
6920
0920
0920
3D20
C720
4520
3D20
0120
ENDCHAR
STARTCHAR 0975
ENCODING 2421
SWIDTH 864 0
DWIDTH 12 0
BBX 13 12 0 0
BITMAP
0440
0430
03D0
13F8
6920
0920
0920
3D20
C720
4520
3D20
0120
ENDCHAR
STARTCHAR 0976
ENCODING 2422
SWIDTH 720 0
DWIDTH 10 0
BBX 9 11 1 -2
BITMAP
2780
D100
0900
1100
3B00
8D00
C900
7900
0100
0000
3E00
ENDCHAR
STARTCHAR 0977
ENCODING 2423
SWIDTH 720 0
DWIDTH 10 0
BBX 9 13 1 -4
BITMAP
2780
D100
0900
1100
3B00
8D00
C900
7900
0100
0000
3E00
0000
3E00
ENDCHAR
STARTCHAR 0979
ENCODING 2425
SWIDTH 720 0
DWIDTH 10 0
BBX 10 11 0 -3
BITMAP
FFC0
0080
0080
4F80
4480
2480
3480
0880
3680
0000
1800
ENDCHAR
STARTCHAR 097A
ENCODING 2426
SWIDTH 576 0
DWIDTH 8 0
BBX 8 9 0 0
BITMAP
FF
22
12
32
6E
66
3A
02
02
ENDCHAR
STARTCHAR 097B
ENCODING 2427
SWIDTH 576 0
DWIDTH 8 0
BBX 8 9 0 0
BITMAP
FF
02
02
7E
62
22
02
02
FF
ENDCHAR
STARTCHAR 097C
ENCODING 2428
SWIDTH 720 0
DWIDTH 10 0
BBX 10 9 0 0
BITMAP
FFC0
0080
0080
4F80
4480
2480
3480
0880
FFC0
ENDCHAR
STARTCHAR 097D
ENCODING 2429
SWIDTH 576 0
DWIDTH 8 0
BBX 6 9 1 0
BITMAP
30
C8
04
04
04
08
30
20
20
ENDCHAR
STARTCHAR 097E
ENCODING 2430
SWIDTH 648 0
DWIDTH 9 0
BBX 9 10 0 -1
BITMAP
FF80
0200
0200
1E00
1000
4F00
6100
3100
0E00
FF00
ENDCHAR
STARTCHAR 097F
ENCODING 2431
SWIDTH 504 0
DWIDTH 7 0
BBX 7 9 0 0
BITMAP
FE
04
04
74
64
54
7C
04
FE
ENDCHAR
STARTCHAR 0981
ENCODING 2433
SWIDTH 0 0
DWIDTH 0 0
BBX 4 2 -4 9
BITMAP
50
E0
ENDCHAR
STARTCHAR 0982
ENCODING 2434
SWIDTH 288 0
DWIDTH 4 0
BBX 4 7 0 1
BITMAP
40
A0
60
00
40
20
10
ENDCHAR
STARTCHAR 0983
ENCODING 2435
SWIDTH 288 0
DWIDTH 4 0
BBX 3 6 0 1
BITMAP
60
A0
60
00
E0
60
ENDCHAR
STARTCHAR 0985
ENCODING 2437
SWIDTH 648 0
DWIDTH 9 0
BBX 9 8 0 0
BITMAP
FF80
4900
5500
4300
2300
1D00
0100
0100
ENDCHAR
STARTCHAR 0986
ENCODING 2438
SWIDTH 864 0
DWIDTH 12 0
BBX 12 9 0 0
BITMAP
0020
FFB0
4960
5520
4320
2320
1D20
0120
0120
ENDCHAR
STARTCHAR 0987
ENCODING 2439
SWIDTH 504 0
DWIDTH 7 0
BBX 7 12 0 -1
BITMAP
80
98
64
FE
10
68
08
08
70
08
04
02
ENDCHAR
STARTCHAR 0988
ENCODING 2440
SWIDTH 576 0
DWIDTH 8 0
BBX 8 11 0 0
BITMAP
80
80
7E
FF
20
56
0C
54
24
04
04
ENDCHAR
STARTCHAR 0989
ENCODING 2441
SWIDTH 576 0
DWIDTH 8 0
BBX 8 10 0 1
BITMAP
80
48
34
FF
10
94
56
4A
22
1C
ENDCHAR
STARTCHAR 098A
ENCODING 2442
SWIDTH 576 0
DWIDTH 8 0
BBX 8 10 0 1
BITMAP
80
6C
12
FF
90
D2
56
6A
22
1C
ENDCHAR
STARTCHAR 098B
ENCODING 2443
SWIDTH 576 0
DWIDTH 8 0
BBX 8 9 0 0
BITMAP
0A
B9
4A
3A
46
3A
0A
0A
0A
ENDCHAR
STARTCHAR 098C
ENCODING 2444
SWIDTH 504 0
DWIDTH 7 0
BBX 5 8 2 1
BITMAP
80
80
C0
30
68
98
98
70
ENDCHAR
STARTCHAR 098F
ENCODING 2447
SWIDTH 576 0
DWIDTH 8 0
BBX 7 8 0 0
BITMAP
06
1A
12
92
82
7E
02
02
ENDCHAR
STARTCHAR 0990
ENCODING 2448
SWIDTH 648 0
DWIDTH 9 0
BBX 8 12 0 0
BITMAP
10
20
18
07
07
1B
12
92
82
7E
02
02
ENDCHAR
STARTCHAR 0993
ENCODING 2451
SWIDTH 576 0
DWIDTH 8 0
BBX 7 7 0 1
BITMAP
04
9A
A2
56
42
22
1E
ENDCHAR
STARTCHAR 0994
ENCODING 2452
SWIDTH 648 0
DWIDTH 9 0
BBX 8 11 0 1
BITMAP
10
20
18
06
05
9B
A3
56
42
22
1E
ENDCHAR
STARTCHAR 0995
ENCODING 2453
SWIDTH 576 0
DWIDTH 8 0
BBX 8 8 0 0
BITMAP
FF
08
3E
C9
29
1A
08
08
ENDCHAR
STARTCHAR 0996
ENCODING 2454
SWIDTH 504 0
DWIDTH 7 0
BBX 7 9 0 0
BITMAP
04
06
B4
54
34
34
0C
04
04
ENDCHAR
STARTCHAR 0997
ENCODING 2455
SWIDTH 504 0
DWIDTH 7 0
BBX 6 9 1 0
BITMAP
08
6C
98
E8
28
48
08
08
08
ENDCHAR
STARTCHAR 0998
ENCODING 2456
SWIDTH 432 0
DWIDTH 6 0
BBX 6 8 0 0
BITMAP
FC
88
78
28
68
18
08
08
ENDCHAR
STARTCHAR 0999
ENCODING 2457
SWIDTH 504 0
DWIDTH 7 0
BBX 6 7 0 0
BITMAP
7C
A8
B0
AC
54
44
38
ENDCHAR
STARTCHAR 099A
ENCODING 2458
SWIDTH 432 0
DWIDTH 6 0
BBX 6 8 0 0
BITMAP
FC
40
40
78
48
48
50
60
ENDCHAR
STARTCHAR 099B
ENCODING 2459
SWIDTH 504 0
DWIDTH 7 0
BBX 7 9 0 -1
BITMAP
FE
80
F8
94
64
18
70
0C
02
ENDCHAR
STARTCHAR 099C
ENCODING 2460
SWIDTH 576 0
DWIDTH 8 0
BBX 8 8 0 0
BITMAP
FF
28
AF
AA
56
46
3A
02
ENDCHAR
STARTCHAR 099D
ENCODING 2461
SWIDTH 576 0
DWIDTH 8 0
BBX 8 9 0 0
BITMAP
02
FB
0A
3A
CA
6A
1E
0A
08
ENDCHAR
STARTCHAR 099E
ENCODING 2462
SWIDTH 792 0
DWIDTH 11 0
BBX 10 8 0 0
BITMAP
0E00
12C0
1340
9AC0
8240
7B40
06C0
0200
ENDCHAR
STARTCHAR 099F
ENCODING 2463
SWIDTH 432 0
DWIDTH 6 0
BBX 7 10 -1 1
BITMAP
80
58
24
7E
20
2C
24
24
28
30
ENDCHAR
STARTCHAR 09A0
ENCODING 2464
SWIDTH 432 0
DWIDTH 6 0
BBX 6 11 0 1
BITMAP
40
40
20
FC
10
10
28
28
48
88
70
ENDCHAR
STARTCHAR 09A1
ENCODING 2465
SWIDTH 576 0
DWIDTH 8 0
BBX 8 7 0 1
BITMAP
FF
10
90
56
4A
22
3C
ENDCHAR
STARTCHAR 09A2
ENCODING 2466
SWIDTH 432 0
DWIDTH 6 0
BBX 6 8 0 0
BITMAP
FC
40
40
58
48
48
50
60
ENDCHAR
STARTCHAR 09A3
ENCODING 2467
SWIDTH 432 0
DWIDTH 6 0
BBX 5 9 1 0
BITMAP
08
68
98
88
88
08
08
08
08
ENDCHAR
STARTCHAR 09A4
ENCODING 2468
SWIDTH 576 0
DWIDTH 8 0
BBX 8 7 0 1
BITMAP
FF
08
56
52
42
42
3C
ENDCHAR
STARTCHAR 09A5
ENCODING 2469
SWIDTH 504 0
DWIDTH 7 0
BBX 7 9 0 0
BITMAP
04
66
94
94
34
64
1C
04
04
ENDCHAR
STARTCHAR 09A6
ENCODING 2470
SWIDTH 432 0
DWIDTH 6 0
BBX 6 8 0 0
BITMAP
FC
40
4C
78
48
48
08
08
ENDCHAR
STARTCHAR 09A7
ENCODING 2471
SWIDTH 432 0
DWIDTH 6 0
BBX 5 8 1 0
BITMAP
C8
90
70
90
D0
30
10
10
ENDCHAR
STARTCHAR 09A8
ENCODING 2472
SWIDTH 432 0
DWIDTH 6 0
BBX 6 8 0 0
BITMAP
FC
04
34
4C
8C
44
04
04
ENDCHAR
STARTCHAR 09AA
ENCODING 2474
SWIDTH 504 0
DWIDTH 7 0
BBX 7 9 0 0
BITMAP
04
36
CC
D4
24
04
04
04
04
ENDCHAR
STARTCHAR 09AB
ENCODING 2475
SWIDTH 576 0
DWIDTH 8 0
BBX 8 8 0 0
BITMAP
FF
24
2A
29
6B
18
08
08
ENDCHAR
STARTCHAR 09AC
ENCODING 2476
SWIDTH 432 0
DWIDTH 6 0
BBX 6 8 0 0
BITMAP
FC
08
38
C8
28
18
08
08
ENDCHAR
STARTCHAR 09AD
ENCODING 2477
SWIDTH 576 0
DWIDTH 8 0
BBX 8 7 0 1
BITMAP
FF
00
B2
66
5A
22
1C
ENDCHAR
STARTCHAR 09AE
ENCODING 2478
SWIDTH 432 0
DWIDTH 6 0
BBX 6 8 0 0
BITMAP
FC
64
24
5C
4C
44
24
04
ENDCHAR
STARTCHAR 09AF
ENCODING 2479
SWIDTH 432 0
DWIDTH 6 0
BBX 6 8 0 0
BITMAP
FC
28
28
48
68
18
08
08
ENDCHAR
STARTCHAR 09B0
ENCODING 2480
SWIDTH 432 0
DWIDTH 6 0
BBX 6 8 0 0
BITMAP
FC
08
38
C8
28
18
28
28
ENDCHAR
STARTCHAR 09B2
ENCODING 2482
SWIDTH 504 0
DWIDTH 7 0
BBX 7 8 0 0
BITMAP
FE
04
7C
94
84
64
04
04
ENDCHAR
STARTCHAR 09B6
ENCODING 2486
SWIDTH 504 0
DWIDTH 7 0
BBX 7 9 0 0
BITMAP
04
CA
34
24
7C
04
04
04
04
ENDCHAR
STARTCHAR 09B7
ENCODING 2487
SWIDTH 432 0
DWIDTH 6 0
BBX 6 8 0 0
BITMAP
FC
68
38
48
68
18
08
08
ENDCHAR
STARTCHAR 09B8
ENCODING 2488
SWIDTH 504 0
DWIDTH 7 0
BBX 7 8 0 0
BITMAP
FE
64
2C
14
64
04
04
04
ENDCHAR
STARTCHAR 09B9
ENCODING 2489
SWIDTH 432 0
DWIDTH 6 0
BBX 7 9 0 -1
BITMAP
FC
30
48
48
08
70
08
04
02
ENDCHAR
STARTCHAR 09BC
ENCODING 2492
SWIDTH 0 0
DWIDTH 0 0
BBX 1 2 -4 -2
BITMAP
80
80
ENDCHAR
STARTCHAR 09BD
ENCODING 2493
SWIDTH 432 0
DWIDTH 6 0
BBX 7 9 0 -1
BITMAP
F0
30
48
48
08
70
18
04
02
ENDCHAR
STARTCHAR 09BE
ENCODING 2494
SWIDTH 216 0
DWIDTH 3 0
BBX 4 9 -1 0
BITMAP
20
F0
20
20
20
20
20
20
20
ENDCHAR
STARTCHAR 09BF
ENCODING 2495
SWIDTH 216 0
DWIDTH 3 0
BBX 7 11 0 0
BITMAP
78
86
80
E0
40
40
40
40
40
40
40
ENDCHAR
STARTCHAR 09C0
ENCODING 2496
SWIDTH 216 0
DWIDTH 3 0
BBX 8 11 -5 0
BITMAP
F8
E4
14
17
02
02
02
02
02
02
02
ENDCHAR
STARTCHAR 09C1
ENCODING 2497
SWIDTH 0 0
DWIDTH 0 0
BBX 5 4 -4 -3
BITMAP
20
F0
68
08
ENDCHAR
STARTCHAR 09C2
ENCODING 2498
SWIDTH 0 0
DWIDTH 0 0
BBX 5 4 -3 -3
BITMAP
60
80
70
08
ENDCHAR
STARTCHAR 09C3
ENCODING 2499
SWIDTH 0 0
DWIDTH 0 0
BBX 4 4 -5 -3
BITMAP
20
C0
60
10
ENDCHAR
STARTCHAR 09C4
ENCODING 2500
SWIDTH 0 0
DWIDTH 0 0
BBX 4 5 -4 -3
BITMAP
20
60
D0
40
30
ENDCHAR
STARTCHAR 09C7
ENCODING 2503
SWIDTH 288 0
DWIDTH 4 0
BBX 4 8 0 0
BITMAP
F0
20
40
80
80
80
40
30
ENDCHAR
STARTCHAR 09C8
ENCODING 2504
SWIDTH 288 0
DWIDTH 4 0
BBX 6 11 -1 0
BITMAP
80
F0
08
7C
10
20
40
40
40
20
18
ENDCHAR
STARTCHAR 09CB
ENCODING 2507
SWIDTH 0 0
DWIDTH 0 0
BBX 12 9 -6 0
BITMAP
0020
F0F0
4020
4020
8020
8020
8020
8020
7020
ENDCHAR
STARTCHAR 09CC
ENCODING 2508
SWIDTH 0 0
DWIDTH 0 0
BBX 12 11 -6 0
BITMAP
0400
07C0
0020
F070
2020
4020
8020
8020
8020
4020
7020
ENDCHAR
STARTCHAR 09CD
ENCODING 2509
SWIDTH 0 0
DWIDTH 0 0
BBX 2 2 -3 -2
BITMAP
80
40
ENDCHAR
STARTCHAR 09CE
ENCODING 2510
SWIDTH 360 0
DWIDTH 5 0
BBX 6 8 0 0
BITMAP
70
D0
B0
80
60
18
04
04
ENDCHAR
STARTCHAR 09D7
ENCODING 2519
SWIDTH 216 0
DWIDTH 3 0
BBX 7 11 -4 0
BITMAP
80
F8
04
0E
04
04
04
04
04
04
04
ENDCHAR
STARTCHAR 09DC
ENCODING 2524
SWIDTH 576 0
DWIDTH 8 0
BBX 8 10 0 -2
BITMAP
FF
10
90
56
4A
22
3C
00
08
08
ENDCHAR
STARTCHAR 09DD
ENCODING 2525
SWIDTH 432 0
DWIDTH 6 0
BBX 6 10 0 -2
BITMAP
FC
40
40
58
48
48
50
60
20
20
ENDCHAR
STARTCHAR 09DF
ENCODING 2527
SWIDTH 432 0
DWIDTH 6 0
BBX 6 8 0 0
BITMAP
FC
28
28
48
68
18
28
28
ENDCHAR
STARTCHAR 09E0
ENCODING 2528
SWIDTH 576 0
DWIDTH 8 0
BBX 8 12 0 -4
BITMAP
0A
B9
4A
3A
46
3A
0A
0A
0A
18
18
04
ENDCHAR
STARTCHAR 09E1
ENCODING 2529
SWIDTH 504 0
DWIDTH 7 0
BBX 7 13 2 -4
BITMAP
80
80
C0
30
68
98
98
38
50
0C
1A
1A
0C
ENDCHAR
STARTCHAR 09E2
ENCODING 2530
SWIDTH 0 0
DWIDTH 0 0
BBX 4 5 -5 -4
BITMAP
80
C0
70
D0
60
ENDCHAR
STARTCHAR 09E3
ENCODING 2531
SWIDTH 0 0
DWIDTH 0 0
BBX 8 6 -6 -4
BITMAP
08
86
65
5B
B7
30
ENDCHAR
STARTCHAR 09E6
ENCODING 2534
SWIDTH 504 0
DWIDTH 7 0
BBX 5 5 1 1
BITMAP
70
88
88
88
70
ENDCHAR
STARTCHAR 09E7
ENCODING 2535
SWIDTH 432 0
DWIDTH 6 0
BBX 4 8 1 0
BITMAP
80
80
40
20
10
10
90
E0
ENDCHAR
STARTCHAR 09E8
ENCODING 2536
SWIDTH 504 0
DWIDTH 7 0
BBX 6 8 1 0
BITMAP
60
10
10
90
60
30
08
04
ENDCHAR
STARTCHAR 09E9
ENCODING 2537
SWIDTH 504 0
DWIDTH 7 0
BBX 7 6 0 1
BITMAP
1C
A2
82
42
42
3C
ENDCHAR
STARTCHAR 09EA
ENCODING 2538
SWIDTH 504 0
DWIDTH 7 0
BBX 4 8 1 0
BITMAP
F0
90
90
60
50
90
90
60
ENDCHAR
STARTCHAR 09EB
ENCODING 2539
SWIDTH 504 0
DWIDTH 7 0
BBX 5 7 1 1
BITMAP
60
90
98
A0
A0
A0
70
ENDCHAR
STARTCHAR 09EC
ENCODING 2540
SWIDTH 504 0
DWIDTH 7 0
BBX 7 7 0 0
BITMAP
20
A0
AC
92
44
24
18
ENDCHAR
STARTCHAR 09ED
ENCODING 2541
SWIDTH 504 0
DWIDTH 7 0
BBX 5 7 1 0
BITMAP
20
50
88
48
38
08
08
ENDCHAR
STARTCHAR 09EE
ENCODING 2542
SWIDTH 504 0
DWIDTH 7 0
BBX 6 7 1 1
BITMAP
80
80
FC
90
A0
A0
40
ENDCHAR
STARTCHAR 09EF
ENCODING 2543
SWIDTH 504 0
DWIDTH 7 0
BBX 6 8 0 0
BITMAP
80
C0
30
0C
74
4C
4C
10
ENDCHAR
STARTCHAR 09F0
ENCODING 2544
SWIDTH 360 0
DWIDTH 5 0
BBX 6 8 0 0
BITMAP
FC
08
38
D8
28
18
08
08
ENDCHAR
STARTCHAR 09F1
ENCODING 2545
SWIDTH 360 0
DWIDTH 5 0
BBX 6 8 0 0
BITMAP
FC
08
38
C8
28
58
28
08
ENDCHAR
STARTCHAR 09F2
ENCODING 2546
SWIDTH 432 0
DWIDTH 6 0
BBX 7 8 0 1
BITMAP
80
60
10
08
04
04
04
02
ENDCHAR
STARTCHAR 09F3
ENCODING 2547
SWIDTH 360 0
DWIDTH 5 0
BBX 5 6 0 2
BITMAP
40
40
E8
48
48
30
ENDCHAR
STARTCHAR 09F4
ENCODING 2548
SWIDTH 432 0
DWIDTH 6 0
BBX 7 8 0 1
BITMAP
02
04
04
04
08
10
30
C0
ENDCHAR
STARTCHAR 09F5
ENCODING 2549
SWIDTH 504 0
DWIDTH 7 0
BBX 7 7 1 1
BITMAP
02
04
04
E8
B8
20
40
ENDCHAR
STARTCHAR 09F6
ENCODING 2550
SWIDTH 576 0
DWIDTH 8 0
BBX 8 8 0 0
BITMAP
01
02
32
52
14
E4
88
70
ENDCHAR
STARTCHAR 09F7
ENCODING 2551
SWIDTH 144 0
DWIDTH 2 0
BBX 2 6 0 2
BITMAP
80
80
80
80
80
40
ENDCHAR
STARTCHAR 09F8
ENCODING 2552
SWIDTH 360 0
DWIDTH 5 0
BBX 4 7 0 0
BITMAP
80
80
90
B0
B0
50
10
ENDCHAR
STARTCHAR 09F9
ENCODING 2553
SWIDTH 288 0
DWIDTH 4 0
BBX 4 5 1 2
BITMAP
60
90
90
90
F0
ENDCHAR
STARTCHAR 09FA
ENCODING 2554
SWIDTH 360 0
DWIDTH 5 0
BBX 7 5 0 5
BITMAP
02
04
B4
48
30
ENDCHAR
STARTCHAR 09FB
ENCODING 2555
SWIDTH 360 0
DWIDTH 5 0
BBX 3 6 1 -2
BITMAP
C0
80
80
80
40
20
ENDCHAR
STARTCHAR 0A01
ENCODING 2561
SWIDTH 0 0
DWIDTH 0 0
BBX 5 4 -5 9
BITMAP
20
A0
88
70
ENDCHAR
STARTCHAR 0A02
ENCODING 2562
SWIDTH 0 0
DWIDTH 0 0
BBX 2 2 -2 10
BITMAP
C0
C0
ENDCHAR
STARTCHAR 0A03
ENCODING 2563
SWIDTH 360 0
DWIDTH 5 0
BBX 3 8 1 1
BITMAP
40
A0
A0
C0
00
E0
A0
E0
ENDCHAR
STARTCHAR 0A05
ENCODING 2565
SWIDTH 864 0
DWIDTH 12 0
BBX 12 9 0 0
BITMAP
C070
4E40
3A40
32C0
6340
4240
4640
0440
0040
ENDCHAR
STARTCHAR 0A06
ENCODING 2566
SWIDTH 1080 0
DWIDTH 15 0
BBX 15 9 0 0
BITMAP
C07E
4E48
3A48
32C8
6348
4248
4640
0440
0040
ENDCHAR
STARTCHAR 0A07
ENCODING 2567
SWIDTH 864 0
DWIDTH 12 0
BBX 12 13 0 0
BITMAP
1800
2400
4000
4000
FFF0
4840
4440
47C0
4600
4800
5800
4C40
43C0
ENDCHAR
STARTCHAR 0A08
ENCODING 2568
SWIDTH 936 0
DWIDTH 13 0
BBX 13 13 0 0
BITMAP
0180
0240
0220
0020
FFF8
4120
2120
1F20
3020
4020
4020
6120
1E20
ENDCHAR
STARTCHAR 0A09
ENCODING 2569
SWIDTH 720 0
DWIDTH 10 0
BBX 10 15 0 -2
BITMAP
0C00
3300
4080
4080
FFC0
4080
4100
4300
7E00
4100
2100
3100
0E00
0000
1F00
ENDCHAR
STARTCHAR 0A0A
ENCODING 2570
SWIDTH 720 0
DWIDTH 10 0
BBX 10 17 0 -4
BITMAP
0C00
3300
4080
4080
FFC0
4080
4100
4300
7E00
4100
2100
3100
0E00
0000
1F00
0100
1E00
ENDCHAR
STARTCHAR 0A0F
ENCODING 2575
SWIDTH 648 0
DWIDTH 9 0
BBX 10 13 0 0
BITMAP
3000
0C00
0200
0000
FFC0
4100
2100
1F00
3800
4000
4000
6100
1E00
ENDCHAR
STARTCHAR 0A10
ENCODING 2576
SWIDTH 864 0
DWIDTH 12 0
BBX 12 14 0 0
BITMAP
0400
0300
0480
0340
02C0
C170
4F40
3A40
32C0
6340
4240
4640
0440
0040
ENDCHAR
STARTCHAR 0A13
ENCODING 2579
SWIDTH 720 0
DWIDTH 10 0
BBX 10 13 0 0
BITMAP
1F80
2000
4000
4000
FFC0
4080
4100
4200
7E00
4100
2100
3100
1E00
ENDCHAR
STARTCHAR 0A14
ENCODING 2580
SWIDTH 864 0
DWIDTH 12 0
BBX 12 13 0 1
BITMAP
1B80
0680
0280
0000
C070
4E40
3A40
32C0
6340
4240
4640
0440
0040
ENDCHAR
STARTCHAR 0A15
ENCODING 2581
SWIDTH 720 0
DWIDTH 10 0
BBX 10 9 0 0
BITMAP
FFC0
0100
0100
7900
4600
8200
4600
7900
0100
ENDCHAR
STARTCHAR 0A16
ENCODING 2582
SWIDTH 648 0
DWIDTH 9 0
BBX 9 9 0 0
BITMAP
C380
4200
2200
5E00
4200
4200
7E00
0200
0200
ENDCHAR
STARTCHAR 0A17
ENCODING 2583
SWIDTH 720 0
DWIDTH 10 0
BBX 10 9 0 0
BITMAP
FFC0
0900
0900
3900
4900
8900
4900
4900
3900
ENDCHAR
STARTCHAR 0A18
ENCODING 2584
SWIDTH 720 0
DWIDTH 10 0
BBX 11 9 0 0
BITMAP
C0E0
4C80
4C80
4880
4880
8880
4D80
3280
0080
ENDCHAR
STARTCHAR 0A19
ENCODING 2585
SWIDTH 648 0
DWIDTH 9 0
BBX 9 9 0 0
BITMAP
FF80
4000
4000
3E00
0100
7A00
4600
6A00
1200
ENDCHAR
STARTCHAR 0A1A
ENCODING 2586
SWIDTH 648 0
DWIDTH 9 0
BBX 10 9 0 0
BITMAP
FFC0
0100
0100
C100
FF00
4100
2100
2300
1E00
ENDCHAR
STARTCHAR 0A1B
ENCODING 2587
SWIDTH 648 0
DWIDTH 9 0
BBX 9 9 0 0
BITMAP
FF80
0100
0100
7F00
4000
4000
7F00
4900
7E00
ENDCHAR
STARTCHAR 0A1C
ENCODING 2588
SWIDTH 648 0
DWIDTH 9 0
BBX 9 9 0 0
BITMAP
FF80
0200
0200
6200
FE00
2200
2200
2200
2200
ENDCHAR
STARTCHAR 0A1D
ENCODING 2589
SWIDTH 648 0
DWIDTH 9 0
BBX 9 9 0 0
BITMAP
FF80
4200
2600
3C00
4200
0200
6200
3C00
1000
ENDCHAR
STARTCHAR 0A1E
ENCODING 2590
SWIDTH 648 0
DWIDTH 9 0
BBX 9 9 0 0
BITMAP
FF80
2200
3200
7E00
4000
7E00
1000
1000
0E00
ENDCHAR
STARTCHAR 0A1F
ENCODING 2591
SWIDTH 648 0
DWIDTH 9 0
BBX 9 9 0 0
BITMAP
FF80
0200
0200
1E00
2000
4000
8000
6000
1E00
ENDCHAR
STARTCHAR 0A20
ENCODING 2592
SWIDTH 648 0
DWIDTH 9 0
BBX 9 9 0 0
BITMAP
FF80
0800
0800
3600
4100
4100
4100
4100
3E00
ENDCHAR
STARTCHAR 0A21
ENCODING 2593
SWIDTH 648 0
DWIDTH 9 0
BBX 9 9 0 0
BITMAP
FF80
0200
0600
7C00
0200
0200
7A00
4600
7C00
ENDCHAR
STARTCHAR 0A22
ENCODING 2594
SWIDTH 648 0
DWIDTH 9 0
BBX 9 9 0 0
BITMAP
FF80
0200
4200
FE00
4000
2000
2F00
1100
0E00
ENDCHAR
STARTCHAR 0A23
ENCODING 2595
SWIDTH 648 0
DWIDTH 9 0
BBX 9 9 0 0
BITMAP
FF80
1000
0E00
1500
2C00
4400
4000
6000
1F00
ENDCHAR
STARTCHAR 0A24
ENCODING 2596
SWIDTH 648 0
DWIDTH 9 0
BBX 9 9 0 0
BITMAP
FF80
0200
0200
0600
7C00
0200
0100
4200
3E00
ENDCHAR
STARTCHAR 0A25
ENCODING 2597
SWIDTH 648 0
DWIDTH 9 0
BBX 9 9 0 0
BITMAP
FF80
4200
4200
7E00
4200
4200
4200
3E00
0200
ENDCHAR
STARTCHAR 0A26
ENCODING 2598
SWIDTH 648 0
DWIDTH 9 0
BBX 9 9 0 0
BITMAP
FF80
0100
0100
6100
FF00
2000
2000
2000
1E00
ENDCHAR
STARTCHAR 0A27
ENCODING 2599
SWIDTH 648 0
DWIDTH 9 0
BBX 9 9 0 0
BITMAP
FF80
4200
4200
4200
4200
4200
6600
1A00
0200
ENDCHAR
STARTCHAR 0A28
ENCODING 2600
SWIDTH 648 0
DWIDTH 9 0
BBX 9 9 0 0
BITMAP
FF80
0800
0800
3C00
4200
4100
4100
4200
2200
ENDCHAR
STARTCHAR 0A2A
ENCODING 2602
SWIDTH 648 0
DWIDTH 9 0
BBX 9 9 0 0
BITMAP
C380
2200
2200
2200
4200
4200
6600
1A00
0200
ENDCHAR
STARTCHAR 0A2B
ENCODING 2603
SWIDTH 648 0
DWIDTH 9 0
BBX 9 9 0 0
BITMAP
FF80
0200
0200
7C00
4000
4400
5A00
2100
1E00
ENDCHAR
STARTCHAR 0A2C
ENCODING 2604
SWIDTH 648 0
DWIDTH 9 0
BBX 9 9 0 0
BITMAP
FF80
4200
6200
3200
3E00
4200
4200
7E00
0200
ENDCHAR
STARTCHAR 0A2D
ENCODING 2605
SWIDTH 648 0
DWIDTH 9 0
BBX 9 9 0 0
BITMAP
FF80
0200
3200
4C00
8C00
7200
0200
0200
7C00
ENDCHAR
STARTCHAR 0A2E
ENCODING 2606
SWIDTH 648 0
DWIDTH 9 0
BBX 9 9 0 0
BITMAP
C180
2200
2200
2200
3E00
6200
4200
4200
4200
ENDCHAR
STARTCHAR 0A2F
ENCODING 2607
SWIDTH 720 0
DWIDTH 10 0
BBX 10 9 0 0
BITMAP
FFC0
4080
4080
4080
4780
4480
4480
3880
0080
ENDCHAR
STARTCHAR 0A30
ENCODING 2608
SWIDTH 648 0
DWIDTH 9 0
BBX 9 9 0 0
BITMAP
FF80
0200
0200
7E00
4200
4200
2200
3200
0C00
ENDCHAR
STARTCHAR 0A32
ENCODING 2610
SWIDTH 648 0
DWIDTH 9 0
BBX 10 9 0 0
BITMAP
FFC0
2200
1200
3700
4C80
8880
8080
4080
3300
ENDCHAR
STARTCHAR 0A33
ENCODING 2611
SWIDTH 720 0
DWIDTH 10 0
BBX 10 9 0 0
BITMAP
FFC0
1100
1200
3B00
4C80
4440
4040
6080
B100
ENDCHAR
STARTCHAR 0A35
ENCODING 2613
SWIDTH 648 0
DWIDTH 9 0
BBX 9 9 0 0
BITMAP
FF80
0200
0200
7E00
8000
7E00
2000
1000
0E00
ENDCHAR
STARTCHAR 0A36
ENCODING 2614
SWIDTH 648 0
DWIDTH 9 0
BBX 10 9 0 0
BITMAP
FFC0
2100
2100
2100
3F00
2100
6100
4900
4900
ENDCHAR
STARTCHAR 0A38
ENCODING 2616
SWIDTH 648 0
DWIDTH 9 0
BBX 10 9 0 0
BITMAP
FFC0
2100
2100
2100
3F00
2100
6100
4100
4100
ENDCHAR
STARTCHAR 0A39
ENCODING 2617
SWIDTH 648 0
DWIDTH 9 0
BBX 9 9 0 0
BITMAP
FF80
0200
0200
2200
4200
4200
4200
2200
1C00
ENDCHAR
STARTCHAR 0A3C
ENCODING 2620
SWIDTH 0 0
DWIDTH 0 0
BBX 1 1 -2 -2
BITMAP
80
ENDCHAR
STARTCHAR 0A3E
ENCODING 2622
SWIDTH 288 0
DWIDTH 4 0
BBX 4 6 0 3
BITMAP
F0
40
40
40
40
40
ENDCHAR
STARTCHAR 0A3F
ENCODING 2623
SWIDTH 360 0
DWIDTH 5 0
BBX 7 13 0 0
BITMAP
1C
22
22
20
F8
20
20
20
20
20
20
20
20
ENDCHAR
STARTCHAR 0A40
ENCODING 2624
SWIDTH 288 0
DWIDTH 4 0
BBX 8 13 -3 0
BITMAP
60
98
88
08
1F
08
08
08
08
08
08
08
08
ENDCHAR
STARTCHAR 0A41
ENCODING 2625
SWIDTH 0 0
DWIDTH 0 0
BBX 5 1 -7 -2
BITMAP
F8
ENDCHAR
STARTCHAR 0A42
ENCODING 2626
SWIDTH 0 0
DWIDTH 0 0
BBX 5 3 -7 -4
BITMAP
F8
00
F0
ENDCHAR
STARTCHAR 0A47
ENCODING 2631
SWIDTH 0 0
DWIDTH 0 0
BBX 5 4 -7 9
BITMAP
C0
30
10
08
ENDCHAR
STARTCHAR 0A48
ENCODING 2632
SWIDTH 0 0
DWIDTH 0 0
BBX 5 7 -7 0
BITMAP
C0
20
D0
78
40
20
20
ENDCHAR
STARTCHAR 0A4B
ENCODING 2635
SWIDTH 0 0
DWIDTH 0 0
BBX 5 3 -7 9
BITMAP
80
F0
08
ENDCHAR
STARTCHAR 0A4C
ENCODING 2636
SWIDTH 0 0
DWIDTH 0 0
BBX 6 3 -8 11
BITMAP
DC
34
14
ENDCHAR
STARTCHAR 0A4D
ENCODING 2637
SWIDTH 0 0
DWIDTH 0 0
BBX 4 3 -5 -4
BITMAP
C0
20
10
ENDCHAR
STARTCHAR 0A51
ENCODING 2641
SWIDTH 0 0
DWIDTH 0 0
BBX 4 3 -5 -4
BITMAP
80
40
30
ENDCHAR
STARTCHAR 0A59
ENCODING 2649
SWIDTH 648 0
DWIDTH 9 0
BBX 9 9 0 0
BITMAP
C380
4200
2200
5E00
4200
4200
3E00
4200
4200
ENDCHAR
STARTCHAR 0A5A
ENCODING 2650
SWIDTH 792 0
DWIDTH 11 0
BBX 11 9 0 0
BITMAP
FFE0
0480
0480
1C80
2480
4480
4480
2480
9C80
ENDCHAR
STARTCHAR 0A5B
ENCODING 2651
SWIDTH 648 0
DWIDTH 9 0
BBX 9 9 0 0
BITMAP
FF80
0200
0200
6200
FE00
2200
2200
2A00
2A00
ENDCHAR
STARTCHAR 0A5C
ENCODING 2652
SWIDTH 648 0
DWIDTH 9 0
BBX 9 9 0 0
BITMAP
FF80
0100
0200
7C00
0200
0200
8200
7C00
4400
ENDCHAR
STARTCHAR 0A5E
ENCODING 2654
SWIDTH 648 0
DWIDTH 9 0
BBX 9 9 0 0
BITMAP
FF80
0200
0200
7C00
4000
4400
5B00
2100
9E00
ENDCHAR
STARTCHAR 0A66
ENCODING 2662
SWIDTH 648 0
DWIDTH 9 0
BBX 9 8 0 1
BITMAP
1C00
2300
4100
8080
8080
4080
4100
3E00
ENDCHAR
STARTCHAR 0A67
ENCODING 2663
SWIDTH 576 0
DWIDTH 8 0
BBX 7 10 0 -1
BITMAP
10
6C
84
86
7C
04
04
04
04
02
ENDCHAR
STARTCHAR 0A68
ENCODING 2664
SWIDTH 648 0
DWIDTH 9 0
BBX 8 9 0 0
BITMAP
FE
02
01
01
01
02
FC
38
04
ENDCHAR
STARTCHAR 0A69
ENCODING 2665
SWIDTH 648 0
DWIDTH 9 0
BBX 8 9 0 0
BITMAP
FE
01
01
7E
01
01
E2
3C
06
ENDCHAR
STARTCHAR 0A6A
ENCODING 2666
SWIDTH 576 0
DWIDTH 8 0
BBX 7 9 0 0
BITMAP
64
82
82
42
7C
44
42
42
3C
ENDCHAR
STARTCHAR 0A6B
ENCODING 2667
SWIDTH 576 0
DWIDTH 8 0
BBX 7 9 0 0
BITMAP
C2
42
42
42
42
82
6E
12
02
ENDCHAR
STARTCHAR 0A6C
ENCODING 2668
SWIDTH 504 0
DWIDTH 7 0
BBX 6 12 0 0
BITMAP
04
08
10
08
7C
80
80
7C
40
80
80
7C
ENDCHAR
STARTCHAR 0A6D
ENCODING 2669
SWIDTH 648 0
DWIDTH 9 0
BBX 7 9 1 0
BITMAP
7C
42
02
02
02
04
08
30
C0
ENDCHAR
STARTCHAR 0A6E
ENCODING 2670
SWIDTH 648 0
DWIDTH 9 0
BBX 8 9 0 0
BITMAP
40
FF
40
40
40
20
20
10
0F
ENDCHAR
STARTCHAR 0A6F
ENCODING 2671
SWIDTH 648 0
DWIDTH 9 0
BBX 9 11 0 0
BITMAP
0380
0400
4200
FF00
4000
4000
2000
2000
2000
1800
0F00
ENDCHAR
STARTCHAR 0A70
ENCODING 2672
SWIDTH 0 0
DWIDTH 0 0
BBX 4 2 -4 10
BITMAP
E0
90
ENDCHAR
STARTCHAR 0A71
ENCODING 2673
SWIDTH 0 0
DWIDTH 0 0
BBX 5 3 -5 10
BITMAP
08
90
70
ENDCHAR
STARTCHAR 0A72
ENCODING 2674
SWIDTH 648 0
DWIDTH 9 0
BBX 10 9 0 0
BITMAP
FFC0
4100
2100
1F00
3800
4000
4000
6100
1E00
ENDCHAR
STARTCHAR 0A73
ENCODING 2675
SWIDTH 720 0
DWIDTH 10 0
BBX 10 13 0 0
BITMAP
0C00
3300
4080
4080
FFC0
4080
4100
4300
7E00
4100
2100
3100
0E00
ENDCHAR
STARTCHAR 0A74
ENCODING 2676
SWIDTH 1224 0
DWIDTH 17 0
BBX 21 14 0 -1
BITMAP
0000E0
007B10
008608
010408
010000
7BFF00
850200
850400
7D0C00
05F800
048400
048400
04C400
043800
ENDCHAR
STARTCHAR 0A75
ENCODING 2677
SWIDTH 0 0
DWIDTH 0 0
BBX 4 4 -4 -4
BITMAP
80
80
D0
60
ENDCHAR
STARTCHAR 0D02
ENCODING 3330
SWIDTH 432 0
DWIDTH 6 0
BBX 5 5 1 0
BITMAP
20
D8
88
88
70
ENDCHAR
STARTCHAR 0D03
ENCODING 3331
SWIDTH 288 0
DWIDTH 4 0
BBX 3 7 1 0
BITMAP
E0
A0
40
00
E0
A0
40
ENDCHAR
STARTCHAR 0D05
ENCODING 3333
SWIDTH 1368 0
DWIDTH 19 0
BBX 18 8 1 0
BITMAP
1FCE00
6F7180
492380
912440
972440
912440
49A440
6F2780
ENDCHAR
STARTCHAR 0D06
ENCODING 3334
SWIDTH 1512 0
DWIDTH 21 0
BBX 20 11 1 -3
BITMAP
1FCE00
6F7180
4923C0
912470
972450
912450
49A490
6F2790
000010
000020
0003C0
ENDCHAR
STARTCHAR 0D07
ENCODING 3335
SWIDTH 1008 0
DWIDTH 14 0
BBX 13 11 1 -3
BITMAP
3CE0
4730
B310
CA18
8A08
5A10
2030
7FE0
4000
4000
7FF8
ENDCHAR
STARTCHAR 0D08
ENCODING 3336
SWIDTH 1728 0
DWIDTH 24 0
BBX 23 11 1 -3
BITMAP
3CE1DC
473266
B31262
CA1A62
8A0802
5A1002
203046
7FE07C
400000
400000
7FF800
ENDCHAR
STARTCHAR 0D09
ENCODING 3337
SWIDTH 720 0
DWIDTH 10 0
BBX 9 11 1 -3
BITMAP
1C00
6300
7180
C880
8880
5880
2180
7E00
C000
C000
7F80
ENDCHAR
STARTCHAR 0D0A
ENCODING 3338
SWIDTH 1512 0
DWIDTH 21 0
BBX 20 11 1 -3
BITMAP
1C1DC0
633760
71A220
C8A230
888030
588020
218420
7E03C0
C00000
C00000
7F8000
ENDCHAR
STARTCHAR 0D0B
ENCODING 3339
SWIDTH 864 0
DWIDTH 12 0
BBX 11 11 1 -3
BITMAP
31C0
4B60
CA20
D960
B1A0
4040
3F80
6060
4020
4060
3FC0
ENDCHAR
STARTCHAR 0D0C
ENCODING 3340
SWIDTH 1080 0
DWIDTH 15 0
BBX 14 8 1 0
BITMAP
1CE0
6318
4308
B334
CB4C
CFCC
4B48
7B78
ENDCHAR
STARTCHAR 0D0E
ENCODING 3342
SWIDTH 1224 0
DWIDTH 17 0
BBX 16 11 1 -3
BITMAP
0038
0066
00C2
7893
C491
8491
8491
4FF1
0092
0092
0064
ENDCHAR
STARTCHAR 0D0F
ENCODING 3343
SWIDTH 1224 0
DWIDTH 17 0
BBX 16 11 1 -3
BITMAP
001C
0063
00C1
7891
C491
8493
8497
4FF1
0091
0091
0077
ENDCHAR
STARTCHAR 0D10
ENCODING 3344
SWIDTH 1944 0
DWIDTH 27 0
BBX 26 11 1 -3
BITMAP
1C000E00
63001180
41802080
B09E2480
C8A124C0
CCA164C0
4D2164C0
7B13FCC0
00002480
00002480
00003900
ENDCHAR
STARTCHAR 0D12
ENCODING 3346
SWIDTH 720 0
DWIDTH 10 0
BBX 9 8 1 0
BITMAP
1E00
6180
4080
A180
DB00
8880
C880
7380
ENDCHAR
STARTCHAR 0D13
ENCODING 3347
SWIDTH 1224 0
DWIDTH 17 0
BBX 16 8 1 0
BITMAP
1E1C
61B2
40A3
A181
DB01
88A3
C8A2
739E
ENDCHAR
STARTCHAR 0D14
ENCODING 3348
SWIDTH 1440 0
DWIDTH 20 0
BBX 19 8 1 0
BITMAP
1E1DC0
61B760
40A220
A1A220
DB0020
888020
C88420
7383C0
ENDCHAR
STARTCHAR 0D15
ENCODING 3349
SWIDTH 936 0
DWIDTH 13 0
BBX 12 8 1 0
BITMAP
0700
0980
0880
3FE0
48B0
8890
9890
7F70
ENDCHAR
STARTCHAR 0D16
ENCODING 3350
SWIDTH 936 0
DWIDTH 13 0
BBX 12 8 1 0
BITMAP
1C10
6310
4110
B190
D990
C990
C910
7BF0
ENDCHAR
STARTCHAR 0D17
ENCODING 3351
SWIDTH 936 0
DWIDTH 13 0
BBX 12 8 1 0
BITMAP
21C0
4260
C220
8210
8210
C610
4420
3C40
ENDCHAR
STARTCHAR 0D18
ENCODING 3352
SWIDTH 1368 0
DWIDTH 19 0
BBX 18 8 1 0
BITMAP
383840
4CCC40
848640
848240
47FE40
008040
008040
00FFC0
ENDCHAR
STARTCHAR 0D19
ENCODING 3353
SWIDTH 1008 0
DWIDTH 14 0
BBX 13 8 1 0
BITMAP
1CE0
6718
4308
B218
DA78
CA08
4A08
7270
ENDCHAR
STARTCHAR 0D1A
ENCODING 3354
SWIDTH 864 0
DWIDTH 12 0
BBX 11 8 1 0
BITMAP
0020
0020
0020
1E20
3220
2120
0220
FFE0
ENDCHAR
STARTCHAR 0D1B
ENCODING 3355
SWIDTH 1296 0
DWIDTH 18 0
BBX 17 8 1 0
BITMAP
001C00
002300
004700
1E8880
329080
219080
024980
FFEF00
ENDCHAR
STARTCHAR 0D1C
ENCODING 3356
SWIDTH 864 0
DWIDTH 12 0
BBX 11 8 1 0
BITMAP
3980
4640
A420
A420
60C0
7F60
8320
7DC0
ENDCHAR
STARTCHAR 0D1D
ENCODING 3357
SWIDTH 1584 0
DWIDTH 22 0
BBX 20 8 1 0
BITMAP
1B8120
666130
4B2110
912110
912110
912110
593110
6E1EE0
ENDCHAR
STARTCHAR 0D1E
ENCODING 3358
SWIDTH 1368 0
DWIDTH 19 0
BBX 18 8 1 0
BITMAP
1CEE00
679980
432C80
B34440
DB4440
8B4440
4B6480
7B3980
ENDCHAR
STARTCHAR 0D1F
ENCODING 3359
SWIDTH 576 0
DWIDTH 8 0
BBX 7 8 1 0
BITMAP
3C
46
80
C0
3E
02
02
7C
ENDCHAR
STARTCHAR 0D20
ENCODING 3360
SWIDTH 648 0
DWIDTH 9 0
BBX 8 8 1 0
BITMAP
1C
62
41
81
81
C1
43
3E
ENDCHAR
STARTCHAR 0D21
ENCODING 3361
SWIDTH 1296 0
DWIDTH 18 0
BBX 17 8 1 0
BITMAP
381000
441100
441080
861080
861080
821080
423180
61EF00
ENDCHAR
STARTCHAR 0D22
ENCODING 3362
SWIDTH 1368 0
DWIDTH 19 0
BBX 18 8 1 0
BITMAP
382300
442480
4424C0
8424C0
8427C0
842080
423180
23DF00
ENDCHAR
STARTCHAR 0D23
ENCODING 3363
SWIDTH 1368 0
DWIDTH 19 0
BBX 18 8 1 0
BITMAP
1CE700
631980
431880
B310C0
DB10C0
8B1080
CB1080
731100
ENDCHAR
STARTCHAR 0D24
ENCODING 3364
SWIDTH 936 0
DWIDTH 13 0
BBX 12 8 1 0
BITMAP
1DC0
6720
4D10
8890
8890
8890
4990
6720
ENDCHAR
STARTCHAR 0D25
ENCODING 3365
SWIDTH 864 0
DWIDTH 12 0
BBX 11 8 1 0
BITMAP
8380
8CC0
8840
8860
8860
8860
8860
FFE0
ENDCHAR
STARTCHAR 0D26
ENCODING 3366
SWIDTH 648 0
DWIDTH 9 0
BBX 8 8 1 0
BITMAP
1C
62
41
82
8E
81
C3
4E
ENDCHAR
STARTCHAR 0D27
ENCODING 3367
SWIDTH 936 0
DWIDTH 13 0
BBX 12 8 1 0
BITMAP
2640
4620
4610
8610
8610
C610
4620
3FC0
ENDCHAR
STARTCHAR 0D28
ENCODING 3368
SWIDTH 936 0
DWIDTH 13 0
BBX 12 8 1 0
BITMAP
39C0
6620
4210
8210
8210
C210
4220
2260
ENDCHAR
STARTCHAR 0D29
ENCODING 3369
SWIDTH 936 0
DWIDTH 13 0
BBX 12 8 1 0
BITMAP
39C0
6620
C210
A210
D210
8A10
9A20
7260
ENDCHAR
STARTCHAR 0D2A
ENCODING 3370
SWIDTH 864 0
DWIDTH 12 0
BBX 11 8 1 0
BITMAP
0020
0020
0020
7820
C420
8420
8420
4FE0
ENDCHAR
STARTCHAR 0D2B
ENCODING 3371
SWIDTH 1152 0
DWIDTH 16 0
BBX 15 8 1 0
BITMAP
0038
0064
0042
78C2
C4C2
84C2
84C2
4FFE
ENDCHAR
STARTCHAR 0D2C
ENCODING 3372
SWIDTH 1224 0
DWIDTH 17 0
BBX 16 8 1 0
BITMAP
1CE1
6331
4111
B109
D909
8919
C911
713F
ENDCHAR
STARTCHAR 0D2D
ENCODING 3373
SWIDTH 648 0
DWIDTH 9 0
BBX 8 8 1 0
BITMAP
1E
63
41
9E
90
9F
C1
5F
ENDCHAR
STARTCHAR 0D2E
ENCODING 3374
SWIDTH 648 0
DWIDTH 9 0
BBX 8 8 1 0
BITMAP
3C
6E
CB
89
89
91
B1
FF
ENDCHAR
STARTCHAR 0D2F
ENCODING 3375
SWIDTH 1008 0
DWIDTH 14 0
BBX 13 8 1 0
BITMAP
3380
4CC8
C848
8848
8848
4448
6690
3FE0
ENDCHAR
STARTCHAR 0D30
ENCODING 3376
SWIDTH 720 0
DWIDTH 10 0
BBX 9 8 1 0
BITMAP
1C00
6300
4780
8880
9880
9080
4980
6F00
ENDCHAR
STARTCHAR 0D31
ENCODING 3377
SWIDTH 648 0
DWIDTH 9 0
BBX 8 8 1 0
BITMAP
1C
66
41
81
81
81
41
26
ENDCHAR
STARTCHAR 0D32
ENCODING 3378
SWIDTH 864 0
DWIDTH 12 0
BBX 11 8 1 0
BITMAP
3820
6620
C220
8220
8220
FE20
8020
FFE0
ENDCHAR
STARTCHAR 0D33
ENCODING 3379
SWIDTH 720 0
DWIDTH 10 0
BBX 9 11 1 -3
BITMAP
1E00
6180
C080
F180
8B00
5880
2080
7F00
C000
4000
7F80
ENDCHAR
STARTCHAR 0D34
ENCODING 3380
SWIDTH 648 0
DWIDTH 9 0
BBX 8 8 1 0
BITMAP
4E
9B
91
91
4E
38
48
78
ENDCHAR
STARTCHAR 0D35
ENCODING 3381
SWIDTH 864 0
DWIDTH 12 0
BBX 11 8 1 0
BITMAP
1C20
6620
4120
8120
8120
8120
4320
27E0
ENDCHAR
STARTCHAR 0D36
ENCODING 3382
SWIDTH 1008 0
DWIDTH 14 0
BBX 13 8 1 0
BITMAP
21C0
4330
4678
8688
8688
C788
4488
3CF0
ENDCHAR
STARTCHAR 0D37
ENCODING 3383
SWIDTH 1080 0
DWIDTH 15 0
BBX 14 8 1 0
BITMAP
01C0
0344
0264
7B6C
C5FC
8464
8464
4FFC
ENDCHAR
STARTCHAR 0D38
ENCODING 3384
SWIDTH 1296 0
DWIDTH 18 0
BBX 17 8 1 0
BITMAP
39C200
662100
C23080
821080
821080
821080
421180
620F00
ENDCHAR
STARTCHAR 0D39
ENCODING 3385
SWIDTH 1152 0
DWIDTH 16 0
BBX 15 8 1 0
BITMAP
0038
00CC
0086
7902
C502
8582
8484
4FCC
ENDCHAR
STARTCHAR 0D3A
ENCODING 3386
SWIDTH 864 0
DWIDTH 12 0
BBX 11 11 1 -3
BITMAP
C000
C000
C000
C000
C000
C000
C000
FFE0
0400
0400
0400
ENDCHAR
STARTCHAR 0D3D
ENCODING 3389
SWIDTH 720 0
DWIDTH 10 0
BBX 9 14 1 -4
BITMAP
0780
0480
0400
0400
0400
0C00
1E00
0800
0800
0800
0800
1800
9000
7000
ENDCHAR
STARTCHAR 0D3E
ENCODING 3390
SWIDTH 504 0
DWIDTH 7 0
BBX 6 8 1 0
BITMAP
30
48
84
04
04
84
CC
78
ENDCHAR
STARTCHAR 0D3F
ENCODING 3391
SWIDTH 216 0
DWIDTH 3 0
BBX 5 11 -2 0
BITMAP
70
C8
48
08
08
08
08
08
08
08
08
ENDCHAR
STARTCHAR 0D40
ENCODING 3392
SWIDTH 216 0
DWIDTH 3 0
BBX 5 11 -2 0
BITMAP
F0
A8
E8
08
08
08
08
08
08
08
08
ENDCHAR
STARTCHAR 0D41
ENCODING 3393
SWIDTH 360 0
DWIDTH 5 0
BBX 4 12 1 -4
BITMAP
80
60
20
20
20
20
20
20
70
90
90
70
ENDCHAR
STARTCHAR 0D42
ENCODING 3394
SWIDTH 360 0
DWIDTH 5 0
BBX 4 12 1 -4
BITMAP
80
60
20
20
20
20
20
20
70
90
F0
70
ENDCHAR
STARTCHAR 0D43
ENCODING 3395
SWIDTH 432 0
DWIDTH 6 0
BBX 5 12 1 -4
BITMAP
40
40
40
40
20
20
10
18
E8
98
98
F0
ENDCHAR
STARTCHAR 0D44
ENCODING 3396
SWIDTH 432 0
DWIDTH 6 0
BBX 5 12 1 -4
BITMAP
40
40
40
40
20
20
10
18
E8
D8
D8
F0
ENDCHAR
STARTCHAR 0D46
ENCODING 3398
SWIDTH 720 0
DWIDTH 10 0
BBX 9 8 1 0
BITMAP
1C00
6300
4180
B080
C880
CC80
4D00
7B00
ENDCHAR
STARTCHAR 0D47
ENCODING 3399
SWIDTH 504 0
DWIDTH 7 0
BBX 6 8 1 0
BITMAP
38
7C
D4
8C
80
DC
54
3C
ENDCHAR
STARTCHAR 0D48
ENCODING 3400
SWIDTH 1440 0
DWIDTH 20 0
BBX 19 8 1 0
BITMAP
1C0700
6318C0
41B040
B0AC60
C8B660
CCA260
4D2240
7B1E80
ENDCHAR
STARTCHAR 0D4A
ENCODING 3402
SWIDTH 0 0
DWIDTH 0 0
BBX 17 8 -10 0
BITMAP
3C0700
660C80
810880
B10080
D90080
890880
890880
720700
ENDCHAR
STARTCHAR 0D4B
ENCODING 3403
SWIDTH 0 0
DWIDTH 0 0
BBX 15 8 -8 0
BITMAP
381C
5C26
D422
8C02
8002
9C22
5422
7C3C
ENDCHAR
STARTCHAR 0D4C
ENCODING 3404
SWIDTH 0 0
DWIDTH 0 0
BBX 20 8 -10 0
BITMAP
3C0CE0
661320
811310
B11310
D90010
890010
890230
7203E0
ENDCHAR
STARTCHAR 0D4D
ENCODING 3405
SWIDTH 0 0
DWIDTH 0 0
BBX 4 2 -1 8
BITMAP
90
E0
ENDCHAR
STARTCHAR 0D4E
ENCODING 3406
SWIDTH 288 0
DWIDTH 4 0
BBX 2 2 1 8
BITMAP
C0
C0
ENDCHAR
STARTCHAR 0D57
ENCODING 3415
SWIDTH 720 0
DWIDTH 10 0
BBX 9 8 1 0
BITMAP
6700
9900
9880
9880
0080
0080
1180
1F00
ENDCHAR
STARTCHAR 0D60
ENCODING 3424
SWIDTH 864 0
DWIDTH 12 0
BBX 11 11 1 -3
BITMAP
31C0
4B60
CA20
D960
B1A0
4040
3F80
6060
5F20
4560
3FC0
ENDCHAR
STARTCHAR 0D61
ENCODING 3425
SWIDTH 1224 0
DWIDTH 17 0
BBX 16 11 1 -3
BITMAP
1CE0
6310
433C
B34A
CB4D
CF89
4F49
7B79
0003
0002
003C
ENDCHAR
STARTCHAR 0D62
ENCODING 3426
SWIDTH 0 0
DWIDTH 0 0
BBX 9 5 -9 -4
BITMAP
7700
8B80
EA80
AC80
EB80
ENDCHAR
STARTCHAR 0D63
ENCODING 3427
SWIDTH 0 0
DWIDTH 0 0
BBX 10 7 -10 -4
BITMAP
7700
8B80
ED40
AD40
EB40
0040
0380
ENDCHAR
STARTCHAR 0D66
ENCODING 3430
SWIDTH 720 0
DWIDTH 10 0
BBX 9 8 1 0
BITMAP
1F80
6000
8400
8400
8400
8400
4400
7800
ENDCHAR
STARTCHAR 0D67
ENCODING 3431
SWIDTH 720 0
DWIDTH 10 0
BBX 9 11 1 -3
BITMAP
0E00
1100
3180
2080
2080
2080
2080
FF80
8000
8000
F000
ENDCHAR
STARTCHAR 0D68
ENCODING 3432
SWIDTH 792 0
DWIDTH 11 0
BBX 10 8 1 0
BITMAP
3800
6600
8200
8100
8100
8200
4200
67C0
ENDCHAR
STARTCHAR 0D69
ENCODING 3433
SWIDTH 1008 0
DWIDTH 14 0
BBX 13 8 1 0
BITMAP
3980
4E60
C420
8420
8420
8420
4420
2478
ENDCHAR
STARTCHAR 0D6A
ENCODING 3434
SWIDTH 648 0
DWIDTH 9 0
BBX 8 10 1 0
BITMAP
08
08
1C
6E
49
89
89
89
49
47
ENDCHAR
STARTCHAR 0D6B
ENCODING 3435
SWIDTH 936 0
DWIDTH 13 0
BBX 12 13 1 -3
BITMAP
0F00
30C0
6620
59B0
9090
A090
A090
A390
9090
50A0
4080
2180
1F00
ENDCHAR
STARTCHAR 0D6C
ENCODING 3436
SWIDTH 1224 0
DWIDTH 17 0
BBX 16 11 1 -3
BITMAP
39DC
4672
C421
8421
8421
8421
4421
2422
0002
0004
0078
ENDCHAR
STARTCHAR 0D6D
ENCODING 3437
SWIDTH 720 0
DWIDTH 10 0
BBX 9 11 1 -3
BITMAP
1C00
6200
4100
B100
D980
8900
C900
7900
0200
0600
3800
ENDCHAR
STARTCHAR 0D6E
ENCODING 3438
SWIDTH 864 0
DWIDTH 12 0
BBX 11 11 1 -3
BITMAP
3C20
6620
4220
8120
8120
8120
4220
27E0
0060
00C0
0780
ENDCHAR
STARTCHAR 0D6F
ENCODING 3439
SWIDTH 936 0
DWIDTH 13 0
BBX 12 11 1 0
BITMAP
0080
0080
0080
39C0
6EE0
C4B0
8490
8490
8490
4490
6460
ENDCHAR
STARTCHAR 0D70
ENCODING 3440
SWIDTH 1224 0
DWIDTH 17 0
BBX 16 11 1 -3
BITMAP
0C20
0C22
0C21
0C21
0C21
0C21
0C63
0FDE
0C00
1800
F000
ENDCHAR
STARTCHAR 0D71
ENCODING 3441
SWIDTH 864 0
DWIDTH 12 0
BBX 11 11 1 -3
BITMAP
3980
4660
C420
8420
8420
8420
4420
2420
0040
00C0
0700
ENDCHAR
STARTCHAR 0D72
ENCODING 3442
SWIDTH 1368 0
DWIDTH 19 0
BBX 17 9 1 0
BITMAP
000100
39C780
662480
421480
821780
82FE00
C39000
429000
22E000
ENDCHAR
STARTCHAR 0D73
ENCODING 3443
SWIDTH 864 0
DWIDTH 12 0
BBX 11 5 1 2
BITMAP
FFE0
8000
E000
A000
4000
ENDCHAR
STARTCHAR 0D74
ENCODING 3444
SWIDTH 936 0
DWIDTH 13 0
BBX 12 11 1 0
BITMAP
01C0
0240
0020
0FC0
30C0
4120
B120
DA30
8A30
4920
71E0
ENDCHAR
STARTCHAR 0D75
ENCODING 3445
SWIDTH 1080 0
DWIDTH 15 0
BBX 14 11 1 0
BITMAP
0070
00D8
0008
1CF0
6330
4348
B348
DB8C
8B8C
4B48
7378
ENDCHAR
STARTCHAR 0D79
ENCODING 3449
SWIDTH 1152 0
DWIDTH 16 0
BBX 15 8 1 0
BITMAP
39C0
6620
4210
8210
82FE
C390
4290
22E0
ENDCHAR
STARTCHAR 0D7A
ENCODING 3450
SWIDTH 1440 0
DWIDTH 20 0
BBX 19 11 1 0
BITMAP
000380
000480
000040
1CE780
631980
431A40
B31A40
DB1C60
8B1C60
4B1A40
731BC0
ENDCHAR
STARTCHAR 0D7B
ENCODING 3451
SWIDTH 1008 0
DWIDTH 14 0
BBX 13 11 1 0
BITMAP
0060
00B0
0010
39F0
6670
4250
8288
8288
C288
4298
2270
ENDCHAR
STARTCHAR 0D7C
ENCODING 3452
SWIDTH 720 0
DWIDTH 10 0
BBX 9 11 1 0
BITMAP
0600
0B00
0100
1F00
6700
4500
8980
8880
8880
4980
6700
ENDCHAR
STARTCHAR 0D7D
ENCODING 3453
SWIDTH 1152 0
DWIDTH 16 0
BBX 15 11 1 0
BITMAP
0038
0068
000C
1DE8
6618
4D34
88A4
88C6
88E6
49A4
673C
ENDCHAR
STARTCHAR 0D7E
ENCODING 3454
SWIDTH 1008 0
DWIDTH 14 0
BBX 13 11 1 0
BITMAP
0060
0090
0010
21D0
4330
4658
8488
8488
C488
4488
7870
ENDCHAR
STARTCHAR 0D7F
ENCODING 3455
SWIDTH 936 0
DWIDTH 13 0
BBX 12 11 1 0
BITMAP
00E0
01B0
0010
0730
09E0
08C0
3FE0
4890
8890
9890
7F70
ENDCHAR
STARTCHAR 10A0
ENCODING 4256
SWIDTH 576 0
DWIDTH 8 0
BBX 6 10 1 0
BITMAP
60
20
30
08
04
04
84
84
84
78
ENDCHAR
STARTCHAR 10A1
ENCODING 4257
SWIDTH 648 0
DWIDTH 9 0
BBX 7 10 1 0
BITMAP
C0
70
10
10
38
C4
82
82
C4
78
ENDCHAR
STARTCHAR 10A2
ENCODING 4258
SWIDTH 648 0
DWIDTH 9 0
BBX 7 10 1 0
BITMAP
78
C8
88
08
7C
82
82
82
C6
3C
ENDCHAR
STARTCHAR 10A3
ENCODING 4259
SWIDTH 792 0
DWIDTH 11 0
BBX 10 10 1 0
BITMAP
7780
8880
88C0
8880
8580
4200
F800
0E00
0100
0080
ENDCHAR
STARTCHAR 10A4
ENCODING 4260
SWIDTH 576 0
DWIDTH 8 0
BBX 6 10 1 0
BITMAP
7C
C4
84
04
04
04
84
84
C4
78
ENDCHAR
STARTCHAR 10A5
ENCODING 4261
SWIDTH 576 0
DWIDTH 8 0
BBX 6 10 1 0
BITMAP
7C
C4
84
04
18
04
84
84
84
78
ENDCHAR
STARTCHAR 10A6
ENCODING 4262
SWIDTH 792 0
DWIDTH 11 0
BBX 9 10 1 0
BITMAP
F000
8800
8800
7800
1700
1880
1080
1080
1880
0F00
ENDCHAR
STARTCHAR 10A7
ENCODING 4263
SWIDTH 936 0
DWIDTH 13 0
BBX 10 10 1 0
BITMAP
7BC0
C640
8640
8640
8640
8640
8640
8440
4440
7840
ENDCHAR
STARTCHAR 10A8
ENCODING 4264
SWIDTH 648 0
DWIDTH 9 0
BBX 7 10 1 0
BITMAP
7C
C4
82
82
82
82
82
84
44
44
ENDCHAR
STARTCHAR 10A9
ENCODING 4265
SWIDTH 576 0
DWIDTH 8 0
BBX 6 10 1 0
BITMAP
0C
04
04
04
0C
84
84
84
84
78
ENDCHAR
STARTCHAR 10AA
ENCODING 4266
SWIDTH 936 0
DWIDTH 13 0
BBX 11 10 1 0
BITMAP
FFE0
9120
9120
9120
8000
4000
F800
0780
00C0
0040
ENDCHAR
STARTCHAR 10AB
ENCODING 4267
SWIDTH 576 0
DWIDTH 8 0
BBX 6 10 1 0
BITMAP
7C
C4
84
04
7C
C4
84
84
C4
78
ENDCHAR
STARTCHAR 10AC
ENCODING 4268
SWIDTH 576 0
DWIDTH 8 0
BBX 7 10 1 0
BITMAP
7C
80
80
80
B8
C4
86
86
44
78
ENDCHAR
STARTCHAR 10AD
ENCODING 4269
SWIDTH 792 0
DWIDTH 11 0
BBX 9 10 1 0
BITMAP
7700
8880
8880
8880
8880
8080
8080
8080
C080
4100
ENDCHAR
ENDFONT
